SplineFontDB: 3.0
FontName: Nobile-Light
FullName: Nobile Light
FamilyName: Nobile
Weight: Light
Copyright: Font Data Copyright (c) 2013 Vernon Adams
Version: 1
ItalicAngle: 0
UnderlinePosition: 0
UnderlineWidth: 0
Ascent: 1638
Descent: 410
UFOAscent: 1638
UFODescent: -410
LayerCount: 2
Layer: 0 0 "Back"  1
Layer: 1 0 "Fore"  0
FSType: 0
OS2Version: 0
OS2_WeightWidthSlopeOnly: 0
OS2_UseTypoMetrics: 1
CreationTime: 1385741553
ModificationTime: 1385761818
PfmFamily: 17
TTFWeight: 300
TTFWidth: 5
LineGap: 0
VLineGap: 0
OS2TypoAscent: 0
OS2TypoAOffset: 1
OS2TypoDescent: 0
OS2TypoDOffset: 1
OS2TypoLinegap: 0
OS2WinAscent: 0
OS2WinAOffset: 1
OS2WinDescent: 0
OS2WinDOffset: 1
HheadAscent: 0
HheadAOffset: 1
HheadDescent: 0
HheadDOffset: 1
OS2Vendor: 'newt'
Lookup: 258 0 0 "'kern' Horizontal Kerning in Latin lookup 0"  {"'kern' Horizontal Kerning in Latin lookup 0 subtable"  } ['kern' ('latn' <'dflt' > ) ]
MarkAttachClasses: 1
DEI: 91125
LangName: 1033 
PickledData: "(dp1
S'com.typemytype.robofont.compileSettings.autohint'
p2
I01
sS'com.typemytype.robofont.compileSettings.decompose'
p3
I01
sS'com.typemytype.robofont.foreground.layerStrokeColor'
p4
(F0.5
F0
F0.5
F0.69999999999999996
tp5
sS'com.typemytype.robofont.guides'
p6
((dp7
S'angle'
p8
I0
sS'name'
p9
NsS'magnetic'
p10
I5
sS'isGlobal'
p11
I1
sS'y'
I-16
sS'x'
I709
s(dp12
g8
I0
sg9
Nsg10
I5
sg11
I1
sS'y'
I1659
sS'x'
I245
s(dp13
g8
I0
sg9
Nsg10
I5
sg11
I1
sS'y'
I1536
sS'x'
I243
s(dp14
g8
I0
sg9
Nsg10
I5
sg11
I1
sS'y'
I64
sS'x'
I312
s(dp15
g8
I0
sg9
Nsg10
I5
sg11
I1
sS'y'
I1188
sS'x'
I707
s(dp16
g8
I0
sg9
Nsg10
I5
sg11
I1
sS'y'
I1108
sS'x'
I333
stp17
sS'com.schriftgestaltung.fontMasterID'
p18
S'62A3BFEA-C40F-4C52-8163-9746267C4BA9'
p19
sS'com.typemytype.robofont.compileSettings.releaseMode'
p20
I00
sS'com.typemytype.robofont.shouldAddPointsInSplineConversion'
p21
I01
sS'com.typemytype.robofont.b.layerStrokeColor'
p22
(F1
F0.75
F0
F0.69999999999999996
tp23
sS'com.typemytype.robofont.segmentType'
p24
S'curve'
p25

StartChar: .notdef
Encoding: 65536 -1 0
Width: 784
VWidth: 0
Flags: W
PickledData: "(dp1
S'position'
p2
I618
sS'vhints'
p3
(dp4
sS'hhints'
p5
(dp6
sS'com.fontlab.hintData'
p7
(dp8
sS'width'
p9
I68
s."
HStem: 0 68<210 618> 1297 68<210 618>
VStem: 142 68<68 1297> 618 68<68 1297>
LayerCount: 2
Fore
SplineSet
142 0 m 1
 142 1365 l 1
 686 1365 l 1
 686 0 l 1
 142 0 l 1
210 68 m 1
 618 68 l 1
 618 1297 l 1
 210 1297 l 1
 210 68 l 1
EndSplineSet
EndChar

StartChar: A
Encoding: 65 65 1
Width: 1356
VWidth: 0
Flags: HW
PickledData: "(dp1
S'hhints'
p2
(dp3
sS'anchors'
p4
(tsS'com.typemytype.robofont.layerData'
p5
(dp6
S'b'
(dp7
S'name'
p8
S'A'
sS'lib'
p9
(dp10
sS'unicodes'
p11
(tsS'width'
p12
I1357
sS'contours'
p13
(tsS'components'
p14
(tsg4
(tsssg11
(tsS'com.fontlab.hintData'
p15
(dp16
sg12
I1357
sg13
(tsg14
(tsS'position'
p17
I1580
sg8
S'A'
s."
LayerCount: 2
Fore
SplineSet
1039 482 m 1
 314 482 l 1
 675 1549 l 1
 1039 482 l 1
146 0 m 1
 288 401 l 1
 1069 401 l 1
 1211 0 l 1
 1308 0 l 1
 745 1620 l 1
 603 1620 l 1
 49 0 l 1
 146 0 l 1
EndSplineSet
EndChar

StartChar: AE
Encoding: 198 198 2
Width: 1744
VWidth: 0
Flags: HW
PickledData: "(dp1
S'position'
p2
I981
sS'vhints'
p3
(dp4
sS'hhints'
p5
(dp6
sS'com.fontlab.hintData'
p7
(dp8
sS'width'
p9
I63
s."
LayerCount: 2
Fore
SplineSet
386 479 m 1
 981 479 l 1
 981 1521 l 1
 386 479 l 1
-39 0 m 1
 897 1580 l 1
 1678 1580 l 1
 1678 1469 l 1
 1041 1469 l 1
 1041 865 l 1
 1660 865 l 1
 1660 776 l 1
 1044 776 l 1
 1044 100 l 1
 1715 100 l 1
 1715 0 l 1
 984 0 l 1
 984 382 l 1
 319 382 l 1
 90 0 l 1
 -39 0 l 1
EndSplineSet
EndChar

StartChar: B
Encoding: 66 66 12
Width: 1286
VWidth: 0
Flags: HW
PickledData: "(dp1
S'hhints'
p2
(dp3
sS'anchors'
p4
(tsS'com.typemytype.robofont.layerData'
p5
(dp6
S'b'
(dp7
S'name'
p8
S'B'
sS'lib'
p9
(dp10
sS'unicodes'
p11
(tsS'width'
p12
I1287
sS'contours'
p13
(tsS'components'
p14
(tsg4
(tsssg11
(tsS'vhints'
p15
(dp16
sS'com.fontlab.hintData'
p17
(dp18
sg12
I1287
sg13
(tsg14
(tsS'position'
p19
I1122
sg8
S'B'
s."
LayerCount: 2
Fore
SplineSet
193 84 m 1
 524 84 l 2
 818 84 1122 106 1122 467 c 0
 1122 796 838 843 572 843 c 2
 193 843 l 1
 193 934 l 1
 573 934 l 2
 816 934 1041 967 1041 1259 c 0
 1041 1531 777 1537 509 1537 c 2
 193 1535 l 1
 193 1620 l 1
 499 1620 l 2
 795 1620 1129 1616 1129 1252 c 0
 1129 1029 1024 935 832 896 c 1
 1084 860 1207 731 1207 460 c 0
 1207 76 910 0 538 0 c 2
 193 0 l 1
 193 84 l 1
EndSplineSet
Refer: 299 -1 N 1 0 0 1 0 0 2
EndChar

StartChar: C
Encoding: 67 67 13
Width: 1256
VWidth: 0
Flags: W
PickledData: "(dp1
S'hhints'
p2
(dp3
sS'name'
p4
S'C'
sS'unicodes'
p5
(tsS'vhints'
p6
(dp7
sS'com.fontlab.hintData'
p8
(dp9
sS'width'
p10
I1270
sS'contours'
p11
(tsS'components'
p12
(tsS'position'
p13
I120
sS'anchors'
p14
(ts."
HStem: -18 84<523.901 992.775> 1554 84<552.619 991.859>
VStem: 104 102<430.098 1138.56>
LayerCount: 2
Fore
SplineSet
1147 1520 m 5
 1111 1450 l 5
 1080 1472 953 1554 766 1554 c 4
 283 1554 206 1102 206 789 c 4
 206 465 276 66 757 66 c 4
 937 66 1059 128 1151 185 c 5
 1191 120 l 5
 1094 50 921 -18 761 -18 c 4
 226 -18 104 395 104 790 c 4
 104 1218 259 1638 767 1638 c 4
 955 1638 1104 1553 1147 1520 c 5
EndSplineSet
EndChar

StartChar: D
Encoding: 68 68 19
Width: 1447
VWidth: 0
Flags: HW
PickledData: "(dp1
S'hhints'
p2
(dp3
sS'anchors'
p4
(tsS'com.typemytype.robofont.layerData'
p5
(dp6
S'b'
(dp7
S'name'
p8
S'D'
sS'lib'
p9
(dp10
sS'unicodes'
p11
(tsS'width'
p12
I1448
sS'contours'
p13
(tsS'components'
p14
(tsg4
(tsssg11
(tsS'vhints'
p15
(dp16
sS'com.fontlab.hintData'
p17
(dp18
sg8
S'D'
sg12
I1418
sg13
(tsg14
(tsS'position'
p19
I1197
sS'com.typemytype.robofont.guides'
p20
(ts."
LayerCount: 2
Fore
SplineSet
190 1620 m 5
 711 1620 l 6
 1190 1620 1312 1215 1312 811 c 0
 1312 404 1193 0 711 0 c 2
 190 0 l 1
 190 84 l 1
 732 84 l 2
 1129 84 1212 470 1212 811 c 0
 1212 1150 1116 1536 732 1536 c 6
 190 1536 l 5
 190 1620 l 5
EndSplineSet
Refer: 299 -1 N 1 0 0 1 0 0 2
EndChar

StartChar: Dcroat
Encoding: 272 272 21
Width: 1447
VWidth: 0
Flags: HW
PickledData: "(dp1
S'position'
p2
I1183
sS'vhints'
p3
(dp4
sS'hhints'
p5
(dp6
sS'com.fontlab.hintData'
p7
(dp8
sS'width'
p9
I201
s."
LayerCount: 2
Fore
SplineSet
172 0 m 1
 172 764 l 1
 10 764 l 1
 10 895 l 1
 172 895 l 1
 172 1579 l 1
 725 1579 l 2
 1218 1579 1384 1231 1384 788 c 0
 1384 338 1221 0 725 0 c 2
 172 0 l 1
366 143 m 1
 725 143 l 2
 1118 143 1183 465 1183 789 c 0
 1183 1111 1114 1436 725 1436 c 2
 366 1436 l 1
 366 895 l 1
 600 895 l 1
 600 764 l 1
 366 764 l 1
 366 143 l 1
EndSplineSet
EndChar

StartChar: E
Encoding: 69 69 22
Width: 1153
VWidth: 0
Flags: HW
PickledData: "(dp1
S'hhints'
p2
(dp3
sS'anchors'
p4
(tsS'com.typemytype.robofont.layerData'
p5
(dp6
S'b'
(dp7
S'name'
p8
S'E'
sS'lib'
p9
(dp10
sS'unicodes'
p11
(tsS'width'
p12
I1154
sS'contours'
p13
(tsS'components'
p14
(tsg4
(tsssg11
(tsS'vhints'
p15
(dp16
sS'com.fontlab.hintData'
p17
(dp18
sg12
I1089
sg13
(tsg14
(tsS'position'
p19
I141
sg8
S'E'
s."
LayerCount: 2
Fore
SplineSet
160 1620 m 5
 1065 1620 l 5
 1065 1536 l 5
 261 1536 l 5
 160 1620 l 5
203 893 m 1
 952 893 l 1
 952 809 l 1
 203 809 l 1
 203 893 l 1
160 0 m 1
 261 84 l 1
 1079 84 l 1
 1079 0 l 1
 160 0 l 1
EndSplineSet
Refer: 299 -1 N 1 0 0 1 19 0 2
EndChar

StartChar: Eth
Encoding: 208 208 31
Width: 1431
VWidth: 0
Flags: HW
PickledData: "(dp1
S'position'
p2
I1240
sS'vhints'
p3
(dp4
sS'hhints'
p5
(dp6
sS'com.fontlab.hintData'
p7
(dp8
sS'width'
p9
I110
s."
LayerCount: 2
Fore
SplineSet
190 0 m 1
 190 807 l 1
 26 807 l 1
 26 884 l 1
 190 884 l 1
 190 1580 l 1
 771 1580 l 2
 1239 1580 1350 1187 1350 791 c 0
 1350 369 1235 0 771 0 c 2
 190 0 l 1
290 84 m 1
 792 84 l 2
 1171 84 1240 469 1240 792 c 0
 1240 1111 1160 1495 792 1495 c 2
 290 1495 l 1
 290 884 l 1
 508 884 l 1
 508 807 l 1
 290 807 l 1
 290 84 l 1
EndSplineSet
EndChar

StartChar: Euro
Encoding: 8364 8364 32
Width: 774
VWidth: 0
Flags: HW
PickledData: "(dp1
S'position'
p2
I142
sS'vhints'
p3
(dp4
sS'hhints'
p5
(dp6
sS'com.fontlab.hintData'
p7
(dp8
sS'width'
p9
I78
s."
LayerCount: 2
Fore
SplineSet
529 -39 m 0
 205 -39 127 406 128 585 c 1
 -53 585 l 1
 -53 671 l 1
 124 671 l 1
 124 671 128 772 128 784 c 1
 -68 784 l 1
 -68 870 l 1
 150 870 l 1
 147 939 142 1002 142 1059 c 0
 142 1241 197 1353 574 1353 c 0
 589 1353 611 1354 638 1354 c 0
 695 1354 771 1349 844 1314 c 1
 823 1268 l 1
 750 1299 693 1305 650 1305 c 0
 621 1305 598 1302 580 1302 c 0
 326 1302 220 1156 220 951 c 0
 220 925 222 898 225 870 c 1
 637 870 l 1
 637 784 l 1
 228 784 l 1
 225 760 224 737 224 716 c 2
 224 688 l 1
 224 671 l 1
 584 671 l 1
 584 585 l 1
 219 585 l 1
 218 567 217 548 217 528 c 0
 217 322 286 28 563 28 c 0
 638 28 752 38 840 87 c 1
 882 34 l 1
 780 -33 594 -39 529 -39 c 0
EndSplineSet
EndChar

StartChar: F
Encoding: 70 70 33
Width: 1038
VWidth: 0
Flags: HW
PickledData: "(dp1
S'hhints'
p2
(dp3
sS'name'
p4
S'F'
sS'unicodes'
p5
(tsS'vhints'
p6
(dp7
sS'com.fontlab.hintData'
p8
(dp9
sS'width'
p10
I1039
sS'contours'
p11
(tsS'components'
p12
(tsS'position'
p13
I141
sS'anchors'
p14
(ts."
LayerCount: 2
Fore
SplineSet
194 1620 m 5
 975 1620 l 5
 975 1545 l 5
 194 1545 l 5
 194 1620 l 5
198 819 m 1
 927 819 l 1
 927 878 l 1
 198 878 l 1
 198 819 l 1
EndSplineSet
Refer: 299 -1 N 1 0 0 1 0 0 2
EndChar

StartChar: G
Encoding: 71 71 34
Width: 1410
VWidth: 0
Flags: W
PickledData: "(dp1
S'hhints'
p2
(dp3
sS'name'
p4
S'G'
sS'unicodes'
p5
(tsS'vhints'
p6
(dp7
sS'com.fontlab.hintData'
p8
(dp9
sS'width'
p10
I1411
sS'points'
p11
(tsS'contours'
p12
(tsS'components'
p13
(tsS'segmentType'
p14
S'line'
p15
sS'position'
p16
I1303
sS'anchors'
p17
(ts."
HStem: -18 84<528.144 984.434> 0 21G<1219.54 1274> 730 75<759 1184> 1553 85<550.493 1016.67>
VStem: 104 102<431.037 1139.53> 1184 90<223.539 730> 1222 52<0 116.48>
LayerCount: 2
Back
SplineSet
1147 1520 m 5
 1111 1450 l 5
 1080 1472 953 1554 766 1554 c 4
 283 1554 206 1102 206 789 c 4
 206 465 276 66 757 66 c 4
 937 66 1059 128 1151 185 c 5
 1191 120 l 5
 1094 50 921 -18 761 -18 c 4
 226 -18 104 395 104 790 c 4
 104 1218 259 1638 767 1638 c 4
 955 1638 1104 1553 1147 1520 c 5
EndSplineSet
Fore
SplineSet
758 -18 m 0xba
 247 -18 104 357 104 805 c 0
 104 1203 264 1638 758 1638 c 4
 987 1638 1164 1543 1213 1505 c 1
 1180 1436 l 1
 1125 1474 965 1553 757 1553 c 0
 296 1553 206 1099 206 805 c 0
 206 447 282 66 758 66 c 0
 1005.01218371 66 1184 183 1184 371 c 1
 1184 730 l 1xbc
 759 730 l 1
 759 805 l 1
 1274 805 l 1
 1274 0 l 1
 1222 0 l 1x7a
 1198 195 l 1
 1155 87 983 -18 758 -18 c 0xba
EndSplineSet
EndChar

StartChar: H
Encoding: 72 72 39
Width: 1497
VWidth: 0
Flags: W
PickledData: "(dp1
S'hhints'
p2
(dp3
sS'anchors'
p4
(tsS'com.typemytype.robofont.layerData'
p5
(dp6
S'b'
(dp7
S'name'
p8
S'H'
sS'lib'
p9
(dp10
sS'unicodes'
p11
(tsS'width'
p12
I1498
sS'contours'
p13
((dp14
S'points'
p15
((dp16
S'segmentType'
p17
S'line'
p18
sS'x'
I160
sS'smooth'
p19
I00
sS'y'
I0
s(dp20
g17
S'line'
p21
sS'x'
I160
sg19
I00
sS'y'
I1580
s(dp22
g17
S'line'
p23
sS'x'
I260
sg19
I00
sS'y'
I1580
s(dp24
g17
S'line'
p25
sS'x'
I260
sg19
I00
sS'y'
I852
s(dp26
g17
S'line'
p27
sS'x'
I1237
sg19
I00
sS'y'
I852
s(dp28
g17
S'line'
p29
sS'x'
I1237
sg19
I00
sS'y'
I1580
s(dp30
g17
S'line'
p31
sS'x'
I1338
sg19
I00
sS'y'
I1580
s(dp32
g17
S'line'
p33
sS'x'
I1338
sg19
I00
sS'y'
I0
s(dp34
g17
S'line'
p35
sS'x'
I1237
sg19
I00
sS'y'
I0
s(dp36
g17
S'line'
p37
sS'x'
I1237
sg19
I00
sS'y'
I796
s(dp38
g17
S'line'
p39
sS'x'
I260
sg19
I00
sS'y'
I796
s(dp40
g17
S'line'
p41
sS'x'
I260
sg19
I00
sS'y'
I0
stp42
stp43
sS'components'
p44
(tsg4
(tsssg11
(tsS'vhints'
p45
(dp46
sS'com.fontlab.hintData'
p47
(dp48
sg12
I1459
sg13
(tsg44
(tsS'position'
p49
I1218
sg8
S'H'
s."
HStem: 0 21<160 260 1238 1338> 782 82<210 1288>
VStem: 160 100<0 1622> 1238 100<0 1622>
LayerCount: 2
Fore
SplineSet
210 864 m 1
 1288 864 l 1
 1288 782 l 1
 210 782 l 1
 210 864 l 1
EndSplineSet
Refer: 299 -1 N 1 0 0 1 1097 0 2
Refer: 299 -1 N 1 0 0 1 19 0 2
EndChar

StartChar: I
Encoding: 73 73 41
Width: 732
VWidth: 0
Flags: HW
PickledData: "(dp1
S'hhints'
p2
(dp3
sS'anchors'
p4
(tsS'com.typemytype.robofont.layerData'
p5
(dp6
S'b'
(dp7
S'name'
p8
S'I'
sS'lib'
p9
(dp10
sS'unicodes'
p11
(tsS'width'
p12
I733
sS'contours'
p13
(tsS'components'
p14
(tsg4
(tsssg11
(tsS'vhints'
p15
(dp16
sS'com.fontlab.hintData'
p17
(dp18
sg12
I733
sg13
(tsg14
(tsS'position'
p19
I324
sg8
S'I'
s."
LayerCount: 2
Fore
SplineSet
96 0 m 1
 96 60 l 1
 626 60 l 1
 626 0 l 1
 96 0 l 1
96 1560 m 5
 96 1620 l 5
 626 1620 l 5
 626 1560 l 5
 96 1560 l 5
EndSplineSet
Refer: 299 -1 N 1 0 0 1 175 0 2
EndChar

StartChar: J
Encoding: 74 74 51
Width: 633
VWidth: 0
Flags: W
PickledData: "(dp1
S'hhints'
p2
(dp3
sS'name'
p4
S'J'
sS'unicodes'
p5
(tsS'vhints'
p6
(dp7
sS'com.fontlab.hintData'
p8
(dp9
sS'width'
p10
I634
sS'contours'
p11
(tsS'components'
p12
(tsS'position'
p13
I396
sS'anchors'
p14
(ts."
HStem: -457 86<90.3327 240.392> 0 21<395 495>
VStem: 395 100<-245.702 28 0 1620>
LayerCount: 2
Fore
SplineSet
94 -457 m 1
 72 -371 l 1
 380 -322 395 -235 395 30 c 0
 495 28 l 1
 495 -274.390625 453.836914062 -417 94 -457 c 1
EndSplineSet
Refer: 299 -1 N 1 0 0 1 254 0 2
EndChar

StartChar: K
Encoding: 75 75 53
Width: 1197
VWidth: 0
Flags: HW
PickledData: "(dp1
S'hhints'
p2
(dp3
sS'name'
p4
S'K'
sS'unicodes'
p5
(tsS'vhints'
p6
(dp7
sS'com.fontlab.hintData'
p8
(dp9
sS'width'
p10
I1198
sS'contours'
p11
(tsS'components'
p12
(tsS'position'
p13
I141
sS'anchors'
p14
(ts."
LayerCount: 2
Fore
SplineSet
192 855 m 5
 293 855 l 5
 1027 1620 l 1
 1141 1620 l 1
 387 827 l 5
 1196 0 l 1
 1075 0 l 1
 298 786 l 5
 192 786 l 5
 192 855 l 5
EndSplineSet
Refer: 299 -1 N 1 0 0 1 0 0 2
EndChar

StartChar: L
Encoding: 76 76 55
Width: 1115
VWidth: 0
Flags: HW
PickledData: "(dp1
S'hhints'
p2
(dp3
sS'name'
p4
S'L'
sS'unicodes'
p5
(tsS'vhints'
p6
(dp7
sS'com.fontlab.hintData'
p8
(dp9
sS'width'
p10
I1116
sS'contours'
p11
(tsS'components'
p12
(tsS'position'
p13
I141
sS'anchors'
p14
(ts."
LayerCount: 2
Fore
SplineSet
191 0 m 1
 191 76 l 5
 1054 76 l 1
 1054 0 l 1
 191 0 l 1
EndSplineSet
Refer: 299 -1 N 1 0 0 1 0 0 2
EndChar

StartChar: M
Encoding: 77 77 60
Width: 1775
VWidth: 0
Flags: HW
PickledData: "(dp1
S'hhints'
p2
(dp3
sS'anchors'
p4
(tsS'com.typemytype.robofont.layerData'
p5
(dp6
S'b'
(dp7
S'name'
p8
S'M'
sS'lib'
p9
(dp10
sS'unicodes'
p11
(tsS'width'
p12
I1776
sS'contours'
p13
((dp14
S'points'
p15
((dp16
S'segmentType'
p17
S'line'
p18
sS'x'
I160
sS'smooth'
p19
I00
sS'y'
I0
s(dp20
g17
S'line'
p21
sS'x'
I160
sg19
I00
sS'y'
I1580
s(dp22
g17
S'line'
p23
sS'x'
I358
sg19
I00
sS'y'
I1580
s(dp24
g17
S'line'
p25
sS'x'
I892
sg19
I00
sS'y'
I273
s(dp26
g17
S'line'
p27
sS'x'
I1419
sg19
I00
sS'y'
I1580
s(dp28
g17
S'line'
p29
sS'x'
I1617
sg19
I00
sS'y'
I1580
s(dp30
g17
S'line'
p31
sS'x'
I1617
sg19
I00
sS'y'
I0
s(dp32
g17
S'line'
p33
sS'x'
I1516
sg19
I00
sS'y'
I0
s(dp34
g17
S'line'
p35
sS'x'
I1516
sg19
I00
sS'y'
I1567
s(dp36
g17
S'line'
p37
sS'x'
I915
sg19
I00
sS'y'
I172
s(dp38
g17
S'line'
p39
sS'x'
I844
sg19
I00
sS'y'
I172
s(dp40
g17
S'line'
p41
sS'x'
I263
sg19
I00
sS'y'
I1567
s(dp42
g17
S'line'
p43
sS'x'
I263
sg19
I00
sS'y'
I0
stp44
stp45
sS'components'
p46
(tsg4
(tsssg11
(tsS'vhints'
p47
(dp48
sS'com.fontlab.hintData'
p49
(dp50
sg12
I1739
sg13
(tsg46
(tsS'position'
p51
I1497
sg8
S'M'
s."
LayerCount: 2
Fore
SplineSet
296 1620 m 1
 893 290 l 1
 1475 1620 l 1
 1571 1620 l 1
 931 149 l 1
 860 149 l 1
 199 1620 l 5
 296 1620 l 1
EndSplineSet
Refer: 299 -1 N 1 0 0 1 19 0 2
Refer: 299 -1 N 1 0 0 1 1375 0 2
EndChar

StartChar: N
Encoding: 78 78 61
Width: 1530
VWidth: 0
Flags: HW
PickledData: "(dp1
S'hhints'
p2
(dp3
sS'anchors'
p4
(tsS'com.typemytype.robofont.layerData'
p5
(dp6
S'b'
(dp7
S'name'
p8
S'N'
sS'lib'
p9
(dp10
sS'unicodes'
p11
(tsS'width'
p12
I1531
sS'contours'
p13
(tsS'components'
p14
(tsg4
(tsssg11
(tsS'vhints'
p15
(dp16
sS'com.fontlab.hintData'
p17
(dp18
sg12
I1492
sg13
(tsg14
(tsS'position'
p19
I1263
sg8
S'N'
s."
LayerCount: 2
Fore
SplineSet
160 0 m 1
 160 1620 l 1
 252 1620 l 1
 252 0 l 1
 160 0 l 1
1279 0 m 1
 1279 1620 l 1
 1371 1620 l 1
 1371 0 l 1
 1279 0 l 1
1331 0 m 1
 1226 0 l 1
 198 1620 l 1
 298 1620 l 1
 1331 0 l 1
EndSplineSet
EndChar

StartChar: O
Encoding: 79 79 66
Width: 1453
VWidth: 0
Flags: W
PickledData: "(dp1
S'hhints'
p2
(dp3
sS'anchors'
p4
(tsS'com.typemytype.robofont.layerData'
p5
(dp6
S'b'
(dp7
S'name'
p8
S'O'
sS'lib'
p9
(dp10
sS'unicodes'
p11
(tsS'width'
p12
I1519
sS'contours'
p13
(tsS'components'
p14
(tsg4
(tsssg11
(tsS'vhints'
p15
(dp16
sS'com.fontlab.hintData'
p17
(dp18
sg8
S'O'
sg12
I1488
sg13
(tsg14
(tsS'position'
p19
I1269
sS'com.typemytype.robofont.guides'
p20
(ts."
HStem: -18 84<522.464 931.104> 1554 84<522.464 931.104>
VStem: 104 102<458.978 1161.91> 1247 102<458.978 1161.91>
LayerCount: 2
Fore
SplineSet
727 -18 m 4
 244 -18 104 414 104 810 c 4
 104 1208 244 1638 727 1638 c 4
 1209 1638 1349 1208 1349 810 c 4
 1349 414 1209 -18 727 -18 c 4
727 66 m 4
 1154 66 1247 475 1247 810 c 4
 1247 1147 1154 1554 727 1554 c 4
 299 1554 206 1147 206 810 c 4
 206 475 299 66 727 66 c 4
EndSplineSet
EndChar

StartChar: OE
Encoding: 338 338 67
Width: 2219
VWidth: 0
Flags: HW
PickledData: "(dp1
S'position'
p2
I1265
sS'vhints'
p3
(dp4
sS'hhints'
p5
(dp6
sS'com.fontlab.hintData'
p7
(dp8
sS'width'
p9
I100
s."
LayerCount: 2
Fore
SplineSet
764 43 m 0
 1202 43 1265 474 1265 781 c 0
 1265 1107 1204 1522 750 1522 c 0
 292 1522 233 1105 233 781 c 0
 233 444 304 43 764 43 c 0
768 -47 m 0
 239 -47 123 353 123 781 c 0
 123 1167 236 1614 726 1614 c 0
 997 1614 1155 1528 1265 1370 c 1
 1265 1580 l 1
 2197 1580 l 1
 2197 1504 l 1
 1365 1504 l 1
 1365 871 l 1
 2084 871 l 1
 2084 815 l 1
 1365 815 l 1
 1365 76 l 1
 2212 76 l 1
 2212 0 l 1
 1265 0 l 1
 1265 167 l 1
 1161 26 1020 -47 768 -47 c 0
EndSplineSet
EndChar

StartChar: P
Encoding: 80 80 76
Width: 1290
VWidth: 0
Flags: HW
PickledData: "(dp1
S'hhints'
p2
(dp3
sS'anchors'
p4
(tsS'com.typemytype.robofont.layerData'
p5
(dp6
S'b'
(dp7
S'name'
p8
S'P'
sS'lib'
p9
(dp10
sS'unicodes'
p11
(tsS'width'
p12
I1291
sS'contours'
p13
(tsS'components'
p14
(tsg4
(tsssg11
(tsS'vhints'
p15
(dp16
sS'com.fontlab.hintData'
p17
(dp18
sg12
I1304
sg13
(tsg14
(tsS'position'
p19
I1135
sg8
S'R'
s."
LayerCount: 2
Fore
SplineSet
210 1620 m 5
 678 1620 l 6
 912 1620 1225 1599 1225 1217 c 4
 1225 852 974 790 666 790 c 6
 215 790 l 5
 215 876 l 5
 666 876 l 6
 948 876 1122 912 1122 1218 c 4
 1122 1499 931 1536 680 1536 c 6
 210 1536 l 5
 210 1620 l 5
EndSplineSet
Refer: 299 -1 N 1 0 0 1 19 0 2
EndChar

StartChar: Q
Encoding: 81 81 77
Width: 1487
VWidth: 0
Flags: HW
PickledData: "(dp1
S'hhints'
p2
(dp3
sS'anchors'
p4
(tsS'com.typemytype.robofont.layerData'
p5
(dp6
S'b'
(dp7
S'name'
p8
S'Q'
sS'lib'
p9
(dp10
sS'unicodes'
p11
(tsS'width'
p12
I1488
sS'contours'
p13
(tsS'components'
p14
(tsg4
(tsssg11
(tsS'vhints'
p15
(dp16
sS'com.fontlab.hintData'
p17
(dp18
sg12
I1508
sg13
(tsg14
(tsS'position'
p19
I1285
sg8
S'Q'
s."
LayerCount: 2
Fore
SplineSet
1207 -426 m 1
 689 -5 l 1
 802 5 l 1
 1258 -362 l 1
 1207 -426 l 1
EndSplineSet
EndChar

StartChar: R
Encoding: 82 82 78
Width: 1367
VWidth: 0
Flags: HW
PickledData: "(dp1
S'hhints'
p2
(dp3
sS'anchors'
p4
(tsS'com.typemytype.robofont.layerData'
p5
(dp6
S'b'
(dp7
S'name'
p8
S'R'
sS'lib'
p9
(dp10
sS'unicodes'
p11
(tsS'width'
p12
I1368
sS'contours'
p13
((dp14
S'points'
p15
((dp16
S'segmentType'
p17
S'curve'
p18
sS'x'
I229
sS'smooth'
p19
I00
sS'y'
I1620
s(dp20
g17
S'line'
p21
sS'x'
I705
sg19
I01
sS'y'
I1620
s(dp22
S'y'
I1620
sS'x'
I939
sg19
I00
s(dp23
S'y'
I1595
sS'x'
I1244
sg19
I00
s(dp24
g17
S'curve'
p25
sS'x'
I1244
sg19
I01
sS'y'
I1213
s(dp26
S'y'
I848
sS'x'
I1244
sg19
I00
s(dp27
S'y'
I790
sS'x'
I1001
sg19
I00
s(dp28
g17
S'curve'
p29
sS'x'
I693
sg19
I01
sS'y'
I790
s(dp30
g17
S'line'
p31
sS'x'
I234
sg19
I00
sS'y'
I790
s(dp32
S'y'
I790
sS'x'
I234
sg19
I00
s(dp33
S'y'
I876
sS'x'
I234
sg19
I00
s(dp34
g17
S'curve'
p35
sS'x'
I234
sg19
I00
sS'y'
I876
s(dp36
g17
S'line'
p37
sS'x'
I693
sg19
I01
sS'y'
I876
s(dp38
S'y'
I876
sS'x'
I975
sg19
I00
s(dp39
S'y'
I908
sS'x'
I1141
sg19
I00
s(dp40
g17
S'curve'
p41
sS'x'
I1141
sg19
I01
sS'y'
I1214
s(dp42
S'y'
I1495
sS'x'
I1141
sg19
I00
s(dp43
S'y'
I1536
sS'x'
I958
sg19
I00
s(dp44
g17
S'curve'
p45
sS'x'
I707
sg19
I01
sS'y'
I1536
s(dp46
g17
S'line'
p47
sS'x'
I229
sg19
I00
sS'y'
I1536
s(dp48
S'y'
I1536
sS'x'
I229
sg19
I00
s(dp49
S'y'
I1620
sS'x'
I229
sg19
I00
stp50
stp51
sS'components'
p52
(tsg4
(tsssg11
(tsS'vhints'
p53
(dp54
sS'com.fontlab.hintData'
p55
(dp56
sg12
I1304
sg13
(tsg52
(tsS'position'
p57
I1135
sg8
S'R'
s."
LayerCount: 2
Fore
SplineSet
229 1620 m 1
 705 1620 l 2
 939 1620 1244 1583 1244 1201 c 0
 1244 836 1001 764 693 764 c 2
 234 764 l 1
 234 847 l 1
 693 847 l 2
 975 847 1141 896 1141 1202 c 0
 1141 1483 958 1536 707 1536 c 2
 229 1536 l 1
 229 1620 l 1
1192 471 m 2
 1272 0 l 1
 1181 0 l 1
 1098 474 l 2
 1064 670 1033 765 651 765 c 1
 651 821 l 1
 1121 820 1148 727 1192 471 c 2
EndSplineSet
Refer: 299 -1 N 1 0 0 1 19 0 2
EndChar

StartChar: S
Encoding: 83 83 82
Width: 1189
VWidth: 0
Flags: HW
PickledData: "(dp1
S'hhints'
p2
(dp3
sS'anchors'
p4
(tsS'unicodes'
p5
(tsS'vhints'
p6
(dp7
sS'com.fontlab.hintData'
p8
(dp9
sS'name'
p10
S'S'
sS'width'
p11
I1190
sS'contours'
p12
(tsS'components'
p13
(tsS'position'
p14
I1015
sS'com.typemytype.robofont.guides'
p15
(ts."
LayerCount: 2
Fore
SplineSet
553 -16 m 0
 445 -16 186 65 94 125 c 1
 131 195 l 1
 188 159 383 69 595 69 c 0
 817 69 1015 126 1015 416 c 0
 1015 649 834 733 658 785 c 1
 606 804 588 804 571 804 c 2
 570 804 l 2
 552 804 533 804 476 824 c 1
 304 867 99 934 99 1203 c 0
 99 1454 315 1597 555 1597 c 0
 705 1597 845 1578 1001 1465 c 1
 959 1403 l 1
 878 1468 738 1520 615 1520 c 0
 416 1520 187 1464 187 1209 c 0
 187 1025 350 970 513 921 c 1
 608 887 574 916 670 882 c 1
 886 821 1105 750 1105 406 c 0
 1105 55 852 -16 553 -16 c 0
EndSplineSet
EndChar

StartChar: T
Encoding: 84 84 87
Width: 1124
VWidth: 0
Flags: HW
PickledData: "(dp1
S'hhints'
p2
(dp3
sS'name'
p4
S'T'
sS'unicodes'
p5
(tsS'vhints'
p6
(dp7
sS'com.fontlab.hintData'
p8
(dp9
sS'width'
p10
I1125
sS'contours'
p11
(tsS'components'
p12
(tsS'position'
p13
I515
sS'anchors'
p14
(ts."
LayerCount: 2
Fore
SplineSet
28 1544 m 1
 28 1620 l 1
 1097 1620 l 1
 1097 1544 l 1
 28 1544 l 1
EndSplineSet
Refer: 299 -1 S 1 0 0 1 399 0 2
EndChar

StartChar: U
Encoding: 85 85 89
Width: 1420
VWidth: 0
Flags: HW
PickledData: "(dp1
S'hhints'
p2
(dp3
sS'name'
p4
S'U'
sS'unicodes'
p5
(tsS'vhints'
p6
(dp7
sS'com.fontlab.hintData'
p8
(dp9
sS'width'
p10
I1421
sS'contours'
p11
(tsS'components'
p12
(tsS'position'
p13
I1197
sS'anchors'
p14
(ts."
LayerCount: 2
Fore
SplineSet
709 -48 m 0
 212 -48 121 275 121 689 c 2
 121 1580 l 1
 218 1580 l 1
 218 685 l 2
 218 342 255 26 714 26 c 0
 1175 26 1197 345 1197 685 c 2
 1197 1580 l 1
 1301 1580 l 1
 1301 689 l 2
 1301 277 1211 -48 709 -48 c 0
EndSplineSet
EndChar

StartChar: V
Encoding: 86 86 100
Width: 1238
VWidth: 0
Flags: HW
PickledData: "(dp1
S'hhints'
p2
(dp3
sS'name'
p4
S'V'
sS'unicodes'
p5
(tsS'com.fontlab.hintData'
p6
(dp7
sS'width'
p8
I1239
sS'contours'
p9
(tsS'components'
p10
(tsS'position'
p11
I1560
sS'anchors'
p12
(ts."
LayerCount: 2
Fore
SplineSet
623 0 m 1
 619 -12 l 1
 615 0 l 1
 623 0 l 1
623 0 m 1
 1102 1580 l 1
 1206 1580 l 1
 711 0 l 1
 623 0 l 1
615 0 m 1
 532 0 l 1
 38 1580 l 1
 147 1580 l 1
 615 0 l 1
EndSplineSet
EndChar

StartChar: W
Encoding: 87 87 101
Width: 1957
VWidth: 0
Flags: HW
PickledData: "(dp1
S'hhints'
p2
(dp3
sS'name'
p4
S'W'
sS'unicodes'
p5
(tsS'com.fontlab.hintData'
p6
(dp7
sS'width'
p8
I1958
sS'contours'
p9
(tsS'components'
p10
(tsS'position'
p11
I1560
sS'anchors'
p12
(ts."
LayerCount: 2
Fore
SplineSet
428 0 m 1
 4 1580 l 1
 102 1580 l 1
 525 50 l 1
 894 1448 l 1
 1083 1448 l 1
 1431 50 l 1
 1857 1580 l 1
 1954 1580 l 1
 1527 0 l 1
 1335 0 l 1
 989 1391 l 1
 621 0 l 1
 428 0 l 1
EndSplineSet
EndChar

StartChar: X
Encoding: 88 88 102
Width: 1305
VWidth: 0
Flags: HW
PickledData: "(dp1
S'hhints'
p2
(dp3
sS'name'
p4
S'X'
sS'unicodes'
p5
(tsS'com.fontlab.hintData'
p6
(dp7
sS'width'
p8
I1306
sS'contours'
p9
(tsS'components'
p10
(tsS'position'
p11
I1560
sS'anchors'
p12
(ts."
LayerCount: 2
Fore
SplineSet
92 0 m 1
 596 802 l 1
 95 1580 l 1
 191 1580 l 1
 653 883 l 1
 1116 1580 l 1
 1212 1580 l 1
 710 802 l 1
 1215 0 l 1
 1089 0 l 1
 653 734 l 1
 454 402 415 333 217 0 c 1
 92 0 l 1
EndSplineSet
EndChar

StartChar: Y
Encoding: 89 89 103
Width: 1259
VWidth: 0
Flags: HW
PickledData: "(dp1
S'hhints'
p2
(dp3
sS'name'
p4
S'Y'
sS'unicodes'
p5
(tsS'vhints'
p6
(dp7
sS'com.fontlab.hintData'
p8
(dp9
sS'width'
p10
I1260
sS'contours'
p11
(tsS'components'
p12
(tsS'position'
p13
I578
sS'anchors'
p14
(ts."
LayerCount: 2
Fore
SplineSet
578 0 m 1
 578 578 l 1
 61 1580 l 1
 166 1580 l 1
 374 1153 416 1088 631 664 c 1
 1107 1580 l 1
 1200 1580 l 1
 683 578 l 1
 683 0 l 1
 578 0 l 1
EndSplineSet
EndChar

StartChar: Z
Encoding: 90 90 106
Width: 1175
VWidth: 0
Flags: HW
PickledData: "(dp1
S'hhints'
p2
(dp3
sS'name'
p4
S'Z'
sS'unicodes'
p5
(tsS'com.fontlab.hintData'
p6
(dp7
sS'width'
p8
I1176
sS'contours'
p9
(tsS'components'
p10
(tsS'position'
p11
I1520
sS'anchors'
p12
(ts."
LayerCount: 2
Fore
SplineSet
139 0 m 1
 139 142 l 1
 1009 1520 l 1
 139 1520 l 1
 139 1580 l 1
 1095 1580 l 1
 1095 1454 l 1
 228 76 l 1
 1097 76 l 1
 1097 0 l 1
 139 0 l 1
EndSplineSet
EndChar

StartChar: a
Encoding: 97 97 110
Width: 1170
VWidth: 0
Flags: HW
PickledData: "(dp1
S'hhints'
p2
(dp3
sS'anchors'
p4
(tsS'com.typemytype.robofont.layerData'
p5
(dp6
S'b'
(dp7
S'name'
p8
S'a'
sS'lib'
p9
(dp10
sS'unicodes'
p11
(tsS'width'
p12
I1171
sS'contours'
p13
((dp14
S'points'
p15
((dp16
S'segmentType'
p17
S'line'
p18
sS'x'
I1033
sS'smooth'
p19
I00
sS'y'
I0
s(dp20
g17
S'line'
p21
sS'x'
I1033
sg19
I01
sS'y'
I692
s(dp22
S'y'
I1058
sS'x'
I1033
sg19
I00
s(dp23
S'y'
I1187
sS'x'
I938
sg19
I00
s(dp24
g17
S'curve'
p25
sS'x'
I599
sg19
I01
sS'y'
I1187
s(dp26
S'y'
I1187
sS'x'
I405
sg19
I00
s(dp27
S'y'
I1167
sS'x'
I299
sg19
I00
s(dp28
g17
S'curve'
p29
sS'x'
I171
sg19
I00
sS'y'
I1102
s(dp30
g17
S'line'
p31
sS'x'
I206
sg19
I00
sS'y'
I1023
s(dp32
S'y'
I1090
sS'x'
I335
sg19
I00
s(dp33
S'y'
I1105
sS'x'
I416
sg19
I00
s(dp34
g17
S'curve'
p35
sS'x'
I608
sg19
I01
sS'y'
I1105
s(dp36
S'y'
I1105
sS'x'
I891
sg19
I00
s(dp37
S'y'
I979
sS'x'
I935
sg19
I00
s(dp38
g17
S'curve'
p39
sS'x'
I935
sg19
I01
sS'y'
I708
s(dp40
g17
S'line'
p41
sS'x'
I935
sg19
I00
sS'y'
I646
s(dp42
S'y'
I680
sS'x'
I842
sg19
I00
s(dp43
S'y'
I698
sS'x'
I683
sg19
I00
s(dp44
g17
S'curve'
p45
sS'x'
I577
sg19
I01
sS'y'
I698
s(dp46
S'y'
I698
sS'x'
I264
sg19
I00
s(dp47
S'y'
I567
sS'x'
I122
sg19
I00
s(dp48
g17
S'curve'
p49
sS'x'
I122
sg19
I01
sS'y'
I328
s(dp50
S'y'
I81
sS'x'
I122
sg19
I00
s(dp51
S'y'
I-16
sS'x'
I303
sg19
I00
s(dp52
g17
S'curve'
p53
sS'x'
I512
sg19
I01
sS'y'
I-16
s(dp54
S'y'
I-16
sS'x'
I693
sg19
I00
s(dp55
S'y'
I33
sS'x'
I827
sg19
I00
s(dp56
g17
S'curve'
p57
sS'x'
I946
sg19
I00
sS'y'
I193
s(dp58
g17
S'line'
p59
sS'x'
I963
sg19
I00
sS'y'
I0
stp60
s(dp61
g15
((dp62
g17
S'curve'
p63
sS'x'
I521
sg19
I01
sS'y'
I65
s(dp64
S'y'
I65
sS'x'
I383
sg19
I00
s(dp65
S'y'
I121
sS'x'
I220
sg19
I00
s(dp66
g17
S'curve'
p67
sS'x'
I220
sg19
I01
sS'y'
I337
s(dp68
S'y'
I561
sS'x'
I220
sg19
I00
s(dp69
S'y'
I617
sS'x'
I392
sg19
I00
s(dp70
g17
S'curve'
p71
sS'x'
I583
sg19
I01
sS'y'
I617
s(dp72
S'y'
I617
sS'x'
I701
sg19
I00
s(dp73
S'y'
I610
sS'x'
I820
sg19
I00
s(dp74
g17
S'curve'
p75
sS'x'
I935
sg19
I00
sS'y'
I578
s(dp76
g17
S'line'
p77
sS'x'
I935
sg19
I00
sS'y'
I255
s(dp78
S'y'
I127
sS'x'
I820
sg19
I00
s(dp79
S'y'
I65
sS'x'
I702
sg19
I00
stp80
stp81
sS'components'
p82
(tsg4
(tsssg11
(tsS'vhints'
p83
(dp84
sS'com.fontlab.hintData'
p85
(dp86
sg12
I1172
sg13
(tsg82
(tsS'position'
p87
I966
sg8
S'a'
s."
LayerCount: 2
Fore
SplineSet
524 62 m 0
 386 62 220 121 220 337 c 0
 220 555 370 623 584 623 c 0
 702 623 820 610 935 578 c 1
 935 253 l 1
 820 125 705 62 524 62 c 0
1033 0 m 1
 1033 681 l 2
 1033 1047 938 1188 599 1188 c 0
 342 1188 211 1117 171 1097 c 1
 203 1023 l 1
 240 1041 372 1108 608 1108 c 0
 895 1108 935 962 935 691 c 2
 935 646 l 1
 842 680 683 698 577 698 c 0
 264 698 122 567 122 328 c 0
 122 81 304 -16 513 -16 c 0
 694 -16 830 46 944 182 c 1
 963 0 l 1
 1033 0 l 1
EndSplineSet
EndChar

StartChar: acute
Encoding: 180 180 114
Width: 72
VWidth: 0
Flags: HW
PickledData: "(dp1
S'position'
p2
I-144
sS'vhints'
p3
(dp4
sS'hhints'
p5
(dp6
sS'com.fontlab.hintData'
p7
(dp8
sS'width'
p9
I447
s."
LayerCount: 2
Fore
SplineSet
-141 -192 m 1
 -144 -192 l 1
 223 257 l 1
 303 180 l 1
 -141 -192 l 1
EndSplineSet
EndChar

StartChar: ae
Encoding: 230 230 116
Width: 1781
VWidth: 0
Flags: HW
PickledData: "(dp1
S'hhints'
p2
(dp3
sS'name'
p4
S'ae'
p5
sS'unicodes'
p6
(tsS'vhints'
p7
(dp8
sS'com.fontlab.hintData'
p9
(dp10
sS'width'
p11
I1782
sS'contours'
p12
(tsS'components'
p13
(tsS'position'
p14
I1630
sS'anchors'
p15
(ts."
LayerCount: 2
Fore
SplineSet
918 685 m 1
 1630 685 l 1
 1630 730 l 1
 1630 738 l 2
 1630 935 1552 1114 1312 1114 c 0
 1039 1114 918 938 918 685 c 1
435 66 m 0
 577 66 707 161 802 250 c 1
 802 585 l 1
 704 602 604 613 500 613 c 0
 328 613 137 584 137 340 c 0
 137 131 228 66 435 66 c 0
408 -26 m 0
 178 -26 20 83 20 327 c 0
 20 570 203 707 417 707 c 0
 517 707 702 684 802 637 c 1
 802 696 l 1
 802 723 l 2
 802 974 784 1106 500 1106 c 2
 497 1106 l 2
 406 1106 233 1059 157 978 c 1
 80 1048 l 1
 166 1133 379 1192 478 1192 c 0
 654 1192 830 1163 882 934 c 1
 958 1111 1137 1192 1307 1192 c 0
 1619 1192 1736 949 1736 681 c 0
 1736 626 1731 657 1724 602 c 1
 918 602 l 1
 918 572 l 2
 918 297 976 76 1308 76 c 0
 1425 76 1537 125 1624 206 c 1
 1684 109 l 1
 1608 38 1422 -27 1324 -27 c 0
 1152 -27 966 43 866 211 c 1
 757 85 588 -26 408 -26 c 0
EndSplineSet
EndChar

StartChar: ampersand
Encoding: 38 38 119
Width: 1403
VWidth: 0
Flags: HW
PickledData: "(dp1
S'position'
p2
I1068
sS'vhints'
p3
(dp4
sS'hhints'
p5
(dp6
sS'com.fontlab.hintData'
p7
(dp8
sS'width'
p9
I98
s."
LayerCount: 2
Fore
SplineSet
528 32 m 0
 544 32 563 31 587 31 c 0
 705 31 909 46 1021 221 c 1
 357 736 l 1
 183 702 119 575 119 396 c 0
 119 81 297 32 528 32 c 0
429 808 m 1
 571 849 753 870 753 1057 c 0
 753 1215 610 1269 482 1269 c 0
 350 1269 225 1231 225 1056 c 0
 225 963 345 849 429 808 c 1
1274 18 m 1
 1078 182 l 1
 999 -5 633 -38 528 -38 c 0
 297 -38 7 64 7 375 c 0
 7 576 97 732 326 782 c 1
 223 839 130 947 130 1030 c 0
 130 1269 307 1356 487 1356 c 0
 663 1356 858 1277 858 1030 c 0
 858 801 625 803 459 757 c 1
 1047 306 l 1
 1061 514 1068 532 1068 740 c 1
 1166 743 l 1
 1166 640 l 2
 1166 527 1162 437 1123 234 c 1
 1327 76 l 1
 1274 18 l 1
EndSplineSet
EndChar

StartChar: approxequal
Encoding: 8776 8776 121
Width: 837
VWidth: 0
Flags: HW
PickledData: "(dp1
S'position'
p2
I635
sS'vhints'
p3
(dp4
sS'hhints'
p5
(dp6
sS'com.fontlab.hintData'
p7
(dp8
sS'width'
p9
I122
s."
LayerCount: 2
Fore
SplineSet
586 -83 m 0
 415 -83 345 19 250 19 c 0
 196 19 191 -42 191 -74 c 2
 191 -90 l 1
 63 -90 l 1
 63 2 89 128 249 128 c 1
 410 123 452 12 575 12 c 0
 633 12 635 112 635 127 c 1
 757 127 l 1
 757 49 719 -83 586 -83 c 0
EndSplineSet
EndChar

StartChar: asciicircum
Encoding: 94 94 123
Width: 687
VWidth: 0
Flags: HW
PickledData: "(dp1
S'position'
p2
I28
sS'vhints'
p3
(dp4
sS'hhints'
p5
(dp6
sS'com.fontlab.hintData'
p7
(dp8
sS'width'
p9
I632
s."
LayerCount: 2
Fore
SplineSet
28 482 m 1
 338 919 l 1
 349 919 l 1
 660 482 l 1
 610 362 l 1
 344 735 l 1
 79 362 l 1
 28 482 l 1
EndSplineSet
EndChar

StartChar: asciitilde
Encoding: 126 126 124
Width: 845
VWidth: 0
Flags: HW
PickledData: "(dp1
S'position'
p2
I637
sS'vhints'
p3
(dp4
sS'hhints'
p5
(dp6
sS'com.fontlab.hintData'
p7
(dp8
sS'width'
p9
I126
s."
LayerCount: 2
Fore
SplineSet
592 433 m 0
 451 433 324 541 259 541 c 0
 203 541 198 479 198 444 c 2
 198 425 l 1
 69 425 l 1
 69 517 96 643 255 643 c 2
 258 643 l 2
 390 643 469 523 576 523 c 0
 635 523 637 621 637 643 c 1
 763 643 l 1
 763 564 726 433 592 433 c 0
EndSplineSet
EndChar

StartChar: asterisk
Encoding: 42 42 125
Width: 1019
VWidth: 0
Flags: HW
PickledData: "(dp1
S'position'
p2
I1148
sS'hhints'
p3
(dp4
sS'com.typemytype.robofont.layerData'
p5
(dp6
S'b'
(dp7
S'name'
p8
S'asterisk'
p9
sS'lib'
p10
(dp11
sS'unicodes'
p12
(tsS'width'
p13
I1020
sS'contours'
p14
(tsS'components'
p15
(tsS'anchors'
p16
(tsssS'com.fontlab.hintData'
p17
(dp18
sg13
I56
s."
LayerCount: 2
Fore
SplineSet
499 1214 m 1
 331 1523 l 1
 274 1490 l 1
 456 1201 l 1
 134 1208 l 1
 134 1147 l 1
 457 1153 l 1
 270 865 l 1
 331 831 l 1
 499 1128 l 1
 667 831 l 1
 728 865 l 1
 541 1153 l 1
 864 1147 l 1
 864 1208 l 1
 542 1201 l 1
 724 1490 l 1
 667 1523 l 1
 499 1214 l 1
EndSplineSet
EndChar

StartChar: at
Encoding: 64 64 126
Width: 1826
VWidth: 0
Flags: HW
PickledData: "(dp1
S'hhints'
p2
(dp3
sS'name'
p4
S'at'
p5
sS'unicodes'
p6
(tsS'vhints'
p7
(dp8
sS'com.fontlab.hintData'
p9
(dp10
sS'width'
p11
I1827
sS'contours'
p12
(tsS'components'
p13
(tsS'position'
p14
I1599
sS'anchors'
p15
(ts."
LayerCount: 2
Fore
SplineSet
768 463 m 0
 771 463 773 463 776 463 c 0
 1198 463 1204 834 1246 1221 c 1
 1166 1236 1139 1237 1083 1237 c 0
 1079 1237 1075 1237 1071 1237 c 0
 773 1237 544 975 544 685 c 0
 544 548 603 463 768 463 c 0
936 1605 m 0
 1354 1605 1695 1421 1695 934 c 0
 1695 597 1473 359 1345 359 c 0
 1274 359 1255 402 1255 495 c 0
 1255 555 1256 706 1256 797 c 2
 1256 851 l 1
 1191 560 974 366 740 366 c 0
 508 366 431 488 431 648 c 0
 431 1056 756 1305 1066 1306 c 0
 1299 1306 1363 1266 1363 1220 c 0
 1363 1215 1362 1209 1361 1204 c 2
 1342 541 l 1
 1337 526 1335 512 1335 500 c 0
 1335 464 1355 446 1377 446 c 0
 1465 446 1599 685 1599 956 c 0
 1599 1381 1312 1519 957 1519 c 0
 493 1519 212 1234 212 766 c 0
 212 336 540 120 899 120 c 0
 1046 120 1244 169 1344 212 c 1
 1381 112 l 1
 1243 73 1013 31 901 31 c 0
 510 31 111 265 111 758 c 0
 111 1300 495 1605 936 1605 c 0
EndSplineSet
EndChar

StartChar: b
Encoding: 98 98 128
Width: 1212
VWidth: 0
Flags: HW
PickledData: "(dp1
S'hhints'
p2
(dp3
sS'anchors'
p4
(tsS'com.typemytype.robofont.layerData'
p5
(dp6
S'b'
(dp7
S'name'
p8
S'b'
sS'lib'
p9
(dp10
sS'unicodes'
p11
(tsS'width'
p12
I1213
sS'contours'
p13
((dp14
S'points'
p15
((dp16
S'y'
F1184
sS'x'
F948
sS'smooth'
p17
I00
s(dp18
S'y'
F895
sS'x'
F1095
sg17
I00
s(dp19
S'segmentType'
p20
S'curve'
p21
sS'x'
F1095
sg17
I01
sS'y'
F587
s(dp22
S'y'
F315
sS'x'
F1095
sg17
I00
s(dp23
S'y'
F-14
sS'x'
F959
sg17
I00
s(dp24
g20
S'curve'
p25
sS'x'
F599
sg17
I01
sS'y'
F-14
s(dp26
S'y'
F-14
sS'x'
F415
sg17
I00
s(dp27
S'y'
F58
sS'x'
F310
sg17
I00
s(dp28
g20
S'curve'
p29
sS'x'
F240
sg17
I00
sS'y'
F152
s(dp30
g20
S'line'
p31
sS'x'
F231
sg17
I00
sS'y'
F0
s(dp32
g20
S'line'
p33
sS'x'
F144
sg17
I00
sS'y'
F0
s(dp34
g20
S'line'
p35
sS'x'
I144
sg17
I00
sS'y'
I1620
s(dp36
S'y'
I1620
sS'x'
I144
sg17
I00
s(dp37
S'y'
I1636
sS'x'
I239
sg17
I00
s(dp38
g20
S'curve'
p39
sS'x'
I239
sg17
I00
sS'y'
I1636
s(dp40
g20
S'line'
p41
sS'x'
I239
sg17
I00
sS'y'
I997
s(dp42
S'y'
I1096
sS'x'
I308
sg17
I00
s(dp43
S'y'
F1184
sS'x'
F430
sg17
I00
s(dp44
g20
S'curve'
p45
sS'x'
F605
sg17
I01
sS'y'
F1184
stp46
s(dp47
g15
((dp48
S'y'
I1101
sS'x'
I431
sg17
I00
s(dp49
S'y'
I1031
sS'x'
I333
sg17
I00
s(dp50
g20
S'curve'
p51
sS'x'
I240
sg17
I00
sS'y'
I906
s(dp52
g20
S'line'
p53
sS'x'
I240
sg17
I00
sS'y'
I254
s(dp54
S'y'
I151
sS'x'
I301
sg17
I00
s(dp55
S'y'
I68
sS'x'
I419
sg17
I00
s(dp56
g20
S'curve'
p57
sS'x'
I592
sg17
I01
sS'y'
I68
s(dp58
S'y'
I68
sS'x'
I911
sg17
I00
s(dp59
S'y'
I374
sS'x'
I998
sg17
I00
s(dp60
g20
S'curve'
p61
sS'x'
I998
sg17
I01
sS'y'
I579
s(dp62
S'y'
I796
sS'x'
I998
sg17
I00
s(dp63
S'y'
I1101
sS'x'
I928
sg17
I00
s(dp64
g20
S'curve'
p65
sS'x'
I607
sg17
I01
sS'y'
I1101
stp66
stp67
sS'components'
p68
(tsg4
(tsssg11
(tsS'vhints'
p69
(dp70
sS'com.fontlab.hintData'
p71
(dp72
sg12
I1225
sg13
(tsg68
(tsS'position'
p73
I1009
sg8
S'b'
s."
LayerCount: 2
Fore
SplineSet
240 906 m 1
 240 254 l 1
 301 151 419 68 592 68 c 0
 911 68 998 374 998 579 c 0
 998 796 928 1101 607 1101 c 0
 431 1101 333 1031 240 906 c 1
1095 587 m 0
 1095 315 959 -14 599 -14 c 0
 415 -14 310 58 240 152 c 1
 231 0 l 1
 144 0 l 1
 144 1638 l 1
 239 1660 l 1
 239 997 l 1
 308 1096 430 1184 605 1184 c 0
 948 1184 1095 895 1095 587 c 0
EndSplineSet
EndChar

StartChar: backslash
Encoding: 92 92 129
Width: 463
VWidth: 0
Flags: HW
LayerCount: 2
Fore
SplineSet
508 -185 m 1
 -140 1733 l 1
 -69 1755 l 1
 582 -156 l 1
 508 -185 l 1
EndSplineSet
EndChar

StartChar: bar
Encoding: 124 124 130
Width: 233
VWidth: 0
Flags: HW
PickledData: "(dp1
S'position'
p2
I63
sS'vhints'
p3
(dp4
sS'com.fontlab.hintData'
p5
(dp6
sS'width'
p7
I108
s."
LayerCount: 2
Fore
SplineSet
63 -92 m 1
 63 1712 l 1
 171 1712 l 1
 171 -92 l 1
 63 -92 l 1
EndSplineSet
EndChar

StartChar: bracketleft
Encoding: 91 91 131
Width: 761
VWidth: 0
Flags: HW
PickledData: "(dp1
S'position'
p2
I63
sS'vhints'
p3
(dp4
sS'hhints'
p5
(dp6
sS'com.fontlab.hintData'
p7
(dp8
sS'width'
p9
I119
s."
LayerCount: 2
Fore
SplineSet
63 0 m 1
 63 1580 l 1
 681 1580 l 1
 681 1500 l 1
 182 1500 l 1
 182 79 l 1
 681 79 l 1
 681 0 l 1
 63 0 l 1
EndSplineSet
EndChar

StartChar: bracketright
Encoding: 93 93 132
Width: 761
VWidth: 0
Flags: HW
PickledData: "(dp1
S'position'
p2
I556
sS'vhints'
p3
(dp4
sS'hhints'
p5
(dp6
sS'com.fontlab.hintData'
p7
(dp8
sS'width'
p9
I117
s."
LayerCount: 2
Fore
SplineSet
55 0 m 1
 55 79 l 1
 556 79 l 1
 556 1500 l 1
 55 1500 l 1
 55 1580 l 1
 673 1580 l 1
 673 0 l 1
 55 0 l 1
EndSplineSet
EndChar

StartChar: breve
Encoding: 728 728 133
Width: 520
VWidth: 0
Flags: HW
PickledData: "(dp1
S'position'
p2
I400
sS'vhints'
p3
(dp4
sS'hhints'
p5
(dp6
sS'com.fontlab.hintData'
p7
(dp8
sS'width'
p9
I76
s."
LayerCount: 2
Fore
SplineSet
262 670 m 0
 121 670 33 768 33 876 c 2
 33 887 l 1
 109 887 l 1
 108 807 167 724 259 724 c 0
 350 724 401 804 400 887 c 1
 476 887 l 1
 476 876 l 2
 476 774 397 670 262 670 c 0
EndSplineSet
EndChar

StartChar: brokenbar
Encoding: 166 166 134
Width: 256
VWidth: 0
Flags: HW
PickledData: "(dp1
S'position'
p2
I67
sS'vhints'
p3
(dp4
sS'com.fontlab.hintData'
p5
(dp6
sS'width'
p7
I123
s."
LayerCount: 2
Fore
SplineSet
67 872 m 1
 67 1532 l 1
 190 1532 l 1
 190 872 l 1
 67 872 l 1
67 79 m 1
 67 739 l 1
 190 739 l 1
 190 79 l 1
 67 79 l 1
EndSplineSet
EndChar

StartChar: bullet
Encoding: 8226 8226 135
Width: 768
VWidth: 0
Flags: HW
PickledData: "(dp1
S'position'
p2
I58
sS'vhints'
p3
(dp4
sS'hhints'
p5
(dp6
sS'com.fontlab.hintData'
p7
(dp8
sS'width'
p9
I652
s."
LayerCount: 2
Fore
SplineSet
381 380 m 0
 198 380 58 519 58 698 c 0
 58 889 205 1019 385 1019 c 0
 565 1019 710 879 710 698 c 0
 710 499 556 380 381 380 c 0
EndSplineSet
EndChar

StartChar: c
Encoding: 99 99 136
Width: 1082
VWidth: 0
Flags: HW
PickledData: "(dp1
S'hhints'
p2
(dp3
sS'name'
p4
S'c'
sS'unicodes'
p5
(tsS'vhints'
p6
(dp7
sS'com.fontlab.hintData'
p8
(dp9
sS'width'
p10
I1083
sS'contours'
p11
(tsS'components'
p12
(tsS'position'
p13
I118
sS'anchors'
p14
(ts."
LayerCount: 2
Fore
SplineSet
118 585 m 0
 118 890 303 1184 631 1184 c 0
 759 1184 882 1146 996 1042 c 1
 949 979 l 1
 867 1056 776 1103 636 1103 c 0
 363 1103 216 844 216 585 c 0
 216 306 365 68 639 68 c 0
 764 68 849 101 950 187 c 1
 980 120 l 1
 873 28 756 -13 633 -13 c 0
 286 -13 118 281 118 585 c 0
EndSplineSet
EndChar

StartChar: caron
Encoding: 711 711 138
Width: 687
VWidth: 0
Flags: HW
PickledData: "(dp1
S'position'
p2
I28
sS'vhints'
p3
(dp4
sS'hhints'
p5
(dp6
sS'com.fontlab.hintData'
p7
(dp8
sS'width'
p9
I632
s."
LayerCount: 2
Fore
SplineSet
338 -32 m 1
 28 334 l 1
 63 453 l 1
 344 65 l 1
 625 453 l 1
 660 334 l 1
 349 -32 l 1
 338 -32 l 1
EndSplineSet
EndChar

StartChar: cedilla
Encoding: 184 184 143
Width: 417
VWidth: 0
Flags: HW
PickledData: "(dp1
S'position'
p2
I360
sS'vhints'
p3
(dp4
sS'hhints'
p5
(dp6
sS'com.fontlab.hintData'
p7
(dp8
sS'width'
p9
I101
s."
LayerCount: 2
Fore
SplineSet
229 -531 m 0
 174 -531 118 -514 61 -502 c 1
 61 -396 l 1
 107 -409 204 -436 221 -436 c 0
 330 -436 360 -402 360 -289 c 0
 360 -171 257 -157 177 -157 c 0
 151 -157 128 -158 111 -158 c 1
 106 117 l 1
 227 117 l 1
 233 -70 l 1
 430 -70 461 -143 461 -298 c 2
 461 -314 l 2
 461 -471 370 -531 229 -531 c 0
EndSplineSet
EndChar

StartChar: circumflex
Encoding: 710 710 144
Width: 687
VWidth: 0
Flags: HW
PickledData: "(dp1
S'position'
p2
I28
sS'vhints'
p3
(dp4
sS'hhints'
p5
(dp6
sS'com.fontlab.hintData'
p7
(dp8
sS'width'
p9
I632
s."
LayerCount: 2
Fore
SplineSet
28 88 m 1
 338 453 l 1
 349 453 l 1
 660 88 l 1
 625 -32 l 1
 344 357 l 1
 63 -32 l 1
 28 88 l 1
EndSplineSet
EndChar

StartChar: colon
Encoding: 58 58 145
Width: 403
VWidth: 0
Flags: HW
PickledData: "(dp1
S'hhints'
p2
(dp3
sS'name'
p4
S'colon'
p5
sS'unicodes'
p6
(tsS'vhints'
p7
(dp8
sS'com.fontlab.hintData'
p9
(dp10
sS'width'
p11
I404
sS'contours'
p12
(tsS'components'
p13
(tsS'position'
p14
I102
sS'anchors'
p15
(ts."
LayerCount: 2
Fore
SplineSet
102 501 m 1
 102 703 l 1
 303 703 l 1
 303 501 l 1
 102 501 l 1
102 0 m 1
 102 200 l 1
 303 200 l 1
 303 0 l 1
 102 0 l 1
EndSplineSet
EndChar

StartChar: comma
Encoding: 44 44 146
Width: 414
VWidth: 0
Flags: HW
PickledData: "(dp1
S'position'
p2
I205
sS'vhints'
p3
(dp4
sS'hhints'
p5
(dp6
sS'com.fontlab.hintData'
p7
(dp8
sS'width'
p9
I102
s."
LayerCount: 2
Fore
SplineSet
145 -224 m 1
 100 -141 l 1
 163 -121 206 -91 205 0 c 1
 99 0 l 1
 99 228 l 1
 307 228 l 1
 307 39 l 2
 307 -69 279 -186 145 -224 c 1
EndSplineSet
EndChar

StartChar: copyright
Encoding: 169 169 147
Width: 1675
VWidth: 0
Flags: HW
PickledData: "(dp1
S'position'
p2
I1575
sS'vhints'
p3
(dp4
sS'hhints'
p5
(dp6
sS'com.fontlab.hintData'
p7
(dp8
sS'width'
p9
I90
s."
LayerCount: 2
Fore
SplineSet
822 101 m 0
 1253 101 1575 409 1575 850 c 0
 1575 1319 1178 1612 832 1612 c 0
 386 1612 72 1241 72 854 c 0
 72 413 398 101 822 101 c 0
826 36 m 0
 352 36 -19 398 -19 854 c 0
 -19 1292 350 1678 830 1678 c 0
 1156 1678 1665 1368 1665 877 c 0
 1665 277 1220 36 826 36 c 0
869 371 m 0
 561 371 327 466 327 851 c 0
 327 1207 522 1341 878 1341 c 2
 883 1341 l 2
 973 1341 1052 1312 1151 1265 c 1
 1151 1184 l 1
 1061 1222 959 1250 847 1250 c 0
 523 1250 449 1130 449 856 c 0
 449 593 519 464 847 464 c 0
 952 464 1047 487 1147 528 c 1
 1147 446 l 1
 1065 404 974 371 869 371 c 0
EndSplineSet
EndChar

StartChar: currency
Encoding: 164 164 148
Width: 1063
VWidth: 0
Flags: HW
PickledData: "(dp1
S'position'
p2
I822
sS'vhints'
p3
(dp4
sS'hhints'
p5
(dp6
sS'com.fontlab.hintData'
p7
(dp8
sS'width'
p9
I118
s."
LayerCount: 2
Fore
SplineSet
511 690 m 0
 654 690 822 832 822 992 c 0
 822 1147 668 1275 533 1275 c 0
 390 1275 227 1141 227 976 c 0
 227 822 379 690 511 690 c 0
112 442 m 1
 -9 564 l 1
 174 747 l 1
 132 812 107 890 107 967 c 0
 107 1051 135 1135 181 1203 c 1
 -9 1393 l 1
 112 1514 l 1
 302 1325 l 1
 371 1372 455 1400 540 1400 c 0
 617 1400 695 1375 760 1333 c 1
 942 1514 l 1
 1063 1393 l 1
 881 1210 l 1
 921 1147 940 1073 940 999 c 0
 940 915 913 831 866 762 c 1
 1063 564 l 1
 942 442 l 1
 743 641 l 1
 676 593 593 567 509 567 c 0
 435 567 360 587 297 627 c 1
 112 442 l 1
EndSplineSet
EndChar

StartChar: d
Encoding: 100 100 149
Width: 1215
VWidth: 0
Flags: HW
PickledData: "(dp1
S'hhints'
p2
(dp3
sS'anchors'
p4
(tsS'com.typemytype.robofont.layerData'
p5
(dp6
S'b'
(dp7
S'name'
p8
S'd'
sS'lib'
p9
(dp10
sS'unicodes'
p11
(tsS'width'
p12
I1216
sS'contours'
p13
((dp14
S'points'
p15
((dp16
S'segmentType'
p17
S'curve'
p18
sS'x'
I629
sS'smooth'
p19
I01
sS'y'
I69
s(dp20
S'y'
I69
sS'x'
I966
sg19
I00
s(dp21
S'y'
I364
sS'x'
I1047
sg19
I00
s(dp22
g17
S'curve'
p23
sS'x'
I1047
sg19
I01
sS'y'
I581
s(dp24
S'y'
I796
sS'x'
I1047
sg19
I00
s(dp25
S'y'
I1102
sS'x'
I966
sg19
I00
s(dp26
g17
S'curve'
p27
sS'x'
I631
sg19
I01
sS'y'
I1102
s(dp28
S'y'
I1102
sS'x'
I295
sg19
I00
s(dp29
S'y'
I796
sS'x'
I215
sg19
I00
s(dp30
g17
S'curve'
p31
sS'x'
I215
sg19
I01
sS'y'
I581
s(dp32
S'y'
I314
sS'x'
I215
sg19
I00
s(dp33
S'y'
I69
sS'x'
I318
sg19
I00
stp34
s(dp35
g15
((dp36
g17
S'curve'
p37
sS'x'
I629
sg19
I01
sS'y'
I-13
s(dp38
S'y'
I-13
sS'x'
I274
sg19
I00
s(dp39
S'y'
I276
sS'x'
I117
sg19
I00
s(dp40
g17
S'curve'
p41
sS'x'
I117
sg19
I01
sS'y'
I582
s(dp42
S'y'
I884
sS'x'
I117
sg19
I00
s(dp43
S'y'
I1184
sS'x'
I272
sg19
I00
s(dp44
g17
S'curve'
p45
sS'x'
I629
sg19
I01
sS'y'
I1184
s(dp46
S'y'
I1184
sS'x'
I988
sg19
I00
s(dp47
S'y'
I886
sS'x'
I1145
sg19
I00
s(dp48
g17
S'curve'
p49
sS'x'
I1145
sg19
I01
sS'y'
I582
s(dp50
S'y'
I274
sS'x'
I1145
sg19
I00
s(dp51
S'y'
I-13
sS'x'
I983
sg19
I00
stp52
stp53
sS'components'
p54
(tsg4
(tsssg11
(tsS'vhints'
p55
(dp56
sS'com.fontlab.hintData'
p57
(dp58
sg12
I1209
sg15
(tsg13
(tsg54
(tsg17
S'curve'
p59
sS'position'
p60
I994
sg8
S'd'
s."
LayerCount: 2
Fore
SplineSet
973 264 m 1
 973 916 l 1
 912 1019 794 1102 621 1102 c 0
 302 1102 215 796 215 591 c 0
 215 374 285 69 606 69 c 0
 782 69 880 139 973 264 c 1
118 580 m 0
 118 852 254 1184 614 1184 c 0
 798 1184 903 1112 973 1018 c 1
 973 1638 l 1
 1069 1659 l 1
 1069 0 l 1
 993 0 l 1
 982 186 l 1
 914 82 790 -14 608 -14 c 0
 271 -14 124 263 118 566 c 0
 118 571 118 576 118 580 c 0
EndSplineSet
EndChar

StartChar: dagger
Encoding: 8224 8224 150
Width: 1045
VWidth: 0
Flags: HW
PickledData: "(dp1
S'position'
p2
I480
sS'vhints'
p3
(dp4
sS'hhints'
p5
(dp6
sS'com.fontlab.hintData'
p7
(dp8
sS'width'
p9
I94
s."
LayerCount: 2
Fore
SplineSet
480 0 m 1
 480 1044 l 1
 183 1044 l 1
 183 1117 l 1
 478 1117 l 1
 478 1375 l 1
 577 1375 l 1
 577 1117 l 1
 862 1117 l 1
 862 1044 l 1
 574 1044 l 1
 574 0 l 1
 480 0 l 1
EndSplineSet
EndChar

StartChar: daggerdbl
Encoding: 8225 8225 151
Width: 1056
VWidth: 0
Flags: HW
PickledData: "(dp1
S'position'
p2
I483
sS'vhints'
p3
(dp4
sS'hhints'
p5
(dp6
sS'com.fontlab.hintData'
p7
(dp8
sS'width'
p9
I96
s."
LayerCount: 2
Fore
SplineSet
483 0 m 1
 483 269 l 1
 188 269 l 1
 188 339 l 1
 483 339 l 1
 483 1044 l 1
 188 1044 l 1
 188 1117 l 1
 483 1117 l 1
 483 1375 l 1
 582 1375 l 1
 582 1117 l 1
 867 1117 l 1
 867 1044 l 1
 579 1044 l 1
 579 339 l 1
 864 339 l 1
 864 269 l 1
 579 269 l 1
 579 0 l 1
 483 0 l 1
EndSplineSet
EndChar

StartChar: dcroat
Encoding: 273 273 153
Width: 1215
VWidth: 0
Flags: HW
PickledData: "(dp1
S'position'
p2
I1016
sS'vhints'
p3
(dp4
sS'hhints'
p5
(dp6
sS'com.fontlab.hintData'
p7
(dp8
sS'width'
p9
I85
s."
LayerCount: 2
Fore
SplineSet
573 67 m 0
 710 67 891 150 997 264 c 1
 997 928 l 1
 884 1008 739 1093 581 1093 c 0
 266 1093 224 760 224 588 c 0
 224 406 252 67 573 67 c 0
624 -17 m 0
 293 -17 132 258 132 563 c 0
 132 827 238 1187 602 1187 c 0
 726 1187 912 1120 997 1018 c 1
 997 1330 l 1
 534 1330 l 1
 534 1431 l 1
 997 1431 l 1
 997 1633 l 1
 1101 1547 l 1
 1101 1431 l 1
 1216 1431 l 1
 1216 1330 l 1
 1101 1330 l 1
 1101 0 l 1
 1016 0 l 1
 1014 186 l 1
 905 80 768 -17 624 -17 c 0
EndSplineSet
EndChar

StartChar: degree
Encoding: 176 176 154
Width: 427
VWidth: 0
Flags: HW
PickledData: "(dp1
S'position'
p2
I346
sS'vhints'
p3
(dp4
sS'hhints'
p5
(dp6
sS'com.fontlab.hintData'
p7
(dp8
sS'width'
p9
I49
s."
LayerCount: 2
Fore
SplineSet
234 649 m 0
 124 649 49 719 49 832 c 0
 49 943 115 1021 228 1021 c 0
 334 1021 395 939 395 837 c 0
 395 735 343 649 234 649 c 0
226 700 m 0
 302 700 346 762 346 835 c 0
 346 906 303 969 226 969 c 0
 150 969 99 906 99 835 c 0
 99 765 154 700 226 700 c 0
EndSplineSet
EndChar

StartChar: dieresis
Encoding: 168 168 155
Width: 591
VWidth: 0
Flags: HW
PickledData: "(dp1
S'position'
p2
I435
sS'vhints'
p3
(dp4
sS'hhints'
p5
(dp6
sS'com.fontlab.hintData'
p7
(dp8
sS'width'
p9
I129
s."
LayerCount: 2
Fore
SplineSet
503 -98 m 0
 465 -98 435 -65 435 -25 c 0
 435 12 465 48 503 48 c 0
 545 48 564 12 564 -25 c 0
 564 -61 545 -98 503 -98 c 0
110 -98 m 0
 71 -98 41 -65 41 -25 c 0
 41 12 71 48 110 48 c 0
 152 48 171 12 171 -25 c 0
 171 -61 151 -98 110 -98 c 0
EndSplineSet
EndChar

StartChar: divide
Encoding: 247 247 156
Width: 473
VWidth: 0
Flags: HW
PickledData: "(dp1
S'position'
p2
I139
sS'vhints'
p3
(dp4
sS'hhints'
p5
(dp6
sS'com.fontlab.hintData'
p7
(dp8
sS'width'
p9
I135
s."
LayerCount: 2
Fore
SplineSet
214 566 m 0
 175 566 143 601 143 639 c 0
 143 675 176 711 214 711 c 0
 255 711 279 676 279 639 c 0
 279 602 254 566 214 566 c 0
-37 462 m 1
 -37 523 l 1
 473 523 l 1
 473 462 l 1
 -37 462 l 1
209 270 m 0
 170 270 139 305 139 343 c 0
 139 379 171 416 209 416 c 0
 251 416 274 380 274 343 c 0
 274 306 250 270 209 270 c 0
EndSplineSet
EndChar

StartChar: dollar
Encoding: 36 36 157
Width: 827
VWidth: 0
Flags: HW
PickledData: "(dp1
S'position'
p2
I736
sS'vhints'
p3
(dp4
sS'hhints'
p5
(dp6
sS'com.fontlab.hintData'
p7
(dp8
sS'width'
p9
I73
s."
LayerCount: 2
Fore
SplineSet
490 71 m 1
 507 71 l 2
 624 71 736 139 736 271 c 0
 736 423 589 449 490 486 c 1
 490 71 l 1
390 602 m 1
 390 982 l 1
 375 982 l 2
 254 982 122 956 122 792 c 0
 122 647 303 603 390 602 c 1
390 -195 m 1
 390 -11 l 1
 315 -1 255 5 121 44 c 1
 161 123 l 1
 316 66 307 89 390 70 c 1
 390 513 l 1
 371 517 359 519 350 519 c 0
 327 519 332 508 316 508 c 0
 309 508 297 510 276 517 c 1
 160 548 49 601 49 801 c 0
 49 973 259 1038 390 1048 c 1
 390 1217 l 1
 490 1217 l 1
 490 1045 l 1
 495 1045 l 2
 539 1045 716 1003 758 999 c 1
 727 941 l 1
 648 979 565 977 490 981 c 1
 490 569 l 1
 541 551 508 565 558 545 c 0
 685 493 809 437 809 262 c 0
 809 69 649 6 490 -9 c 1
 490 -195 l 1
 390 -195 l 1
758 999 m 1
 761 1004 l 1
 765 1002 767 1000 767 999 c 0
 767 998 766 998 763 998 c 0
 762 998 760 999 758 999 c 1
EndSplineSet
EndChar

StartChar: dotaccent
Encoding: 729 729 158
Width: 393
VWidth: 0
Flags: HW
PickledData: "(dp1
S'position'
p2
I129
sS'vhints'
p3
(dp4
sS'hhints'
p5
(dp6
sS'com.fontlab.hintData'
p7
(dp8
sS'width'
p9
I129
s."
LayerCount: 2
Fore
SplineSet
197 -722 m 0
 159 -722 129 -689 129 -649 c 0
 129 -612 159 -576 197 -576 c 0
 239 -576 258 -612 258 -649 c 0
 258 -685 239 -722 197 -722 c 0
EndSplineSet
EndChar

StartChar: dotlessi
Encoding: 305 305 159
Width: 259
VWidth: 0
Flags: HW
PickledData: "(dp1
S'position'
p2
I86
sS'vhints'
p3
(dp4
sS'hhints'
p5
(dp6
sS'com.fontlab.hintData'
p7
(dp8
sS'width'
p9
I92
s."
LayerCount: 2
Fore
SplineSet
86 0 m 1
 86 1174 l 1
 178 1174 l 1
 178 0 l 1
 86 0 l 1
EndSplineSet
EndChar

StartChar: e
Encoding: 101 101 160
Width: 1173
VWidth: 0
Flags: HW
PickledData: "(dp1
S'hhints'
p2
(dp3
sS'anchors'
p4
(tsS'com.typemytype.robofont.layerData'
p5
(dp6
S'b'
(dp7
S'name'
p8
S'e'
sS'lib'
p9
(dp10
sS'unicodes'
p11
(tsS'width'
p12
I1174
sS'contours'
p13
((dp14
S'points'
p15
((dp16
S'segmentType'
p17
S'curve'
p18
sS'x'
I632
sS'smooth'
p19
I00
sS'y'
I64
s(dp20
S'y'
I64
sS'x'
I328
sg19
I00
s(dp21
S'y'
I315
sS'x'
I216
sg19
I00
s(dp22
g17
S'curve'
p23
sS'x'
I216
sg19
I01
sS'y'
I582
s(dp24
S'y'
I804
sS'x'
I216
sg19
I00
s(dp25
S'y'
I1108
sS'x'
I303
sg19
I00
s(dp26
g17
S'curve'
p27
sS'x'
I632
sg19
I00
sS'y'
I1108
s(dp28
S'y'
I1108
sS'x'
I965
sg19
I00
s(dp29
S'y'
I804
sS'x'
I1048
sg19
I00
s(dp30
g17
S'curve'
p31
sS'x'
I1048
sg19
I01
sS'y'
I582
s(dp32
S'y'
I315
sS'x'
I1048
sg19
I00
s(dp33
S'y'
I64
sS'x'
I940
sg19
I00
stp34
s(dp35
g15
((dp36
g17
S'curve'
p37
sS'x'
I632
sg19
I00
sS'y'
I-16
s(dp38
S'y'
I-16
sS'x'
I987
sg19
I00
s(dp39
S'y'
I266
sS'x'
I1146
sg19
I00
s(dp40
g17
S'curve'
p41
sS'x'
I1146
sg19
I01
sS'y'
I582
s(dp42
S'y'
I892
sS'x'
I1146
sg19
I00
s(dp43
S'y'
I1188
sS'x'
I989
sg19
I00
s(dp44
g17
S'curve'
p45
sS'x'
I632
sg19
I00
sS'y'
I1188
s(dp46
S'y'
I1188
sS'x'
I275
sg19
I00
s(dp47
S'y'
I892
sS'x'
I118
sg19
I00
s(dp48
g17
S'curve'
p49
sS'x'
I118
sg19
I01
sS'y'
I582
s(dp50
S'y'
I266
sS'x'
I118
sg19
I00
s(dp51
S'y'
I-16
sS'x'
I277
sg19
I00
stp52
stp53
sS'components'
p54
(tsg4
(tsssg11
(tsS'vhints'
p55
(dp56
sS'com.fontlab.hintData'
p57
(dp58
sg12
I1188
sg13
(tsg54
(tsS'position'
p59
I981
sg8
S'e'
s."
LayerCount: 2
Fore
SplineSet
654 -16 m 0
 769 -16 944 31 1041 120 c 1
 1006 183 l 1
 920 111 789 64 658 64 c 0
 338 64 216 301 216 596 c 1
 1066 596 l 1
 1066 596 1078 633 1078 691 c 0
 1078 952 941 1188 643 1188 c 0
 295 1188 118 913 118 599 c 0
 118 248 292 -16 654 -16 c 0
985 670 m 1
 221 670 l 1
 238 902 362 1108 646 1108 c 0
 883 1108 985 899 985 716 c 2
 985 670 l 1
EndSplineSet
EndChar

StartChar: eight
Encoding: 56 56 167
Width: 1121
VWidth: 0
Flags: HW
PickledData: "(dp1
S'position'
p2
I911
sS'vhints'
p3
(dp4
sS'hhints'
p5
(dp6
sS'com.fontlab.hintData'
p7
(dp8
sS'width'
p9
I101
s."
LayerCount: 2
Fore
SplineSet
570 657 m 0
 742 657 921 807 921 987 c 0
 921 1204 747 1269 570 1269 c 0
 396 1269 201 1212 201 990 c 0
 201 805 396 657 570 657 c 0
570 -87 m 0
 795 -87 911 -14 911 229 c 0
 911 420 778 610 570 610 c 0
 359 610 211 432 211 232 c 0
 211 -14 347 -87 570 -87 c 0
570 -159 m 0
 341 -159 110 -57 110 209 c 0
 110 397 149 572 357 649 c 1
 199 711 95 812 95 985 c 0
 95 1253 366 1340 570 1340 c 0
 775 1340 1026 1248 1026 982 c 0
 1026 807 921 711 765 646 c 1
 971 568 1012 395 1012 207 c 0
 1012 -57 800 -159 570 -159 c 0
EndSplineSet
EndChar

StartChar: emdash
Encoding: 8212 8212 169
Width: 725
VWidth: 0
Flags: HW
PickledData: "(dp1
S'position'
p2
I105
sS'vhints'
p3
(dp4
sS'hhints'
p5
(dp6
sS'com.fontlab.hintData'
p7
(dp8
sS'width'
p9
I521
s."
LayerCount: 2
Fore
SplineSet
105 545 m 1
 105 626 l 1
 626 626 l 1
 626 545 l 1
 105 545 l 1
EndSplineSet
EndChar

StartChar: endash
Encoding: 8211 8211 170
Width: 551
VWidth: 0
Flags: HW
PickledData: "(dp1
S'position'
p2
I105
sS'vhints'
p3
(dp4
sS'hhints'
p5
(dp6
sS'com.fontlab.hintData'
p7
(dp8
sS'width'
p9
I348
s."
LayerCount: 2
Fore
SplineSet
105 545 m 1
 105 626 l 1
 453 626 l 1
 453 545 l 1
 105 545 l 1
EndSplineSet
EndChar

StartChar: equal
Encoding: 61 61 172
Width: 645
VWidth: 0
Flags: HW
PickledData: "(dp1
S'position'
p2
I148
sS'vhints'
p3
(dp4
sS'hhints'
p5
(dp6
sS'com.fontlab.hintData'
p7
(dp8
sS'width'
p9
I369
s."
LayerCount: 2
Fore
SplineSet
148 435 m 1
 148 511 l 1
 517 511 l 1
 517 435 l 1
 148 435 l 1
148 286 m 1
 148 362 l 1
 517 362 l 1
 517 286 l 1
 148 286 l 1
EndSplineSet
EndChar

StartChar: eth
Encoding: 240 240 173
Width: 1060
VWidth: 0
Flags: HW
PickledData: "(dp1
S'position'
p2
I885
sS'vhints'
p3
(dp4
sS'hhints'
p5
(dp6
sS'com.fontlab.hintData'
p7
(dp8
sS'width'
p9
I95
s."
LayerCount: 2
Fore
SplineSet
452 71 m 0
 855 71 885 424 885 725 c 0
 885 1037 796 1098 508 1098 c 0
 171 1098 102 857 102 588 c 0
 102 375 143 71 452 71 c 0
482 -22 m 0
 141 -22 10 282 10 576 c 0
 10 831 119 1192 480 1192 c 0
 600 1192 788 1124 875 1018 c 1
 816 1180 734 1300 648 1403 c 1
 413 1337 l 1
 371 1395 l 1
 601 1460 l 1
 527 1538 442 1613 344 1676 c 1
 393 1738 l 1
 514 1676 557 1626 699 1486 c 1
 981 1566 l 1
 1023 1508 l 1
 740 1427 l 1
 915 1181 980 963 980 732 c 0
 980 406 939 -22 482 -22 c 0
EndSplineSet
EndChar

StartChar: exclam
Encoding: 33 33 174
Width: 295
VWidth: 0
Flags: HW
PickledData: "(dp1
S'position'
p2
I-94
sS'vhints'
p3
(dp4
sS'com.fontlab.hintData'
p5
(dp6
sS'width'
p7
I437
s."
LayerCount: 2
Fore
SplineSet
343 364 m 1
 238 75 l 1
 255 26 277 -18 301 -18 c 0
 307 -18 309 -18 309 -19 c 0
 309 -23 249 -36 191 -55 c 1
 136 -207 l 1
 120 -83 l 1
 97 -95 81 -108 81 -122 c 0
 81 -128 81 -130 80 -130 c 0
 73 -130 33 84 -20 84 c 0
 -26 84 -28 84 -28 85 c 0
 -28 89 34 103 94 123 c 1
 -94 1605 l 1
 231 2176 l 1
 343 364 l 1
EndSplineSet
EndChar

StartChar: exclamdown
Encoding: 161 161 175
Width: 204
VWidth: 0
Flags: HW
PickledData: "(dp1
S'position'
p2
I92
sS'vhints'
p3
(dp4
sS'hhints'
p5
(dp6
sS'com.fontlab.hintData'
p7
(dp8
sS'width'
p9
I37
s."
LayerCount: 2
Fore
SplineSet
-106 1522 m 0
 -53 1522 -14 1737 -7 1737 c 0
 -6 1737 -6 1734 -6 1728 c 0
 -6 1675 223 1633 223 1625 c 0
 223 1624 220 1624 215 1624 c 0
 162 1624 121 1410 114 1410 c 0
 113 1410 113 1412 113 1418 c 0
 113 1470 -114 1513 -114 1521 c 0
 -114 1522 -112 1522 -106 1522 c 0
92 1 m 1
 33 1242 l 1
 187 1242 l 1
 129 1 l 1
 92 1 l 1
EndSplineSet
EndChar

StartChar: f
Encoding: 102 102 176
Width: 721
VWidth: 0
Flags: HW
PickledData: "(dp1
S'hhints'
p2
(dp3
sS'anchors'
p4
(tsS'com.typemytype.robofont.layerData'
p5
(dp6
S'b'
(dp7
S'name'
p8
S'f'
sS'lib'
p9
(dp10
sS'unicodes'
p11
(tsS'width'
p12
I722
sS'contours'
p13
((dp14
S'points'
p15
((dp16
S'segmentType'
p17
S'line'
p18
sS'x'
I236
sS'smooth'
p19
I00
sS'y'
I0
s(dp20
g17
S'line'
p21
sS'x'
I236
sg19
I00
sS'y'
I1096
s(dp22
g17
S'line'
p23
sS'x'
I38
sg19
I00
sS'y'
I1096
s(dp24
g17
S'line'
p25
sS'x'
I38
sg19
I00
sS'y'
I1172
s(dp26
g17
S'line'
p27
sS'x'
I236
sg19
I00
sS'y'
I1172
s(dp28
S'y'
I1420
sS'x'
I236
sg19
I00
s(dp29
S'y'
I1657
sS'x'
I252
sg19
I00
s(dp30
g17
S'curve'
p31
sS'x'
I526
sg19
I01
sS'y'
I1657
s(dp32
S'y'
I1657
sS'x'
I609
sg19
I00
s(dp33
S'y'
I1626
sS'x'
I671
sg19
I00
s(dp34
g17
S'curve'
p35
sS'x'
I730
sg19
I00
sS'y'
I1562
s(dp36
g17
S'line'
p37
sS'x'
I692
sg19
I00
sS'y'
I1499
s(dp38
S'y'
I1546
sS'x'
I645
sg19
I00
s(dp39
S'y'
I1577
sS'x'
I567
sg19
I00
s(dp40
g17
S'curve'
p41
sS'x'
I506
sg19
I00
sS'y'
I1577
s(dp42
S'y'
I1577
sS'x'
I316
sg19
I00
s(dp43
S'y'
I1327
sS'x'
I340
sg19
I00
s(dp44
g17
S'curve'
p45
sS'x'
I340
sg19
I00
sS'y'
I1172
s(dp46
g17
S'line'
p47
sS'x'
I724
sg19
I00
sS'y'
I1172
s(dp48
g17
S'line'
p49
sS'x'
I724
sg19
I00
sS'y'
I1096
s(dp50
g17
S'line'
p51
sS'x'
I340
sg19
I00
sS'y'
I1096
s(dp52
g17
S'line'
p53
sS'x'
I340
sg19
I00
sS'y'
I0
stp54
stp55
sS'components'
p56
(tsg4
(tsssg11
(tsS'vhints'
p57
(dp58
sS'com.fontlab.hintData'
p59
(dp60
sg12
I722
sg13
(tsg56
(tsS'position'
p61
I236
sg8
S'f'
s."
LayerCount: 2
Fore
SplineSet
334 0 m 1
 334 1106 l 1
 718 1106 l 1
 718 1172 l 1
 334 1172 l 1
 334 1398 384 1535 525 1535 c 0
 569 1535 622 1522 686 1493 c 1
 724 1562 l 1
 648 1596 578 1614 515 1614 c 0
 344 1614 236 1480 236 1172 c 1
 38 1172 l 1
 38 1106 l 1
 236 1106 l 1
 236 0 l 1
 334 0 l 1
EndSplineSet
EndChar

StartChar: ff
Encoding: 65537 -1 177
Width: 1355
VWidth: 0
Flags: HW
PickledData: "(dp1
S'position'
p2
I870
sS'vhints'
p3
(dp4
sS'hhints'
p5
(dp6
sS'com.fontlab.hintData'
p7
(dp8
sS'width'
p9
I104
s."
LayerCount: 2
Fore
SplineSet
236 0 m 1
 236 1096 l 1
 38 1096 l 1
 38 1172 l 1
 236 1172 l 1
 236 1205 235 1239 235 1273 c 0
 235 1462 256 1657 526 1657 c 0
 609 1657 716 1596 775 1532 c 1
 678 1476 l 1
 638 1526 581 1577 520 1577 c 0
 356 1577 322 1492 322 1391 c 0
 322 1318 340 1236 340 1172 c 1
 870 1172 l 1
 870 1205 869 1239 869 1273 c 0
 869 1462 890 1657 1160 1657 c 0
 1244 1657 1350 1596 1409 1532 c 1
 1312 1476 l 1
 1272 1526 1215 1577 1154 1577 c 0
 990 1577 956 1492 956 1391 c 0
 956 1318 974 1236 974 1172 c 1
 1358 1172 l 1
 1358 1096 l 1
 974 1096 l 1
 974 0 l 1
 870 0 l 1
 870 1096 l 1
 340 1096 l 1
 340 0 l 1
 236 0 l 1
EndSplineSet
EndChar

StartChar: ffi
Encoding: 65538 -1 178
Width: 1786
VWidth: 0
Flags: HW
PickledData: "(dp1
S'position'
p2
I1552
sS'vhints'
p3
(dp4
sS'hhints'
p5
(dp6
sS'com.fontlab.hintData'
p7
(dp8
sS'width'
p9
I91
s."
LayerCount: 2
Fore
SplineSet
1603 1352 m 0
 1565 1352 1535 1385 1535 1424 c 0
 1535 1461 1565 1497 1603 1497 c 0
 1645 1497 1664 1461 1664 1424 c 0
 1664 1388 1645 1352 1603 1352 c 0
236 0 m 1
 236 1096 l 1
 38 1096 l 1
 38 1172 l 1
 236 1172 l 1
 236 1205 235 1239 235 1273 c 0
 235 1462 256 1657 526 1657 c 0
 609 1657 716 1596 775 1532 c 1
 678 1476 l 1
 638 1526 581 1577 520 1577 c 0
 356 1577 322 1492 322 1391 c 0
 322 1318 340 1236 340 1172 c 1
 893 1172 l 1
 893 1205 892 1239 892 1273 c 0
 892 1462 913 1657 1183 1657 c 0
 1266 1657 1373 1596 1432 1532 c 1
 1335 1476 l 1
 1294 1526 1238 1577 1177 1577 c 0
 1013 1577 979 1492 979 1391 c 0
 979 1318 997 1236 997 1172 c 1
 1643 1172 l 1
 1643 0 l 1
 1552 0 l 1
 1552 1096 l 1
 997 1096 l 1
 997 0 l 1
 893 0 l 1
 893 1096 l 1
 340 1096 l 1
 340 0 l 1
 236 0 l 1
EndSplineSet
EndChar

StartChar: five
Encoding: 53 53 179
Width: 890
VWidth: 0
Flags: HW
PickledData: "(dp1
S'position'
p2
I762
sS'vhints'
p3
(dp4
sS'hhints'
p5
(dp6
sS'com.fontlab.hintData'
p7
(dp8
sS'width'
p9
I104
s."
LayerCount: 2
Fore
SplineSet
381 -220 m 0
 234 -220 152 -177 20 -127 c 1
 76 -39 l 1
 173 -97 304 -132 395 -132 c 0
 628 -132 762 -25 762 225 c 0
 762 444 649 592 413 592 c 0
 299 592 167 527 88 491 c 1
 59 531 l 1
 59 1169 l 1
 776 1169 l 1
 776 1068 l 1
 131 1068 l 1
 131 581 l 1
 209 666 357 675 423 675 c 0
 682 675 866 495 866 232 c 0
 866 -76 661 -220 381 -220 c 0
EndSplineSet
EndChar

StartChar: fj
Encoding: 65539 -1 180
Width: 1089
VWidth: 0
Flags: HW
PickledData: "(dp1
S'position'
p2
I840
sS'vhints'
p3
(dp4
sS'hhints'
p5
(dp6
sS'com.fontlab.hintData'
p7
(dp8
sS'width'
p9
I104
s."
LayerCount: 2
Fore
SplineSet
891 1352 m 0
 853 1352 821 1384 821 1424 c 0
 821 1460 853 1497 891 1497 c 0
 932 1497 956 1461 956 1424 c 0
 956 1388 932 1352 891 1352 c 0
676 -386 m 1
 664 -336 l 1
 827 -227 841 -97 841 55 c 0
 841 86 840 118 840 151 c 2
 840 1096 l 1
 340 1096 l 1
 340 0 l 1
 236 0 l 1
 236 1096 l 1
 38 1096 l 1
 38 1172 l 1
 236 1172 l 1
 236 1494 298 1667 509 1667 c 0
 576 1667 667 1631 787 1549 c 1
 704 1501 l 1
 615 1569 555 1597 520 1597 c 0
 347 1597 340 1456 340 1231 c 2
 340 1172 l 1
 944 1172 l 1
 944 128 l 2
 944 -58 912 -327 676 -386 c 1
EndSplineSet
EndChar

StartChar: florin
Encoding: 402 402 181
Width: 693
VWidth: 0
Flags: HW
PickledData: "(dp1
S'position'
p2
I1577
sS'hhints'
p3
(dp4
sS'com.fontlab.hintData'
p5
(dp6
sS'width'
p7
I80
s."
LayerCount: 2
Fore
SplineSet
-188 -255 m 0
 -257 -255 -338 -201 -377 -145 c 1
 -275 -90 l 1
 -198 -134 -146 -153 -114 -153 c 0
 71 -153 69 -36 96 212 c 1
 198 1050 l 1
 1 1050 l 1
 9 1126 l 1
 206 1126 l 1
 231 1362 234 1657 552 1657 c 0
 636 1657 736 1596 788 1532 c 1
 685 1476 l 1
 650 1526 599 1577 538 1577 c 0
 322 1577 313 1414 313 1261 c 2
 313 1220 l 2
 313 1187 313 1155 310 1126 c 1
 694 1126 l 1
 686 1050 l 1
 303 1050 l 1
 209 323 l 2
 167 -9 173 -255 -188 -255 c 0
EndSplineSet
EndChar

StartChar: four
Encoding: 52 52 182
Width: 1237
VWidth: 0
Flags: HW
PickledData: "(dp1
S'position'
p2
I832
sS'vhints'
p3
(dp4
sS'hhints'
p5
(dp6
sS'com.fontlab.hintData'
p7
(dp8
sS'width'
p9
I108
s."
LayerCount: 2
Fore
SplineSet
230 146 m 1
 832 146 l 1
 832 1036 l 1
 230 146 l 1
832 -283 m 1
 832 73 l 1
 145 73 l 1
 124 176 l 1
 827 1203 l 1
 940 1179 l 1
 940 148 l 1
 1130 148 l 1
 1130 73 l 1
 940 73 l 1
 940 -283 l 1
 832 -283 l 1
EndSplineSet
EndChar

StartChar: fraction
Encoding: 8260 8260 183
Width: 1485
VWidth: 0
Flags: HW
LayerCount: 2
Fore
SplineSet
89 -110 m 1
 53 -14 l 1
 1343 1203 l 1
 1379 1108 l 1
 89 -110 l 1
EndSplineSet
EndChar

StartChar: g
Encoding: 103 103 184
Width: 1180
VWidth: 0
Flags: HW
PickledData: "(dp1
S'hhints'
p2
(dp3
sS'anchors'
p4
(tsS'com.typemytype.robofont.layerData'
p5
(dp6
S'b'
(dp7
S'name'
p8
S'g'
sS'lib'
p9
(dp10
sS'unicodes'
p11
(tsS'width'
p12
I1181
sS'contours'
p13
((dp14
S'points'
p15
((dp16
S'segmentType'
p17
S'curve'
p18
sS'x'
I563
sS'smooth'
p19
I01
sS'y'
I528
s(dp20
S'y'
I528
sS'x'
I811
sg19
I00
s(dp21
S'y'
I680
sS'x'
I888
sg19
I00
s(dp22
g17
S'curve'
p23
sS'x'
I890
sg19
I01
sS'y'
I802
s(dp24
S'y'
I973
sS'x'
I893
sg19
I00
s(dp25
S'y'
I1098
sS'x'
I818
sg19
I00
s(dp26
g17
S'curve'
p27
sS'x'
I607
sg19
I01
sS'y'
I1102
s(dp28
S'y'
I1107
sS'x'
I334
sg19
I00
s(dp29
S'y'
I978
sS'x'
I254
sg19
I00
s(dp30
g17
S'curve'
p31
sS'x'
I254
sg19
I01
sS'y'
I823
s(dp32
S'y'
I663
sS'x'
I254
sg19
I00
s(dp33
S'y'
I528
sS'x'
I341
sg19
I00
stp34
s(dp35
g15
((dp36
g17
S'curve'
p37
sS'x'
I533
sg19
I01
sS'y'
I-265
s(dp38
S'y'
I-265
sS'x'
I779
sg19
I00
s(dp39
S'y'
I-234
sS'x'
I967
sg19
I00
s(dp40
g17
S'curve'
p41
sS'x'
I967
sg19
I01
sS'y'
I-66
s(dp42
S'y'
I125
sS'x'
I967
sg19
I00
s(dp43
S'y'
I132
sS'x'
I798
sg19
I00
s(dp44
g17
S'curve'
p45
sS'x'
I708
sg19
I01
sS'y'
I132
s(dp46
g17
S'line'
p47
sS'x'
I689
sg19
I01
sS'y'
I132
s(dp48
g17
S'line'
p49
sS'x'
I422
sg19
I00
sS'y'
I132
s(dp50
S'y'
I103
sS'x'
I343
sg19
I00
s(dp51
S'y'
I-9
sS'x'
I265
sg19
I00
s(dp52
g17
S'curve'
p53
sS'x'
I265
sg19
I01
sS'y'
I-85
s(dp54
S'y'
I-234
sS'x'
I265
sg19
I00
s(dp55
S'y'
I-265
sS'x'
I337
sg19
I00
stp56
s(dp57
g15
((dp58
g17
S'curve'
p59
sS'x'
I982
sg19
I01
sS'y'
I804
s(dp60
S'y'
I579
sS'x'
I982
sg19
I00
s(dp61
S'y'
I451
sS'x'
I784
sg19
I00
s(dp62
g17
S'curve'
p63
sS'x'
I561
sg19
I01
sS'y'
I451
s(dp64
S'y'
I451
sS'x'
I421
sg19
I00
s(dp65
S'y'
I497
sS'x'
I334
sg19
I00
s(dp66
g17
S'curve'
p67
sS'x'
I324
sg19
I00
sS'y'
I511
s(dp68
S'y'
I491
sS'x'
I314
sg19
I00
s(dp69
S'y'
I401
sS'x'
I273
sg19
I00
s(dp70
g17
S'curve'
p71
sS'x'
I273
sg19
I01
sS'y'
I338
s(dp72
S'y'
I260
sS'x'
I273
sg19
I00
s(dp73
S'y'
I213
sS'x'
I321
sg19
I00
s(dp74
g17
S'curve'
p75
sS'x'
I321
sg19
I00
sS'y'
I213
s(dp76
g17
S'line'
p77
sS'x'
I655
sg19
I01
sS'y'
I213
s(dp78
S'y'
I213
sS'x'
I867
sg19
I00
s(dp79
S'y'
I209
sS'x'
I1061
sg19
I00
s(dp80
g17
S'curve'
p81
sS'x'
I1061
sg19
I01
sS'y'
I-54
s(dp82
S'y'
I-276
sS'x'
I1061
sg19
I00
s(dp83
S'y'
I-339
sS'x'
I858
sg19
I00
s(dp84
g17
S'curve'
p85
sS'x'
I539
sg19
I01
sS'y'
I-339
s(dp86
S'y'
I-339
sS'x'
I337
sg19
I00
s(dp87
S'y'
I-324
sS'x'
I157
sg19
I00
s(dp88
g17
S'curve'
p89
sS'x'
I157
sg19
I01
sS'y'
I-85
s(dp90
S'y'
I30
sS'x'
I157
sg19
I00
s(dp91
S'y'
I117
sS'x'
I228
sg19
I00
s(dp92
g17
S'curve'
p93
sS'x'
I321
sg19
I00
sS'y'
I154
s(dp94
S'y'
I166
sS'x'
I266
sg19
I00
s(dp95
S'y'
I183
sS'x'
I197
sg19
I00
s(dp96
g17
S'curve'
p97
sS'x'
I181
sg19
I01
sS'y'
I282
s(dp98
S'y'
I295
sS'x'
I179
sg19
I00
s(dp99
S'y'
I308
sS'x'
I178
sg19
I00
s(dp100
g17
S'curve'
p101
sS'x'
I178
sg19
I01
sS'y'
I322
s(dp102
S'y'
I390
sS'x'
I178
sg19
I00
s(dp103
S'y'
I462
sS'x'
I207
sg19
I00
s(dp104
g17
S'curve'
p105
sS'x'
I289
sg19
I00
sS'y'
I535
s(dp106
S'y'
I546
sS'x'
I284
sg19
I00
s(dp107
S'y'
I628
sS'x'
I151
sg19
I00
s(dp108
g17
S'curve'
p109
sS'x'
I151
sg19
I01
sS'y'
I816
s(dp110
S'y'
I1014
sS'x'
I151
sg19
I00
s(dp111
S'y'
I1184
sS'x'
I287
sg19
I00
s(dp112
g17
S'curve'
p113
sS'x'
I589
sg19
I01
sS'y'
I1184
s(dp114
S'y'
I1184
sS'x'
I682
sg19
I00
s(dp115
S'y'
I1165
sS'x'
I769
sg19
I00
s(dp116
g17
S'curve'
p117
sS'x'
I842
sg19
I00
sS'y'
I1101
s(dp118
S'y'
I1149
sS'x'
I926
sg19
I00
s(dp119
S'y'
I1156
sS'x'
I1018
sg19
I00
s(dp120
g17
S'curve'
p121
sS'x'
I1113
sg19
I00
sS'y'
I1157
s(dp122
g17
S'line'
p123
sS'x'
I1113
sg19
I00
sS'y'
I1055
s(dp124
g17
S'line'
p125
sS'x'
I874
sg19
I00
sS'y'
I1055
s(dp126
S'y'
I1019
sS'x'
I928
sg19
I00
s(dp127
S'y'
I904
sS'x'
I982
sg19
I00
stp128
stp129
sS'components'
p130
(tsg4
(tsssg11
(tsS'vhints'
p131
(dp132
sS'com.fontlab.hintData'
p133
(dp134
sg8
S'g'
sg12
I1177
sg15
(tsg13
(tsg130
(tsg17
S'curve'
p135
sS'position'
p136
I960
sS'com.typemytype.robofont.guides'
p137
(ts."
LayerCount: 2
Fore
SplineSet
563 519 m 0
 341 519 240 643 240 823 c 0
 240 975 331 1118 592 1118 c 0
 804 1118 894 979 894 809 c 0
 894 665 815 519 563 519 c 0
539 -353 m 0
 858 -353 1061 -279 1061 -57 c 0
 1061 168 917 215 705 215 c 2
 317 215 l 1
 317 215 266 230 266 334 c 0
 266 397 315 488 325 508 c 1
 346 495 425 450 565 450 c 0
 805 450 979 589 979 814 c 0
 979 914 938 1019 887 1058 c 1
 1122 1091 l 1
 1115 1169 l 1
 1020 1168 928 1142 855 1104 c 1
 784 1160 682 1188 589 1188 c 0
 287 1188 151 1017 151 816 c 0
 151 628 278 540 292 528 c 1
 210 455 178 390 178 322 c 0
 178 225 207 160 302 148 c 1
 209 111 157 27 157 -88 c 0
 157 -327 337 -353 539 -353 c 0
533 -278 m 0
 337 -278 242 -234 242 -85 c 0
 242 41 328 111 396 139 c 1
 702 139 l 2
 861 139 973 128 973 -63 c 0
 973 -231 821 -278 533 -278 c 0
EndSplineSet
EndChar

StartChar: germandbls
Encoding: 223 223 188
Width: 1162
VWidth: 0
Flags: HW
PickledData: "(dp1
S'hhints'
p2
(dp3
sS'name'
p4
S'germandbls'
p5
sS'unicodes'
p6
(tsS'vhints'
p7
(dp8
sS'com.fontlab.hintData'
p9
(dp10
sS'width'
p11
I1163
sS'contours'
p12
(tsS'components'
p13
(tsS'position'
p14
I1039
sS'anchors'
p15
(ts."
LayerCount: 2
Fore
SplineSet
443 900 m 0
 650 900 837 944 837 1235 c 0
 837 1477 623 1491 481 1491 c 0
 215 1491 194 1311 194 1132 c 0
 194 1100 195 1069 195 1038 c 2
 195 25 l 1
 96 -9 l 1
 94 1081 l 2
 94 1387 165 1579 481 1579 c 2
 505 1579 l 2
 667 1579 928 1552 928 1186 c 0
 928 1025 867 872 729 857 c 1
 739 858 749 858 759 858 c 0
 984 858 1122 666 1122 416 c 0
 1122 -43 698 -93 401 -93 c 1
 402 -4 l 1
 442 -6 485 -8 528 -8 c 0
 774 -8 1039 55 1039 468 c 0
 1039 796 676 821 444 821 c 0
 403 821 367 820 337 820 c 1
 337 869 l 1
 337 904 l 1
 364 903 404 900 443 900 c 0
EndSplineSet
EndChar

StartChar: grave
Encoding: 96 96 189
Width: 438
VWidth: 0
Flags: HW
PickledData: "(dp1
S'position'
p2
I-10
sS'vhints'
p3
(dp4
sS'hhints'
p5
(dp6
sS'com.fontlab.hintData'
p7
(dp8
sS'width'
p9
I447
s."
LayerCount: 2
Fore
SplineSet
408 17 m 5
 -10 420 l 1
 63 489 l 1
 437 48 l 1
 408 17 l 5
EndSplineSet
EndChar

StartChar: guillemotleft
Encoding: 171 171 190
Width: 965
VWidth: 0
Flags: HW
LayerCount: 2
Fore
SplineSet
975 179 m 1
 473 496 l 1
 473 650 l 1
 975 968 l 1
 975 831 l 1
 557 576 l 1
 975 317 l 1
 975 179 l 1
472 179 m 1
 -29 496 l 1
 -29 650 l 1
 472 968 l 1
 472 831 l 1
 56 576 l 1
 472 317 l 1
 472 179 l 1
EndSplineSet
EndChar

StartChar: guillemotright
Encoding: 187 187 191
Width: 953
VWidth: 0
Flags: HW
LayerCount: 2
Fore
SplineSet
501 179 m 1
 501 317 l 1
 930 576 l 1
 501 831 l 1
 501 968 l 1
 1004 650 l 1
 1004 496 l 1
 501 179 l 1
0 179 m 1
 0 317 l 1
 428 576 l 1
 0 831 l 1
 0 968 l 1
 503 650 l 1
 503 496 l 1
 0 179 l 1
EndSplineSet
EndChar

StartChar: guilsinglleft
Encoding: 8249 8249 192
Width: 244
VWidth: 0
Flags: HW
PickledData: "(dp1
S'position'
p2
I-98
sS'vhints'
p3
(dp4
sS'com.fontlab.hintData'
p5
(dp6
sS'width'
p7
I483
s."
LayerCount: 2
Fore
SplineSet
385 172 m 1
 -98 484 l 1
 -98 641 l 1
 385 955 l 1
 385 798 l 1
 -9 568 l 1
 385 329 l 1
 385 172 l 1
EndSplineSet
EndChar

StartChar: guilsinglright
Encoding: 8250 8250 193
Width: 277
VWidth: 0
Flags: HW
PickledData: "(dp1
S'position'
p2
I-121
sS'vhints'
p3
(dp4
sS'com.fontlab.hintData'
p5
(dp6
sS'width'
p7
I483
s."
LayerCount: 2
Fore
SplineSet
-121 172 m 1
 -121 329 l 1
 276 568 l 1
 -121 798 l 1
 -121 955 l 1
 362 641 l 1
 362 484 l 1
 -121 172 l 1
EndSplineSet
EndChar

StartChar: h
Encoding: 104 104 194
Width: 1221
VWidth: 0
Flags: HW
PickledData: "(dp1
S'hhints'
p2
(dp3
sS'anchors'
p4
(tsS'com.typemytype.robofont.layerData'
p5
(dp6
S'b'
(dp7
S'name'
p8
S'h'
sS'lib'
p9
(dp10
sS'unicodes'
p11
(tsS'width'
p12
I1222
sS'contours'
p13
(tsS'components'
p14
(tsg4
(tsssg11
(tsS'vhints'
p15
(dp16
sS'com.fontlab.hintData'
p17
(dp18
sg12
I1169
sg13
(tsg14
(tsS'position'
p19
I945
sg8
S'h'
s."
LayerCount: 2
Fore
SplineSet
147 0 m 1
 147 1580 l 1
 245 1604 l 1
 245 983 l 1
 387 1143 544 1185 699 1185 c 0
 1030 1185 1085 956 1085 725 c 2
 1085 0 l 1
 987 0 l 1
 987 716 l 2
 987 932 953 1099 686 1099 c 0
 546 1099 380 1037 245 893 c 1
 245 0 l 1
 147 0 l 1
EndSplineSet
EndChar

StartChar: hbar
Encoding: 295 295 195
Width: 1167
VWidth: 0
Flags: HW
PickledData: "(dp1
S'position'
p2
I949
sS'vhints'
p3
(dp4
sS'hhints'
p5
(dp6
sS'com.fontlab.hintData'
p7
(dp8
sS'width'
p9
I105
s."
LayerCount: 2
Fore
SplineSet
115 0 m 1
 115 1389 l 1
 1 1389 l 1
 1 1482 l 1
 115 1482 l 1
 115 1580 l 1
 220 1604 l 1
 220 1482 l 1
 623 1482 l 1
 623 1389 l 1
 220 1389 l 1
 220 986 l 1
 350 1091 465 1187 644 1187 c 0
 988 1187 1054 990 1054 729 c 2
 1054 0 l 1
 949 0 l 1
 949 716 l 2
 949 894 931 1093 681 1093 c 0
 565 1093 352 1030 220 890 c 1
 220 0 l 1
 115 0 l 1
EndSplineSet
EndChar

StartChar: hungarumlaut
Encoding: 733 733 197
Width: 709
VWidth: 0
Flags: HW
PickledData: "(dp1
S'position'
p2
I-192
sS'hhints'
p3
(dp4
sS'com.fontlab.hintData'
p5
(dp6
sS'width'
p7
I449
s."
LayerCount: 2
Fore
SplineSet
215 -192 m 1
 196 -192 l 1
 542 257 l 1
 638 180 l 1
 215 -192 l 1
-55 -192 m 1
 -80 -192 l 1
 309 257 l 1
 410 180 l 1
 -55 -192 l 1
EndSplineSet
EndChar

StartChar: hyphen
Encoding: 45 45 198
Width: 816
VWidth: 0
Flags: HW
PickledData: "(dp1
S'position'
p2
I105
sS'vhints'
p3
(dp4
sS'hhints'
p5
(dp6
sS'com.fontlab.hintData'
p7
(dp8
sS'width'
p9
I613
s."
LayerCount: 2
Fore
SplineSet
105 473 m 1
 105 573 l 1
 718 573 l 1
 718 473 l 1
 105 473 l 1
EndSplineSet
EndChar

StartChar: i
Encoding: 105 105 199
Width: 448
VWidth: 0
Flags: HW
PickledData: "(dp1
S'hhints'
p2
(dp3
sS'com.typemytype.robofont.layerData'
p4
(dp5
S'b'
(dp6
S'name'
p7
S'i'
sS'lib'
p8
(dp9
sS'unicodes'
p10
(tsS'width'
p11
I449
sS'contours'
p12
(tsS'components'
p13
(tsS'anchors'
p14
(tsssS'vhints'
p15
(dp16
sS'com.fontlab.hintData'
p17
(dp18
sg11
I91
sS'position'
p19
I154
s."
LayerCount: 2
Fore
SplineSet
231 1352 m 0
 278 1352 301 1387 301 1423 c 0
 301 1458 278 1493 231 1493 c 0
 184 1493 161 1458 161 1423 c 0
 161 1387 184 1352 231 1352 c 0
277 0 m 1
 277 1172 l 1
 179 1172 l 1
 179 0 l 1
 277 0 l 1
EndSplineSet
EndChar

StartChar: integral
Encoding: 8747 8747 206
Width: 1294
VWidth: 0
Flags: HW
PickledData: "(dp1
S'position'
p2
I1577
sS'hhints'
p3
(dp4
sS'com.fontlab.hintData'
p5
(dp6
sS'width'
p7
I80
s."
LayerCount: 2
Fore
SplineSet
296 -538 m 0
 212 -538 112 -476 60 -412 c 1
 163 -357 l 1
 198 -406 249 -457 310 -457 c 0
 514 -457 531 -324 531 -193 c 2
 531 -113 l 2
 531 -92 531 -71 533 -52 c 2
 661 1172 l 1
 682 1385 684 1657 1002 1657 c 0
 1086 1657 1186 1596 1238 1532 c 1
 1135 1476 l 1
 1100 1526 1049 1577 988 1577 c 0
 785 1577 766 1445 766 1315 c 0
 766 1286 767 1258 767 1231 c 0
 767 1210 767 1190 765 1172 c 2
 637 -52 l 2
 615 -265 614 -538 296 -538 c 0
EndSplineSet
EndChar

StartChar: j
Encoding: 106 106 209
Width: 447
VWidth: 0
Flags: HW
PickledData: "(dp1
S'hhints'
p2
(dp3
sS'anchors'
p4
(tsS'com.typemytype.robofont.layerData'
p5
(dp6
S'b'
(dp7
S'name'
p8
S'j'
sS'lib'
p9
(dp10
sS'unicodes'
p11
(tsS'width'
p12
I448
sS'contours'
p13
(tsS'components'
p14
(tsg4
(tsssg11
(tsS'vhints'
p15
(dp16
sS'com.fontlab.hintData'
p17
(dp18
sg12
I448
sg13
(tsg14
(tsS'position'
p19
I203
sg8
S'j'
s."
LayerCount: 2
Fore
SplineSet
-41 -391 m 1
 224 -312 277 -244 277 101 c 1
 179 101 l 1
 179 -205 156 -241 -66 -312 c 1
 -41 -391 l 1
EndSplineSet
Refer: 199 105 N 1 0 0 1 0 0 2
EndChar

StartChar: k
Encoding: 107 107 211
Width: 964
VWidth: 0
Flags: HW
PickledData: "(dp1
S'hhints'
p2
(dp3
sS'anchors'
p4
(tsS'com.typemytype.robofont.layerData'
p5
(dp6
S'b'
(dp7
S'name'
p8
S'k'
sS'lib'
p9
(dp10
sS'unicodes'
p11
(tsS'width'
p12
I965
sS'contours'
p13
(tsS'components'
p14
(tsg4
(tsssg11
(tsS'vhints'
p15
(dp16
sS'com.fontlab.hintData'
p17
(dp18
sg12
I982
sg13
(tsg14
(tsS'position'
p19
I123
sg8
S'k'
s."
LayerCount: 2
Fore
SplineSet
210 590 m 1
 804 1172 l 1
 921 1172 l 1
 404 657 l 1
 994 0 l 1
 876 0 l 1
 323 613 l 1
 210 499 l 1
 210 590 l 1
EndSplineSet
Refer: 214 108 N 1 0 0 1 -17 0 2
EndChar

StartChar: kgreenlandic
Encoding: 312 312 213
Width: 1161
VWidth: 0
Flags: HW
PickledData: "(dp1
S'position'
p2
I119
sS'vhints'
p3
(dp4
sS'hhints'
p5
(dp6
sS'com.fontlab.hintData'
p7
(dp8
sS'width'
p9
I103
s."
LayerCount: 2
Fore
SplineSet
119 0 m 1
 119 1804 l 1
 222 1857 l 1
 222 590 l 1
 852 1174 l 1
 981 1174 l 1
 406 650 l 1
 1032 0 l 1
 909 0 l 1
 351 594 l 1
 222 493 l 1
 222 0 l 1
 119 0 l 1
EndSplineSet
EndChar

StartChar: l
Encoding: 108 108 214
Width: 419
VWidth: 0
Flags: HW
PickledData: "(dp1
S'hhints'
p2
(dp3
sS'anchors'
p4
(tsS'com.typemytype.robofont.layerData'
p5
(dp6
S'b'
(dp7
S'name'
p8
S'l'
sS'lib'
p9
(dp10
sS'unicodes'
p11
(tsS'width'
p12
I420
sS'contours'
p13
(tsS'components'
p14
(tsg4
(tsssg11
(tsS'vhints'
p15
(dp16
sS'com.fontlab.hintData'
p17
(dp18
sg8
S'l'
sg12
I353
sg13
(tsg14
(tsS'position'
p19
I139
sS'com.typemytype.robofont.guides'
p20
(ts."
LayerCount: 2
Fore
SplineSet
164 0 m 1
 164 1638 l 1
 260 1659 l 1
 260 0 l 1
 164 0 l 1
EndSplineSet
EndChar

StartChar: lc_main_stem
Encoding: 65540 -1 216
Width: 1226
VWidth: 0
Flags: W
PickledData: "(dp1
S'com.typemytype.robofont.layerData'
p2
(dp3
S'b'
(dp4
S'name'
p5
S'lc_main_stem'
p6
sS'lib'
p7
(dp8
sS'unicodes'
p9
(tsS'width'
p10
I1227
sS'contours'
p11
(tsS'components'
p12
(tsS'anchors'
p13
(tsss."
VStem: 147 98<893 1041.14> 147 71<1023.86 1172>
LayerCount: 2
Fore
SplineSet
245 0 m 1x80
 245 893 l 1x80
 218 1172 l 1
 147 1172 l 1
 147 0 l 1x40
 245 0 l 1x80
EndSplineSet
EndChar

StartChar: logicalnot
Encoding: 172 172 220
Width: 1624
VWidth: 0
Flags: HW
PickledData: "(dp1
S'position'
p2
I1346
sS'vhints'
p3
(dp4
sS'hhints'
p5
(dp6
sS'com.fontlab.hintData'
p7
(dp8
sS'width'
p9
I168
s."
LayerCount: 2
Fore
SplineSet
1346 399 m 1
 1346 1258 l 1
 -32 1258 l 1
 -32 1350 l 1
 1514 1350 l 1
 1514 399 l 1
 1346 399 l 1
EndSplineSet
EndChar

StartChar: m
Encoding: 109 109 221
Width: 1989
VWidth: 0
Flags: HW
PickledData: "(dp1
S'hhints'
p2
(dp3
sS'anchors'
p4
(tsS'com.typemytype.robofont.layerData'
p5
(dp6
S'b'
(dp7
S'name'
p8
S'm'
sS'lib'
p9
(dp10
sS'unicodes'
p11
(tsS'width'
p12
I1990
sS'contours'
p13
((dp14
S'points'
p15
((dp16
S'segmentType'
p17
S'curve'
p18
sS'x'
I1003
sS'smooth'
p19
I00
sS'y'
I836
s(dp20
g17
S'line'
p21
sS'x'
I995
sg19
I00
sS'y'
I936
s(dp22
g17
S'line'
p23
sS'x'
I1032
sg19
I00
sS'y'
I978
s(dp24
S'y'
I1146
sS'x'
I1176
sg19
I00
s(dp25
S'y'
I1185
sS'x'
I1325
sg19
I00
s(dp26
g17
S'curve'
p27
sS'x'
I1483
sg19
I01
sS'y'
I1185
s(dp28
S'y'
I1185
sS'x'
I1814
sg19
I00
s(dp29
S'y'
I956
sS'x'
I1853
sg19
I00
s(dp30
g17
S'curve'
p31
sS'x'
I1853
sg19
I01
sS'y'
I725
s(dp32
g17
S'line'
p33
sS'x'
I1853
sg19
I00
sS'y'
I0
s(dp34
g17
S'line'
p35
sS'x'
I1755
sg19
I00
sS'y'
I0
s(dp36
g17
S'line'
p37
sS'x'
I1755
sg19
I01
sS'y'
I716
s(dp38
S'y'
I932
sS'x'
I1755
sg19
I00
s(dp39
S'y'
I1099
sS'x'
I1737
sg19
I00
s(dp40
g17
S'curve'
p41
sS'x'
I1470
sg19
I01
sS'y'
I1099
s(dp42
S'y'
I1099
sS'x'
I1313
sg19
I00
s(dp43
S'y'
I1037
sS'x'
I1184
sg19
I00
s(dp44
g17
S'curve'
p45
sS'x'
I1049
sg19
I00
sS'y'
I893
s(dp46
S'y'
I893
sS'x'
I1049
sg19
I00
s(dp47
S'y'
I836
sS'x'
I1003
sg19
I00
stp48
s(dp49
g15
((dp50
S'y'
I856
sS'x'
I206
sg19
I00
s(dp51
S'y'
I936
sS'x'
I197
sg19
I00
s(dp52
g17
S'curve'
p53
sS'x'
I197
sg19
I00
sS'y'
I936
s(dp54
S'y'
I1112
sS'x'
I348
sg19
I00
s(dp55
S'y'
I1185
sS'x'
I504
sg19
I00
s(dp56
g17
S'curve'
p57
sS'x'
I702
sg19
I01
sS'y'
I1185
s(dp58
S'y'
I1185
sS'x'
I1033
sg19
I00
s(dp59
S'y'
I956
sS'x'
I1090
sg19
I00
s(dp60
g17
S'curve'
p61
sS'x'
I1090
sg19
I01
sS'y'
I725
s(dp62
g17
S'line'
p63
sS'x'
I1090
sg19
I00
sS'y'
I0
s(dp64
g17
S'line'
p65
sS'x'
I992
sg19
I00
sS'y'
I0
s(dp66
g17
S'line'
p67
sS'x'
I992
sg19
I01
sS'y'
I716
s(dp68
S'y'
I932
sS'x'
I992
sg19
I00
s(dp69
S'y'
I1099
sS'x'
I956
sg19
I00
s(dp70
g17
S'curve'
p71
sS'x'
I689
sg19
I01
sS'y'
I1099
s(dp72
S'y'
I1099
sS'x'
I519
sg19
I00
s(dp73
S'y'
I1010
sS'x'
I345
sg19
I00
s(dp74
g17
S'curve'
p75
sS'x'
I206
sg19
I00
sS'y'
I856
stp76
stp77
sS'components'
p78
((dp79
S'transformation'
p80
(I1
I0
I0
I1
I0
I0
tp81
sS'baseGlyph'
p82
S'lc_main_stem'
p83
stp84
sg4
(tsssg11
(tsS'vhints'
p85
(dp86
sS'com.fontlab.hintData'
p87
(dp88
sg12
I1901
sg13
(tsg78
(tsS'position'
p89
I1677
sg8
S'm'
s."
LayerCount: 2
Fore
SplineSet
1003 847 m 1
 1167 1052 1302 1108 1475 1108 c 0
 1742 1108 1755 932 1755 716 c 2
 1755 0 l 1
 1853 0 l 1
 1853 725 l 2
 1853 956 1814 1187 1483 1187 c 0
 1315 1187 1156 1140 989 935 c 1
 996 894 l 1
 1003 847 l 1
205 856 m 1
 340 1000 490 1108 670 1108 c 0
 937 1108 950 932 950 716 c 2
 950 0 l 1
 1048 0 l 1
 1048 725 l 2
 1048 956 1009 1187 678 1187 c 0
 500 1187 340 1104 196 936 c 1
 205 856 l 1
EndSplineSet
Refer: 216 -1 N 1 0 0 1 0 0 2
EndChar

StartChar: macron
Encoding: 175 175 222
Width: 930
VWidth: 0
Flags: HW
PickledData: "(dp1
S'position'
p2
I85
sS'hhints'
p3
(dp4
sS'com.fontlab.hintData'
p5
(dp6
sS'width'
p7
I112
s."
LayerCount: 2
Fore
SplineSet
318 85 m 1
 318 197 l 1
 1000 197 l 1
 1000 85 l 1
 318 85 l 1
EndSplineSet
EndChar

StartChar: minus
Encoding: 8722 8722 223
Width: 723
VWidth: 0
Flags: HW
PickledData: "(dp1
S'position'
p2
I508
sS'hhints'
p3
(dp4
sS'com.fontlab.hintData'
p5
(dp6
sS'width'
p7
I131
s."
LayerCount: 2
Fore
SplineSet
9 508 m 1
 9 639 l 1
 691 639 l 1
 691 508 l 1
 9 508 l 1
EndSplineSet
EndChar

StartChar: mu
Encoding: 956 956 224
Width: 1160
VWidth: 0
Flags: HW
PickledData: "(dp1
S'position'
p2
I947
sS'vhints'
p3
(dp4
sS'hhints'
p5
(dp6
sS'com.fontlab.hintData'
p7
(dp8
sS'width'
p9
I92
s."
LayerCount: 2
Fore
SplineSet
194 -185 m 1
 114 -218 l 1
 114 1173 l 1
 194 1173 l 1
 194 530 l 1
 192 501 192 473 192 446 c 0
 192 231 248 72 479 72 c 0
 610 72 815 148 908 262 c 1
 908 1173 l 1
 1039 1173 l 1
 1039 24 l 1
 947 24 l 1
 952 171 l 1
 805 36 644 -23 493 -23 c 0
 366 -23 286 47 194 165 c 1
 194 -185 l 1
EndSplineSet
EndChar

StartChar: multiply
Encoding: 215 215 225
Width: 677
VWidth: 0
Flags: HW
LayerCount: 2
Fore
SplineSet
-15 145 m 1
 -75 195 l 1
 264 542 l 1
 -75 890 l 1
 -15 940 l 1
 316 600 l 1
 647 940 l 1
 707 890 l 1
 368 542 l 1
 707 195 l 1
 647 145 l 1
 316 485 l 1
 -15 145 l 1
EndSplineSet
EndChar

StartChar: n
Encoding: 110 110 226
Width: 1226
VWidth: 0
Flags: W
PickledData: "(dp1
S'hhints'
p2
(dp3
sS'anchors'
p4
(tsS'com.typemytype.robofont.layerData'
p5
(dp6
S'b'
(dp7
S'name'
p8
S'n'
sS'lib'
p9
(dp10
sS'unicodes'
p11
(tsS'width'
p12
I1227
sS'contours'
p13
((dp14
S'points'
p15
((dp16
S'segmentType'
p17
S'line'
p18
sS'x'
I147
sS'smooth'
p19
I00
sS'y'
I0
s(dp20
g17
S'line'
p21
sS'x'
I147
sg19
I00
sS'y'
I1172
s(dp22
g17
S'line'
p23
sS'x'
I218
sg19
I00
sS'y'
I1172
s(dp24
g17
S'line'
p25
sS'x'
I236
sg19
I00
sS'y'
I973
s(dp26
S'y'
I1141
sS'x'
I380
sg19
I00
s(dp27
S'y'
I1185
sS'x'
I544
sg19
I00
s(dp28
g17
S'curve'
p29
sS'x'
I702
sg19
I01
sS'y'
I1185
s(dp30
S'y'
I1185
sS'x'
I1033
sg19
I00
s(dp31
S'y'
I956
sS'x'
I1090
sg19
I00
s(dp32
g17
S'curve'
p33
sS'x'
I1090
sg19
I01
sS'y'
I725
s(dp34
g17
S'line'
p35
sS'x'
I1090
sg19
I00
sS'y'
I0
s(dp36
g17
S'line'
p37
sS'x'
I992
sg19
I00
sS'y'
I0
s(dp38
g17
S'line'
p39
sS'x'
I992
sg19
I01
sS'y'
I716
s(dp40
S'y'
I932
sS'x'
I992
sg19
I00
s(dp41
S'y'
I1099
sS'x'
I956
sg19
I00
s(dp42
g17
S'curve'
p43
sS'x'
I689
sg19
I01
sS'y'
I1099
s(dp44
S'y'
I1099
sS'x'
I549
sg19
I00
s(dp45
S'y'
I1037
sS'x'
I380
sg19
I00
s(dp46
g17
S'curve'
p47
sS'x'
I245
sg19
I00
sS'y'
I893
s(dp48
g17
S'line'
p49
sS'x'
I245
sg19
I00
sS'y'
I0
stp50
stp51
sS'components'
p52
(tsg4
(tsssg11
(tsS'vhints'
p53
(dp54
sS'com.fontlab.hintData'
p55
(dp56
sg8
S'n'
sg12
I1227
sg13
(tsg52
(tsS'position'
p57
I988
sS'com.typemytype.robofont.guides'
p58
(ts."
HStem: 1108 80<495.279 860.178>
VStem: 147 71<1023.86 1172> 147 98<893 1041.14> 992 98<719 974.044>
LayerCount: 2
Fore
SplineSet
1090 0 m 1x90
 1090 728 l 2
 1090 959 1033 1188 702 1188 c 0
 504 1188 346 1102 197 939 c 1
 206 859 l 1
 345 1013 516 1108 686 1108 c 0
 949 1108 992 935 992 719 c 2
 992 0 l 1
 1090 0 l 1x90
EndSplineSet
Refer: 216 -1 N 1 0 0 1 0 0 2
EndChar

StartChar: nine
Encoding: 57 57 230
Width: 1218
VWidth: 0
Flags: HW
PickledData: "(dp1
S'position'
p2
I995
sS'vhints'
p3
(dp4
sS'hhints'
p5
(dp6
sS'com.fontlab.hintData'
p7
(dp8
sS'width'
p9
I98
s."
LayerCount: 2
Fore
SplineSet
551 509 m 0
 672 509 926 588 991 702 c 1
 994 724 995 737 995 747 c 0
 995 765 992 775 992 815 c 0
 993 1061 907 1303 609 1303 c 0
 375 1303 216 1113 216 899 c 0
 216 703 322 509 551 509 c 0
411 -103 m 1
 387 -22 l 1
 684 38 962 270 994 627 c 1
 907 485 757 429 594 429 c 0
 316 429 114 594 114 886 c 0
 114 1190 322 1382 621 1382 c 0
 973 1382 1093 1100 1093 787 c 0
 1093 374 905 14 411 -103 c 1
EndSplineSet
EndChar

StartChar: notequal
Encoding: 8800 8800 231
Width: 671
VWidth: 0
Flags: HW
PickledData: "(dp1
S'position'
p2
I151
sS'vhints'
p3
(dp4
sS'hhints'
p5
(dp6
sS'com.fontlab.hintData'
p7
(dp8
sS'width'
p9
I369
s."
LayerCount: 2
Fore
SplineSet
296 204 m 1
 236 236 l 1
 260 286 l 1
 151 286 l 1
 151 362 l 1
 286 362 l 1
 312 435 l 1
 151 435 l 1
 151 511 l 1
 340 511 l 1
 375 599 l 1
 433 568 l 1
 414 511 l 1
 520 511 l 1
 520 435 l 1
 388 435 l 1
 363 362 l 1
 520 362 l 1
 520 286 l 1
 336 286 l 1
 296 204 l 1
EndSplineSet
EndChar

StartChar: numbersign
Encoding: 35 35 233
Width: 941
VWidth: 0
Flags: HW
PickledData: "(dp1
S'position'
p2
I946
sS'hhints'
p3
(dp4
sS'com.fontlab.hintData'
p5
(dp6
sS'width'
p7
I110
s."
LayerCount: 2
Fore
SplineSet
363 739 m 1
 538 739 l 1
 562 946 l 1
 388 946 l 1
 363 739 l 1
244 453 m 1
 261 632 l 1
 92 632 l 1
 92 739 l 1
 267 739 l 1
 291 946 l 1
 135 946 l 1
 135 1056 l 1
 302 1056 l 1
 318 1254 l 1
 410 1254 l 1
 394 1056 l 1
 574 1056 l 1
 588 1251 l 1
 684 1251 l 1
 667 1056 l 1
 830 1056 l 1
 830 946 l 1
 659 946 l 1
 635 739 l 1
 795 739 l 1
 795 632 l 1
 626 632 l 1
 612 453 l 1
 518 453 l 1
 533 632 l 1
 355 632 l 1
 339 453 l 1
 244 453 l 1
EndSplineSet
EndChar

StartChar: o
Encoding: 111 111 234
Width: 1263
VWidth: 0
Flags: W
PickledData: "(dp1
S'hhints'
p2
(dp3
sS'anchors'
p4
(tsS'com.typemytype.robofont.layerData'
p5
(dp6
S'b'
(dp7
S'name'
p8
S'o'
sS'lib'
p9
(dp10
sS'unicodes'
p11
(tsS'width'
p12
I1264
sS'contours'
p13
(tsS'components'
p14
(tsg4
(tsssg11
(tsS'vhints'
p15
(dp16
sS'com.fontlab.hintData'
p17
(dp18
sg8
S'o'
sg12
I1264
sg13
(tsg14
(tsS'position'
p19
I1048
sS'com.typemytype.robofont.guides'
p20
((dp21
S'angle'
p22
F90
sg8
NsS'magnetic'
p23
I5
sS'isGlobal'
p24
I00
sS'y'
I1136
sS'x'
I632
stp25
s."
HStem: -16 80<450.801 814.024> 1108 80<450.605 814.196>
VStem: 118 98<325.417 839.977> 1048 98<318.957 846.501>
LayerCount: 2
Fore
SplineSet
632 -16 m 0
 987 -16 1146 266 1146 582 c 0
 1146 892 989 1188 632 1188 c 0
 275 1188 118 892 118 582 c 0
 118 266 277 -16 632 -16 c 0
632 64 m 0
 328 64 216 315 216 582 c 0
 216 804 303 1108 632 1108 c 0
 965 1108 1048 804 1048 582 c 0
 1048 315 940 64 632 64 c 0
EndSplineSet
EndChar

StartChar: oe
Encoding: 339 339 239
Width: 2041
VWidth: 0
Flags: HW
PickledData: "(dp1
S'position'
p2
I1842
sS'vhints'
p3
(dp4
sS'hhints'
p5
(dp6
sS'com.fontlab.hintData'
p7
(dp8
sS'width'
p9
I112
s."
LayerCount: 2
Fore
SplineSet
1152 685 m 1
 1842 685 l 1
 1842 732 l 1
 1842 739 l 2
 1842 918 1771 1109 1535 1109 c 0
 1260 1109 1178 905 1152 685 c 1
629 68 m 0
 966 68 1045 364 1045 581 c 0
 1045 796 965 1100 629 1100 c 0
 293 1100 212 796 212 581 c 0
 212 314 319 68 629 68 c 0
629 -17 m 0
 274 -17 120 276 120 582 c 0
 120 884 272 1187 629 1187 c 0
 862 1187 1014 1074 1097 908 c 1
 1173 1073 1314 1187 1530 1187 c 0
 1832 1187 1954 945 1954 681 c 0
 1954 623 1946 653 1937 596 c 1
 1140 596 l 1
 1140 327 1209 66 1529 66 c 0
 1641 66 1754 123 1840 212 c 1
 1900 115 l 1
 1814 42 1640 -17 1525 -17 c 0
 1302 -17 1164 92 1094 252 c 1
 1011 91 858 -17 629 -17 c 0
EndSplineSet
EndChar

StartChar: ogonek
Encoding: 731 731 240
Width: 470
VWidth: 0
Flags: HW
PickledData: "(dp1
S'position'
p2
I39
sS'vhints'
p3
(dp4
sS'hhints'
p5
(dp6
sS'com.fontlab.hintData'
p7
(dp8
sS'width'
p9
I129
s."
LayerCount: 2
Fore
SplineSet
317 -613 m 0
 81 -613 39 -541 39 -463 c 0
 39 -248 351 80 361 117 c 1
 472 117 l 1
 473 118 474 118 474 118 c 1
 474 109 168 -234 168 -419 c 0
 168 -477 197 -529 322 -529 c 0
 360 -529 468 -494 516 -479 c 1
 516 -575 l 1
 452 -592 386 -613 317 -613 c 0
EndSplineSet
EndChar

StartChar: one
Encoding: 49 49 244
Width: 509
VWidth: 0
Flags: HW
PickledData: "(dp1
S'position'
p2
I347
sS'vhints'
p3
(dp4
sS'hhints'
p5
(dp6
sS'com.fontlab.hintData'
p7
(dp8
sS'width'
p9
I101
s."
LayerCount: 2
Fore
SplineSet
347 0 m 1
 347 1145 l 1
 113 1028 l 1
 82 1094 l 1
 333 1219 l 1
 448 1219 l 1
 448 0 l 1
 347 0 l 1
EndSplineSet
EndChar

StartChar: onehalf
Encoding: 189 189 245
Width: 1395
VWidth: 0
Flags: HW
PickledData: "(dp1
S'position'
p2
I1307
sS'vhints'
p3
(dp4
sS'hhints'
p5
(dp6
sS'com.fontlab.hintData'
p7
(dp8
sS'width'
p9
I122
s."
LayerCount: 2
Fore
SplineSet
-142 -132 m 1
 -209 -31 l 1
 1009 1271 l 1
 1075 1172 l 1
 -142 -132 l 1
104 652 m 1
 104 1567 l 1
 -90 1486 l 1
 -108 1527 l 1
 104 1613 l 1
 209 1594 l 1
 209 652 l 1
 104 652 l 1
787 -316 m 1
 787 -198 l 1
 882 -111 1307 222 1307 401 c 0
 1307 522 1175 556 1083 556 c 0
 981 556 892 543 786 521 c 1
 825 641 l 1
 880 661 935 665 988 665 c 0
 1027 665 1065 663 1101 663 c 0
 1271 663 1429 571 1429 385 c 0
 1428 125 1063 -69 951 -197 c 1
 1399 -197 l 1
 1399 -316 l 1
 787 -316 l 1
EndSplineSet
EndChar

StartChar: onequarter
Encoding: 188 188 246
Width: 1155
VWidth: 0
Flags: HW
PickledData: "(dp1
S'position'
p2
I1002
sS'vhints'
p3
(dp4
sS'hhints'
p5
(dp6
sS'com.fontlab.hintData'
p7
(dp8
sS'width'
p9
I92
s."
LayerCount: 2
Fore
SplineSet
501 60 m 1
 1002 60 l 1
 1002 760 l 1
 837 525 670 291 501 60 c 1
-142 -132 m 1
 -209 -31 l 1
 1009 1271 l 1
 1075 1172 l 1
 -142 -132 l 1
104 652 m 1
 104 1567 l 1
 -90 1486 l 1
 -108 1527 l 1
 104 1613 l 1
 209 1594 l 1
 209 652 l 1
 104 652 l 1
1002 -317 m 1
 1002 1 l 1
 436 1 l 1
 420 83 l 1
 1008 905 l 1
 1094 886 l 1
 1094 60 l 1
 1252 60 l 1
 1252 1 l 1
 1094 1 l 1
 1094 -282 l 1
 1002 -317 l 1
EndSplineSet
EndChar

StartChar: oslash
Encoding: 248 248 247
Width: 1089
VWidth: 0
Flags: HW
PickledData: "(dp1
S'position'
p2
I942
sS'vhints'
p3
(dp4
sS'hhints'
p5
(dp6
sS'com.fontlab.hintData'
p7
(dp8
sS'width'
p9
I95
s."
LayerCount: 2
Fore
SplineSet
526 68 m 0
 863 68 942 364 942 581 c 0
 942 734 908 952 732 1059 c 1
 396 84 l 1
 439 71 484 68 526 68 c 0
320 108 m 1
 660 1080 l 1
 616 1095 569 1100 526 1100 c 0
 190 1100 109 796 109 581 c 0
 109 408 149 205 320 108 c 1
295 -209 m 1
 217 -182 l 1
 292 35 l 1
 74 150 17 391 17 582 c 0
 17 884 168 1187 526 1187 c 0
 580 1187 637 1180 691 1163 c 1
 762 1366 l 1
 830 1339 l 1
 759 1134 l 1
 976 1013 1037 777 1037 582 c 0
 1037 273 884 -17 526 -17 c 0
 475 -17 421 -11 368 5 c 1
 295 -209 l 1
EndSplineSet
EndChar

StartChar: p
Encoding: 112 112 249
Width: 1229
VWidth: 0
Flags: HW
PickledData: "(dp1
S'hhints'
p2
(dp3
sS'anchors'
p4
(tsS'com.typemytype.robofont.layerData'
p5
(dp6
S'b'
(dp7
S'name'
p8
S'p'
sS'lib'
p9
(dp10
sS'unicodes'
p11
(tsS'width'
p12
I1230
sS'contours'
p13
((dp14
S'points'
p15
((dp16
S'segmentType'
p17
S'curve'
p18
sS'x'
F248
sS'smooth'
p19
I00
sS'y'
F984
s(dp20
S'y'
F1088
sS'x'
F316
sg19
I00
s(dp21
S'y'
F1184
sS'x'
F440
sg19
I00
s(dp22
g17
S'curve'
p23
sS'x'
F622
sg19
I01
sS'y'
F1184
s(dp24
S'y'
F1184
sS'x'
F965
sg19
I00
s(dp25
S'y'
F895
sS'x'
F1112
sg19
I00
s(dp26
g17
S'curve'
p27
sS'x'
F1112
sg19
I01
sS'y'
F587
s(dp28
S'y'
F315
sS'x'
F1112
sg19
I00
s(dp29
S'y'
F-14
sS'x'
F976
sg19
I00
s(dp30
g17
S'curve'
p31
sS'x'
F616
sg19
I01
sS'y'
F-14
s(dp32
S'y'
F-14
sS'x'
F432
sg19
I00
s(dp33
S'y'
F58
sS'x'
F327
sg19
I00
s(dp34
g17
S'curve'
p35
sS'x'
F257
sg19
I00
sS'y'
F152
s(dp36
S'y'
F152
sS'x'
F257
sg19
I00
s(dp37
S'y'
F254
sS'x'
F257
sg19
I00
s(dp38
g17
S'curve'
p39
sS'x'
F257
sg19
I00
sS'y'
F254
s(dp40
S'y'
F151
sS'x'
F318
sg19
I00
s(dp41
S'y'
F68
sS'x'
F436
sg19
I00
s(dp42
g17
S'curve'
p43
sS'x'
F609
sg19
I01
sS'y'
F68
s(dp44
S'y'
F68
sS'x'
F928
sg19
I00
s(dp45
S'y'
F374
sS'x'
F1015
sg19
I00
s(dp46
g17
S'curve'
p47
sS'x'
F1015
sg19
I01
sS'y'
F579
s(dp48
S'y'
F796
sS'x'
F1015
sg19
I00
s(dp49
S'y'
F1101
sS'x'
F945
sg19
I00
s(dp50
g17
S'curve'
p51
sS'x'
F624
sg19
I01
sS'y'
F1101
s(dp52
S'y'
F1101
sS'x'
F448
sg19
I00
s(dp53
S'y'
F1031
sS'x'
F350
sg19
I00
s(dp54
g17
S'curve'
p55
sS'x'
F257
sg19
I00
sS'y'
F906
s(dp56
S'y'
F906
sS'x'
F257
sg19
I00
s(dp57
S'y'
F984
sS'x'
F248
sg19
I00
stp58
stp59
sS'components'
p60
(tsg4
(tsssg11
(tsS'vhints'
p61
(dp62
sS'com.fontlab.hintData'
p63
(dp64
sg12
I1206
sg13
(tsg60
(tsS'position'
p65
I992
sg8
S'p'
s."
LayerCount: 2
Fore
SplineSet
208 928 m 1
 279 1078 432 1184 622 1184 c 0
 965 1184 1112 897 1112 589 c 0
 1112 303 976 -14 616 -14 c 0
 372 -14 264 119 216 203 c 1
 216 311 l 1
 278 204 386 68 609 68 c 0
 928 68 1015 351 1015 581 c 0
 1015 798 945 1101 624 1101 c 0
 428 1101 319 1007 217 850 c 1
 208 928 l 1
257 -468 m 1
 161 -489 l 1
 161 1172 l 1
 237 1172 l 1
 257 924 l 1
 257 -468 l 1
EndSplineSet
EndChar

StartChar: paragraph
Encoding: 182 182 250
Width: 936
VWidth: 0
Flags: HW
PickledData: "(dp1
S'position'
p2
I646
sS'vhints'
p3
(dp4
sS'hhints'
p5
(dp6
sS'com.fontlab.hintData'
p7
(dp8
sS'width'
p9
I149
s."
LayerCount: 2
Fore
SplineSet
358 0 m 1
 358 1009 l 1
 163 1009 -93 1058 -93 1301 c 0
 -93 1566 191 1579 404 1579 c 2
 795 1579 l 1
 795 0 l 1
 646 0 l 1
 646 1428 l 1
 511 1428 l 1
 511 0 l 1
 358 0 l 1
EndSplineSet
EndChar

StartChar: parenleft
Encoding: 40 40 251
Width: 273
VWidth: 0
Flags: HW
PickledData: "(dp1
S'position'
p2
I-65
sS'vhints'
p3
(dp4
sS'com.fontlab.hintData'
p5
(dp6
sS'width'
p7
I115
s."
LayerCount: 2
Fore
SplineSet
287 -151 m 1
 6 12 -65 473 -65 705 c 0
 -65 939 7 1366 271 1550 c 1
 356 1506 l 1
 125 1309 50 941 50 702 c 0
 50 502 107 58 329 -99 c 1
 287 -151 l 1
EndSplineSet
EndChar

StartChar: parenright
Encoding: 41 41 252
Width: 276
VWidth: 0
Flags: HW
PickledData: "(dp1
S'position'
p2
I234
sS'vhints'
p3
(dp4
sS'com.fontlab.hintData'
p5
(dp6
sS'width'
p7
I116
s."
LayerCount: 2
Fore
SplineSet
-4 -151 m 1
 -72 -102 l 1
 155 86 234 463 234 694 c 0
 234 907 179 1329 -44 1503 c 1
 -1 1556 l 1
 274 1376 350 962 350 719 c 0
 350 452 292 47 -4 -151 c 1
EndSplineSet
EndChar

StartChar: percent
Encoding: 37 37 253
Width: 1397
VWidth: 0
Flags: HW
PickledData: "(dp1
S'position'
p2
I1324
sS'vhints'
p3
(dp4
sS'hhints'
p5
(dp6
sS'com.fontlab.hintData'
p7
(dp8
sS'width'
p9
I74
s."
LayerCount: 2
Fore
SplineSet
1121 -32 m 2
 941 -32 835 123 835 347 c 2
 835 375 l 2
 835 511 845 757 1125 757 c 0
 1336 757 1398 565 1398 335 c 0
 1398 130 1298 -32 1124 -32 c 2
 1121 -32 l 2
1121 26 m 0
 1320 26 1324 259 1324 368 c 0
 1324 466 1317 705 1121 705 c 0
 925 705 915 475 915 368 c 2
 915 359 l 2
 915 256 918 26 1121 26 c 0
435 24 m 1
 353 72 l 1
 989 1402 l 1
 1066 1343 l 1
 435 24 l 1
288 660 m 0
 108 660 3 816 3 1039 c 2
 3 1067 l 2
 3 1203 13 1450 293 1450 c 0
 503 1450 565 1261 565 1028 c 0
 565 815 461 660 288 660 c 0
288 719 m 0
 488 719 491 951 491 1061 c 0
 491 1159 486 1397 288 1397 c 0
 94 1397 83 1168 83 1061 c 2
 83 1055 l 2
 83 954 85 719 288 719 c 0
EndSplineSet
EndChar

StartChar: period
Encoding: 46 46 254
Width: 393
VWidth: 0
Flags: HW
PickledData: "(dp1
S'position'
p2
I129
sS'vhints'
p3
(dp4
sS'hhints'
p5
(dp6
sS'com.fontlab.hintData'
p7
(dp8
sS'width'
p9
I129
s."
LayerCount: 2
Fore
SplineSet
197 -26 m 0
 159 -26 129 7 129 47 c 0
 129 83 159 119 197 119 c 0
 239 119 258 83 258 47 c 0
 258 10 239 -26 197 -26 c 0
EndSplineSet
EndChar

StartChar: periodcentered
Encoding: 183 183 255
Width: 198
VWidth: 0
Flags: HW
PickledData: "(dp1
S'position'
p2
I41
sS'vhints'
p3
(dp4
sS'hhints'
p5
(dp6
sS'com.fontlab.hintData'
p7
(dp8
sS'width'
p9
I130
s."
LayerCount: 2
Fore
SplineSet
110 480 m 0
 71 480 41 513 41 552 c 0
 41 589 71 625 110 625 c 0
 152 625 171 589 171 552 c 0
 171 516 151 480 110 480 c 0
EndSplineSet
EndChar

StartChar: plus
Encoding: 43 43 256
Width: 972
VWidth: 0
Flags: HW
PickledData: "(dp1
S'position'
p2
I452
sS'vhints'
p3
(dp4
sS'hhints'
p5
(dp6
sS'com.fontlab.hintData'
p7
(dp8
sS'width'
p9
I62
s."
LayerCount: 2
Fore
SplineSet
452 215 m 1
 452 554 l 1
 120 554 l 1
 120 622 l 1
 452 622 l 1
 452 962 l 1
 514 962 l 1
 514 622 l 1
 847 622 l 1
 847 554 l 1
 514 554 l 1
 514 215 l 1
 452 215 l 1
EndSplineSet
EndChar

StartChar: plusminus
Encoding: 177 177 257
Width: 700
VWidth: 0
Flags: HW
PickledData: "(dp1
S'position'
p2
I315
sS'vhints'
p3
(dp4
sS'hhints'
p5
(dp6
sS'com.fontlab.hintData'
p7
(dp8
sS'width'
p9
I62
s."
LayerCount: 2
Fore
SplineSet
21 -84 m 1
 21 5 l 1
 672 5 l 1
 672 -84 l 1
 21 -84 l 1
315 44 m 1
 315 383 l 1
 -18 383 l 1
 -18 454 l 1
 315 454 l 1
 315 795 l 1
 377 795 l 1
 377 454 l 1
 710 454 l 1
 710 383 l 1
 377 383 l 1
 377 44 l 1
 315 44 l 1
EndSplineSet
EndChar

StartChar: q
Encoding: 113 113 258
Width: 1207
VWidth: 0
Flags: HW
PickledData: "(dp1
S'hhints'
p2
(dp3
sS'name'
p4
S'q'
sS'unicodes'
p5
(tsS'vhints'
p6
(dp7
sS'com.fontlab.hintData'
p8
(dp9
sS'width'
p10
I1208
sS'contours'
p11
(tsS'components'
p12
(tsS'position'
p13
I1031
sS'anchors'
p14
(ts."
LayerCount: 2
Fore
SplineSet
589 68 m 0
 722 68 896 150 980 237 c 1
 980 923 l 1
 885 998 682 1094 544 1094 c 0
 258 1094 207 770 207 575 c 0
 207 341 314 68 589 68 c 0
980 -553 m 1
 980 170 l 1
 895 58 738 -17 579 -17 c 0
 243 -17 115 300 115 594 c 0
 115 831 215 1187 565 1187 c 0
 735 1187 912 1065 1000 959 c 1
 1031 1172 l 1
 1084 1172 l 1
 1084 -518 l 1
 980 -553 l 1
EndSplineSet
EndChar

StartChar: question
Encoding: 63 63 259
Width: 911
VWidth: 0
Flags: HW
PickledData: "(dp1
S'position'
p2
I754
sS'vhints'
p3
(dp4
sS'hhints'
p5
(dp6
sS'com.fontlab.hintData'
p7
(dp8
sS'width'
p9
I112
s."
LayerCount: 2
Fore
SplineSet
228 -24 m 0
 194 -24 169 10 169 41 c 0
 169 69 209 89 234 89 c 0
 260 89 288 56 288 31 c 0
 288 2 257 -24 228 -24 c 0
198 223 m 1
 198 749 l 1
 395 812 754 943 754 1232 c 0
 754 1456 591 1491 410 1491 c 0
 308 1491 224 1482 87 1397 c 1
 40 1481 l 1
 144 1545 322 1592 424 1592 c 0
 628 1592 866 1529 866 1253 c 0
 866 804 450 739 302 665 c 1
 302 223 l 1
 198 223 l 1
EndSplineSet
EndChar

StartChar: questiondown
Encoding: 191 191 260
Width: 702
VWidth: 0
Flags: HW
PickledData: "(dp1
S'position'
p2
I548
sS'vhints'
p3
(dp4
sS'hhints'
p5
(dp6
sS'com.fontlab.hintData'
p7
(dp8
sS'width'
p9
I119
s."
LayerCount: 2
Fore
SplineSet
602 1384 m 0
 575 1384 548 1417 548 1442 c 0
 548 1470 579 1497 608 1497 c 0
 642 1497 667 1464 667 1433 c 0
 667 1403 626 1384 602 1384 c 0
412 -119 m 0
 206 -119 -31 -52 -31 230 c 0
 -31 681 384 728 533 798 c 1
 533 1250 l 1
 638 1250 l 1
 638 724 l 1
 435 660 82 524 82 241 c 0
 82 14 243 -18 425 -18 c 0
 526 -18 612 -9 748 76 c 1
 796 -8 l 1
 696 -75 510 -119 412 -119 c 0
EndSplineSet
EndChar

StartChar: quotedbl
Encoding: 34 34 261
Width: 572
VWidth: 0
Flags: HW
PickledData: "(dp1
S'position'
p2
I335
sS'vhints'
p3
(dp4
sS'hhints'
p5
(dp6
sS'com.fontlab.hintData'
p7
(dp8
sS'width'
p9
I161
s."
LayerCount: 2
Fore
SplineSet
460 1194 m 1
 390 1194 l 1
 336 1487 l 2
 335 1495 335 1502 335 1510 c 0
 335 1533 338 1554 338 1580 c 1
 493 1580 l 1
 493 1554 496 1526 496 1504 c 0
 496 1489 466 1252 460 1194 c 1
460 1194 m 1
 460 1194 l 1
235 1499 m 2
 235 1495 203 1233 199 1194 c 1
 124 1194 l 1
 74 1493 l 2
 73 1500 73 1507 73 1513 c 0
 73 1535 77 1554 77 1580 c 1
 232 1580 l 1
 232 1554 235 1526 235 1506 c 2
 235 1499 l 2
199 1194 m 1
 199 1194 l 1
EndSplineSet
EndChar

StartChar: quotedblbase
Encoding: 8222 8222 262
Width: 758
VWidth: 0
Flags: HW
PickledData: "(dp1
S'position'
p2
I510
sS'vhints'
p3
(dp4
sS'hhints'
p5
(dp6
sS'com.fontlab.hintData'
p7
(dp8
sS'width'
p9
I101
s."
LayerCount: 2
Fore
SplineSet
450 -253 m 1
 405 -170 l 1
 467 -150 511 -120 510 -29 c 1
 404 -29 l 1
 404 198 l 1
 611 198 l 1
 611 10 l 2
 611 -98 584 -216 450 -253 c 1
164 -253 m 1
 119 -170 l 1
 181 -150 225 -120 224 -29 c 1
 118 -29 l 1
 118 198 l 1
 325 198 l 1
 325 10 l 2
 325 -98 298 -216 164 -253 c 1
EndSplineSet
EndChar

StartChar: quotedblleft
Encoding: 8220 8220 263
Width: 740
VWidth: 0
Flags: HW
PickledData: "(dp1
S'position'
p2
I419
sS'vhints'
p3
(dp4
sS'hhints'
p5
(dp6
sS'com.fontlab.hintData'
p7
(dp8
sS'width'
p9
I102
s."
LayerCount: 2
Fore
SplineSet
419 1174 m 1
 419 1362 l 2
 419 1471 446 1588 580 1626 c 1
 625 1542 l 1
 562 1523 521 1496 521 1408 c 2
 521 1402 l 1
 626 1402 l 1
 626 1174 l 1
 419 1174 l 1
133 1174 m 1
 133 1362 l 2
 133 1471 160 1588 294 1626 c 1
 339 1542 l 1
 276 1523 235 1496 235 1408 c 2
 235 1402 l 1
 340 1402 l 1
 340 1174 l 1
 133 1174 l 1
EndSplineSet
EndChar

StartChar: quotedblright
Encoding: 8221 8221 264
Width: 831
VWidth: 0
Flags: HW
PickledData: "(dp1
S'position'
p2
I546
sS'vhints'
p3
(dp4
sS'hhints'
p5
(dp6
sS'com.fontlab.hintData'
p7
(dp8
sS'width'
p9
I102
s."
LayerCount: 2
Fore
SplineSet
486 1128 m 1
 441 1211 l 1
 503 1231 546 1260 546 1346 c 2
 546 1352 l 1
 440 1352 l 1
 440 1580 l 1
 648 1580 l 1
 648 1391 l 2
 648 1281 617 1165 486 1128 c 1
200 1128 m 1
 155 1211 l 1
 217 1231 260 1260 260 1346 c 2
 260 1352 l 1
 154 1352 l 1
 154 1580 l 1
 362 1580 l 1
 362 1391 l 2
 362 1281 331 1165 200 1128 c 1
EndSplineSet
EndChar

StartChar: quoteleft
Encoding: 8216 8216 265
Width: 442
VWidth: 0
Flags: HW
PickledData: "(dp1
S'position'
p2
I122
sS'vhints'
p3
(dp4
sS'hhints'
p5
(dp6
sS'com.fontlab.hintData'
p7
(dp8
sS'width'
p9
I102
s."
LayerCount: 2
Fore
SplineSet
122 1128 m 1
 122 1316 l 2
 122 1425 149 1542 284 1580 c 1
 329 1496 l 1
 267 1477 224 1448 224 1361 c 2
 224 1355 l 1
 330 1355 l 1
 330 1128 l 1
 122 1128 l 1
EndSplineSet
EndChar

StartChar: quoteright
Encoding: 8217 8217 266
Width: 512
VWidth: 0
Flags: HW
PickledData: "(dp1
S'position'
p2
I260
sS'vhints'
p3
(dp4
sS'hhints'
p5
(dp6
sS'com.fontlab.hintData'
p7
(dp8
sS'width'
p9
I102
s."
LayerCount: 2
Fore
SplineSet
200 1128 m 1
 155 1211 l 1
 217 1231 260 1260 260 1346 c 2
 260 1352 l 1
 154 1352 l 1
 154 1580 l 1
 362 1580 l 1
 362 1391 l 2
 362 1281 331 1165 200 1128 c 1
EndSplineSet
EndChar

StartChar: quotesinglbase
Encoding: 8218 8218 267
Width: 441
VWidth: 0
Flags: HW
PickledData: "(dp1
S'position'
p2
I217
sS'vhints'
p3
(dp4
sS'hhints'
p5
(dp6
sS'com.fontlab.hintData'
p7
(dp8
sS'width'
p9
I101
s."
LayerCount: 2
Fore
SplineSet
157 -224 m 1
 112 -141 l 1
 174 -121 218 -91 217 0 c 1
 111 0 l 1
 111 228 l 1
 318 228 l 1
 318 39 l 2
 318 -69 291 -186 157 -224 c 1
EndSplineSet
EndChar

StartChar: quotesingle
Encoding: 39 39 268
Width: 171
VWidth: 0
Flags: HW
PickledData: "(dp1
S'position'
p2
I6
sS'vhints'
p3
(dp4
sS'hhints'
p5
(dp6
sS'com.fontlab.hintData'
p7
(dp8
sS'width'
p9
I157
s."
LayerCount: 2
Fore
SplineSet
162 1493 m 1
 163 1499 163 1500 163 1500 c 2
 163 1493 131 1233 127 1194 c 1
 57 1194 l 1
 8 1490 l 2
 7 1498 6 1506 6 1514 c 0
 6 1535 10 1555 10 1580 c 1
 160 1580 l 1
 160 1554 163 1527 163 1507 c 0
 163 1502 163 1497 162 1493 c 1
127 1194 m 1
 127 1194 l 1
EndSplineSet
EndChar

StartChar: r
Encoding: 114 114 269
Width: 704
VWidth: 0
Flags: HW
PickledData: "(dp1
S'hhints'
p2
(dp3
sS'anchors'
p4
(tsS'com.typemytype.robofont.layerData'
p5
(dp6
S'b'
(dp7
S'name'
p8
S'r'
sS'lib'
p9
(dp10
sS'unicodes'
p11
(tsS'width'
p12
I705
sS'contours'
p13
(tsS'components'
p14
(tsg4
(tsssg11
(tsS'vhints'
p15
(dp16
sS'com.fontlab.hintData'
p17
(dp18
sg12
I708
sg13
(tsg14
(tsS'position'
p19
I132
sg8
S'r'
s."
LayerCount: 2
Fore
SplineSet
196 924 m 1
 307 1115 514 1189 652 1189 c 1
 652 1099 l 1
 480 1099 320 1003 205 853 c 1
 196 924 l 1
EndSplineSet
Refer: 216 -1 N 1 0 0 1 0 0 2
EndChar

StartChar: registered
Encoding: 174 174 273
Width: 1161
VWidth: 0
Flags: HW
PickledData: "(dp1
S'position'
p2
I1036
sS'vhints'
p3
(dp4
sS'hhints'
p5
(dp6
sS'com.fontlab.hintData'
p7
(dp8
sS'width'
p9
I87
s."
LayerCount: 2
Fore
SplineSet
508 1207 m 1
 556 1207 l 2
 623 1207 707 1216 707 1318 c 0
 707 1376 619 1385 560 1385 c 0
 530 1385 508 1383 508 1383 c 1
 508 1207 l 1
579 649 m 0
 288 649 35 864 35 1171 c 0
 35 1485 304 1693 579 1693 c 0
 869 1693 1123 1475 1123 1171 c 0
 1123 856 860 649 579 649 c 0
578 728 m 0
 821 728 1036 908 1036 1169 c 0
 1036 1430 823 1610 578 1610 c 0
 331 1610 123 1428 123 1168 c 0
 123 906 332 728 578 728 c 0
721 866 m 1
 552 1141 l 1
 507 1141 l 1
 507 886 l 1
 414 886 l 1
 414 1450 l 1
 526 1450 l 1
 528 1450 l 2
 574 1450 796 1449 796 1323 c 0
 796 1202 722 1175 629 1155 c 1
 806 910 l 1
 754 890 770 892 721 866 c 1
EndSplineSet
EndChar

StartChar: ring
Encoding: 730 730 274
Width: 369
VWidth: 0
Flags: HW
PickledData: "(dp1
S'position'
p2
I309
sS'vhints'
p3
(dp4
sS'hhints'
p5
(dp6
sS'com.fontlab.hintData'
p7
(dp8
sS'width'
p9
I50
s."
LayerCount: 2
Fore
SplineSet
198 335 m 0
 88 335 13 404 13 517 c 0
 13 629 78 707 192 707 c 0
 298 707 359 625 359 522 c 0
 359 420 307 335 198 335 c 0
189 386 m 0
 266 386 309 448 309 520 c 0
 309 591 267 654 189 654 c 0
 116 654 63 593 63 520 c 0
 63 451 117 386 189 386 c 0
EndSplineSet
EndChar

StartChar: s
Encoding: 115 115 275
Width: 942
VWidth: 0
Flags: HW
PickledData: "(dp1
S'hhints'
p2
(dp3
sS'anchors'
p4
(tsS'com.typemytype.robofont.layerData'
p5
(dp6
S'b'
(dp7
S'name'
p8
S's'
sS'lib'
p9
(dp10
sS'unicodes'
p11
(tsS'width'
p12
I943
sS'contours'
p13
((dp14
S'points'
p15
((dp16
S'segmentType'
p17
S'curve'
p18
sS'x'
I455
sS'smooth'
p19
I01
sS'y'
I-17
s(dp20
S'y'
I-17
sS'x'
I669
sg19
I00
s(dp21
S'y'
I75
sS'x'
I858
sg19
I00
s(dp22
g17
S'curve'
p23
sS'x'
I858
sg19
I01
sS'y'
I308
s(dp24
S'y'
I538
sS'x'
I858
sg19
I00
s(dp25
S'y'
I627
sS'x'
I676
sg19
I00
s(dp26
g17
S'curve'
p27
sS'x'
I542
sg19
I00
sS'y'
I667
s(dp28
S'y'
I692
sS'x'
I471
sg19
I00
s(dp29
S'y'
I669
sS'x'
I506
sg19
I00
s(dp30
g17
S'curve'
p31
sS'x'
I440
sg19
I01
sS'y'
I692
s(dp32
S'y'
I739
sS'x'
I303
sg19
I00
s(dp33
S'y'
I807
sS'x'
I183
sg19
I00
s(dp34
g17
S'curve'
p35
sS'x'
I183
sg19
I01
sS'y'
I909
s(dp36
S'y'
I1080
sS'x'
I184
sg19
I00
s(dp37
S'y'
I1105
sS'x'
I372
sg19
I00
s(dp38
g17
S'curve'
p39
sS'x'
I467
sg19
I01
sS'y'
I1105
s(dp40
S'y'
I1105
sS'x'
I594
sg19
I00
s(dp41
S'y'
I1063
sS'x'
I659
sg19
I00
s(dp42
g17
S'curve'
p43
sS'x'
I741
sg19
I00
sS'y'
I985
s(dp44
g17
S'line'
p45
sS'x'
I791
sg19
I00
sS'y'
I1066
s(dp46
S'y'
I1151
sS'x'
I709
sg19
I00
s(dp47
S'y'
I1187
sS'x'
I568
sg19
I00
s(dp48
g17
S'curve'
p49
sS'x'
I448
sg19
I01
sS'y'
I1187
s(dp50
S'y'
I1187
sS'x'
I312
sg19
I00
s(dp51
S'y'
I1116
sS'x'
I103
sg19
I00
s(dp52
g17
S'curve'
p53
sS'x'
I103
sg19
I01
sS'y'
I884
s(dp54
S'y'
I719
sS'x'
I103
sg19
I00
s(dp55
S'y'
I638
sS'x'
I256
sg19
I00
s(dp56
g17
S'curve'
p57
sS'x'
I404
sg19
I00
sS'y'
I590
s(dp58
S'y'
I565
sS'x'
I474
sg19
I00
s(dp59
S'y'
I588
sS'x'
I439
sg19
I00
s(dp60
g17
S'curve'
p61
sS'x'
I508
sg19
I00
sS'y'
I563
s(dp62
S'y'
I517
sS'x'
I653
sg19
I00
s(dp63
S'y'
I458
sS'x'
I774
sg19
I00
s(dp64
g17
S'curve'
p65
sS'x'
I774
sg19
I01
sS'y'
I304
s(dp66
S'y'
I104
sS'x'
I774
sg19
I00
s(dp67
S'y'
I69
sS'x'
I598
sg19
I00
s(dp68
g17
S'curve'
p69
sS'x'
I477
sg19
I01
sS'y'
I69
s(dp70
S'y'
I69
sS'x'
I369
sg19
I00
s(dp71
S'y'
I126
sS'x'
I265
sg19
I00
s(dp72
g17
S'curve'
p73
sS'x'
I177
sg19
I00
sS'y'
I199
s(dp74
g17
S'line'
p75
sS'x'
I128
sg19
I00
sS'y'
I110
s(dp76
S'y'
I43
sS'x'
I193
sg19
I00
s(dp77
S'y'
I-17
sS'x'
I387
sg19
I00
stp78
stp79
sS'components'
p80
(tsg4
(tsssg11
(tsS'vhints'
p81
(dp82
sS'com.fontlab.hintData'
p83
(dp84
sg12
I912
sg13
(tsg80
(tsS'position'
p85
I752
sg8
S's'
s."
LayerCount: 2
Fore
SplineSet
467 -16 m 0
 681 -16 862 74 862 307 c 0
 862 537 705 600 573 642 c 2
 437 685 l 2
 300 728 193 757 193 889 c 0
 193 1060 333 1108 454 1108 c 0
 581 1108 690 1076 772 1012 c 1
 811 1078 l 1
 729 1148 588 1188 448 1188 c 0
 292 1188 100 1118 100 886 c 0
 100 691 264 645 411 600 c 2
 552 557 l 2
 695 513 769 456 769 302 c 0
 769 102 606 64 485 64 c 0
 347 64 255 106 167 179 c 1
 128 110 l 1
 193 43 339 -16 467 -16 c 0
EndSplineSet
EndChar

StartChar: section
Encoding: 167 167 281
Width: 816
VWidth: 0
Flags: HW
PickledData: "(dp1
S'position'
p2
I684
sS'vhints'
p3
(dp4
sS'hhints'
p5
(dp6
sS'com.fontlab.hintData'
p7
(dp8
sS'width'
p9
I115
s."
LayerCount: 2
Fore
SplineSet
426 574 m 0
 512 574 691 593 691 753 c 0
 691 933 507 935 425 935 c 0
 351 935 163 933 163 755 c 0
 163 591 336 574 426 574 c 0
411 -88 m 0
 338 -88 156 -53 80 8 c 1
 123 104 l 1
 196 39 326 8 399 8 c 0
 499 8 684 35 684 209 c 0
 684 356 539 406 404 447 c 0
 365 458 412 441 372 453 c 1
 272 480 63 536 63 773 c 0
 63 949 240 988 354 990 c 1
 196 1052 63 1102 63 1291 c 0
 63 1527 317 1564 414 1564 c 0
 444 1564 658 1546 742 1468 c 1
 703 1367 l 1
 609 1439 538 1469 423 1469 c 2
 417 1469 l 2
 353 1469 165 1466 165 1296 c 0
 165 1167 337 1123 480 1079 c 0
 503 1072 797 1014 797 748 c 0
 797 602 651 531 529 531 c 2
 514 531 l 1
 668 483 799 417 799 215 c 0
 799 5 605 -88 411 -88 c 0
EndSplineSet
EndChar

StartChar: semicolon
Encoding: 59 59 282
Width: 419
VWidth: 0
Flags: HW
PickledData: "(dp1
S'hhints'
p2
(dp3
sS'name'
p4
S'semicolon'
p5
sS'unicodes'
p6
(tsS'vhints'
p7
(dp8
sS'com.fontlab.hintData'
p9
(dp10
sS'width'
p11
I420
sS'contours'
p12
(tsS'components'
p13
(tsS'position'
p14
I197
sS'anchors'
p15
(ts."
LayerCount: 2
Fore
SplineSet
94 501 m 1
 94 703 l 1
 302 703 l 1
 302 501 l 1
 94 501 l 1
138 -224 m 1
 93 -141 l 1
 154 -121 197 -92 197 -6 c 2
 197 0 l 1
 92 0 l 1
 92 228 l 1
 301 228 l 1
 301 39 l 2
 301 -69 272 -186 138 -224 c 1
EndSplineSet
EndChar

StartChar: seven
Encoding: 55 55 283
Width: 1107
VWidth: 0
Flags: HW
PickledData: "(dp1
S'position'
p2
I1161
sS'hhints'
p3
(dp4
sS'com.fontlab.hintData'
p5
(dp6
sS'width'
p7
I100
s."
LayerCount: 2
Fore
SplineSet
402 -144 m 1
 303 -98 l 1
 848 1161 l 1
 108 1161 l 1
 108 1261 l 1
 922 1261 l 1
 966 1170 l 1
 402 -144 l 1
EndSplineSet
EndChar

StartChar: six
Encoding: 54 54 284
Width: 1217
VWidth: 0
Flags: HW
PickledData: "(dp1
S'position'
p2
I983
sS'vhints'
p3
(dp4
sS'hhints'
p5
(dp6
sS'com.fontlab.hintData'
p7
(dp8
sS'width'
p9
I102
s."
LayerCount: 2
Fore
SplineSet
586 -107 m 0
 823 -107 983 59 983 282 c 0
 983 495 864 676 634 676 c 0
 527 676 283 606 213 521 c 1
 203 460 203 434 203 371 c 2
 203 363 l 2
 203 129 292 -107 586 -107 c 0
585 -186 m 0
 230 -186 105 73 105 408 c 0
 105 831 343 1198 788 1298 c 1
 811 1217 l 1
 502 1151 213 907 179 536 c 1
 286 689 452 750 630 750 c 0
 895 750 1085 593 1085 308 c 0
 1085 4 870 -186 585 -186 c 0
EndSplineSet
EndChar

StartChar: slash
Encoding: 47 47 285
Width: 625
VWidth: 0
Flags: HW
LayerCount: 2
Fore
SplineSet
17 -196 m 1
 -96 -148 l 1
 558 1765 l 1
 667 1718 l 1
 17 -196 l 1
EndSplineSet
EndChar

StartChar: sterling
Encoding: 163 163 287
Width: 904
VWidth: 0
Flags: HW
PickledData: "(dp1
S'position'
p2
I218
sS'vhints'
p3
(dp4
sS'hhints'
p5
(dp6
sS'com.fontlab.hintData'
p7
(dp8
sS'width'
p9
I92
s."
LayerCount: 2
Fore
SplineSet
76 0 m 1
 76 54 l 1
 210 203 218 419 218 565 c 2
 218 619 l 1
 -17 620 l 1
 -17 701 l 1
 192 701 l 1
 94 780 76 908 76 956 c 0
 76 1167 276 1322 429 1322 c 2
 479 1322 l 2
 572 1322 738 1315 868 1235 c 1
 863 1151 l 1
 720 1212 604 1244 497 1244 c 0
 353 1244 183 1207 183 986 c 0
 183 875 241 777 318 698 c 1
 758 698 l 1
 758 620 l 1
 308 620 l 1
 308 593 310 551 310 500 c 0
 310 372 297 188 204 60 c 1
 833 60 l 1
 833 0 l 1
 76 0 l 1
EndSplineSet
EndChar

StartChar: t
Encoding: 116 116 288
Width: 746
VWidth: 0
Flags: HW
PickledData: "(dp1
S'hhints'
p2
(dp3
sS'anchors'
p4
(tsS'com.typemytype.robofont.layerData'
p5
(dp6
S'b'
(dp7
S'name'
p8
S't'
sS'lib'
p9
(dp10
sS'unicodes'
p11
(tsS'width'
p12
I747
sS'contours'
p13
(tsS'components'
p14
(tsg4
(tsssg11
(tsS'vhints'
p15
(dp16
sS'com.fontlab.hintData'
p17
(dp18
sg12
I777
sg13
(tsg14
(tsS'position'
p19
I273
sg8
S't'
s."
LayerCount: 2
Fore
SplineSet
483 -12 m 0
 291 -12 237 127 237 227 c 2
 237 1098 l 1
 51 1098 l 1
 51 1172 l 1
 238 1172 l 1
 250 1543 l 1
 335 1562 l 1
 335 1172 l 1
 675 1172 l 1
 675 1098 l 1
 335 1098 l 1
 335 228 l 2
 335 140 378 71 495 71 c 0
 538 71 592 80 657 102 c 1
 679 25 l 1
 602 -1 538 -12 483 -12 c 0
EndSplineSet
EndChar

StartChar: thorn
Encoding: 254 254 290
Width: 1128
VWidth: 0
Flags: HW
PickledData: "(dp1
S'position'
p2
I995
sS'vhints'
p3
(dp4
sS'hhints'
p5
(dp6
sS'com.fontlab.hintData'
p7
(dp8
sS'width'
p9
I90
s."
LayerCount: 2
Fore
SplineSet
658 79 m 0
 902 79 995 326 995 518 c 0
 995 687 983 1103 662 1103 c 0
 543 1103 371 1018 256 903 c 1
 231 213 l 1
 338 126 524 79 658 79 c 0
123 -530 m 1
 123 1558 l 1
 220 1558 l 1
 220 984 l 1
 324 1103 470 1196 619 1196 c 0
 969 1196 1085 857 1085 594 c 0
 1085 347 987 -16 626 -16 c 0
 489 -16 320 8 221 127 c 1
 221 -497 l 1
 123 -530 l 1
EndSplineSet
EndChar

StartChar: three
Encoding: 51 51 291
Width: 885
VWidth: 0
Flags: HW
PickledData: "(dp1
S'position'
p2
I771
sS'vhints'
p3
(dp4
sS'hhints'
p5
(dp6
sS'com.fontlab.hintData'
p7
(dp8
sS'width'
p9
I102
s."
LayerCount: 2
Fore
SplineSet
432 -210 m 1
 321 -209 170 -179 11 -99 c 1
 48 -30 l 1
 193 -108 339 -135 444 -135 c 0
 623 -135 771 -53 771 159 c 0
 771 396 597 467 413 496 c 1
 413 584 l 1
 569 584 745 638 745 851 c 0
 745 1085 575 1129 390 1129 c 0
 291 1129 208 1117 87 1057 c 1
 71 1139 l 1
 197 1192 333 1208 413 1208 c 0
 590 1208 833 1130 833 892 c 0
 833 716 712 543 534 543 c 0
 527 543 520 543 513 544 c 1
 736 499 873 376 873 127 c 0
 873 -108 613 -210 432 -210 c 1
EndSplineSet
EndChar

StartChar: threequarters
Encoding: 190 190 292
Width: 1560
VWidth: 0
Flags: HW
PickledData: "(dp1
S'position'
p2
I1390
sS'vhints'
p3
(dp4
sS'hhints'
p5
(dp6
sS'com.fontlab.hintData'
p7
(dp8
sS'width'
p9
I103
s."
LayerCount: 2
Fore
SplineSet
916 60 m 1
 1390 60 l 1
 1390 728 l 1
 1241 499 1083 276 916 60 c 1
259 -122 m 1
 190 -31 l 1
 1394 1271 l 1
 1474 1172 l 1
 259 -122 l 1
1390 -317 m 1
 1390 1 l 1
 835 1 l 1
 819 83 l 1
 1407 905 l 1
 1493 886 l 1
 1493 60 l 1
 1650 60 l 1
 1650 1 l 1
 1493 1 l 1
 1493 -282 l 1
 1390 -317 l 1
275 610 m 1
 175 611 43 639 -69 701 c 1
 -26 788 l 1
 105 721 191 703 284 703 c 0
 392 703 534 778 534 915 c 0
 534 1094 395 1147 259 1170 c 1
 259 1272 l 1
 362 1272 516 1328 515 1474 c 1
 515 1639 363 1669 241 1669 c 0
 158 1669 86 1655 4 1612 c 1
 -19 1709 l 1
 81 1756 196 1766 260 1766 c 0
 406 1766 620 1690 618 1494 c 1
 618 1351 491 1224 347 1224 c 0
 341 1224 334 1224 328 1225 c 1
 515 1191 650 1089 650 885 c 0
 650 692 422 610 275 610 c 1
EndSplineSet
EndChar

StartChar: tilde
Encoding: 732 732 293
Width: 837
VWidth: 0
Flags: HW
PickledData: "(dp1
S'position'
p2
I635
sS'vhints'
p3
(dp4
sS'hhints'
p5
(dp6
sS'com.fontlab.hintData'
p7
(dp8
sS'width'
p9
I122
s."
LayerCount: 2
Fore
SplineSet
586 -83 m 0
 415 -83 345 19 250 19 c 0
 196 19 191 -42 191 -74 c 2
 191 -90 l 1
 63 -90 l 1
 63 2 89 128 249 128 c 1
 410 123 452 12 575 12 c 0
 633 12 635 112 635 127 c 1
 757 127 l 1
 757 49 719 -83 586 -83 c 0
EndSplineSet
EndChar

StartChar: trademark
Encoding: 8482 8482 294
Width: 1443
VWidth: 0
Flags: HW
PickledData: "(dp1
S'position'
p2
I1255
sS'vhints'
p3
(dp4
sS'hhints'
p5
(dp6
sS'com.fontlab.hintData'
p7
(dp8
sS'width'
p9
I90
s."
LayerCount: 2
Fore
SplineSet
268 698 m 1
 268 1299 l 1
 85 1299 l 1
 85 1371 l 1
 533 1371 l 1
 533 1299 l 1
 349 1299 l 1
 349 698 l 1
 268 698 l 1
647 698 m 1
 647 1371 l 1
 850 1371 l 1
 999 764 l 1
 1143 1371 l 1
 1345 1371 l 1
 1345 698 l 1
 1255 698 l 1
 1255 1347 l 1
 1074 698 l 1
 918 698 l 1
 739 1347 l 1
 739 698 l 1
 647 698 l 1
EndSplineSet
EndChar

StartChar: two
Encoding: 50 50 295
Width: 989
VWidth: 0
Flags: HW
PickledData: "(dp1
S'position'
p2
I796
sS'vhints'
p3
(dp4
sS'hhints'
p5
(dp6
sS'com.fontlab.hintData'
p7
(dp8
sS'width'
p9
I71
s."
LayerCount: 2
Fore
SplineSet
91 0 m 1
 91 108 l 1
 544 474 l 2
 685 589 796 685 796 878 c 0
 796 1073 612 1128 455 1128 c 2
 448 1128 l 2
 363 1128 317 1109 229 1081 c 1
 197 1132 l 1
 282 1194 337 1205 390 1205 c 0
 418 1205 446 1202 477 1202 c 0
 718 1202 867 1095 867 851 c 0
 867 660 676 473 536 364 c 1
 376 232 286 186 167 90 c 1
 883 90 l 1
 883 0 l 1
 91 0 l 1
EndSplineSet
EndChar

StartChar: u
Encoding: 117 117 296
Width: 1222
VWidth: 0
Flags: HW
PickledData: "(dp1
S'hhints'
p2
(dp3
sS'anchors'
p4
(tsS'com.typemytype.robofont.layerData'
p5
(dp6
S'b'
(dp7
S'name'
p8
S'u'
sS'lib'
p9
(dp10
sS'unicodes'
p11
(tsS'width'
p12
I1223
sS'contours'
p13
(tsS'components'
p14
(tsg4
(tsssg11
(tsS'vhints'
p15
(dp16
sS'com.fontlab.hintData'
p17
(dp18
sg8
S'u'
sg12
I1148
sg13
(tsg14
(tsS'position'
p19
I945
sS'com.typemytype.robofont.guides'
p20
(ts."
LayerCount: 2
Fore
SplineSet
1076 0 m 1
 1076 1172 l 1
 978 1172 l 1
 978 290 l 1
 858 130 721 64 539 64 c 0
 272 64 235 237 235 453 c 2
 235 1172 l 1
 137 1172 l 1
 137 444 l 2
 137 213 197 -16 528 -16 c 0
 716 -16 879 58 987 204 c 1
 1005 0 l 1
 1076 0 l 1
EndSplineSet
EndChar

StartChar: uc_main_stem
Encoding: 65541 -1 299
Width: 1458
VWidth: 0
Flags: W
PickledData: "(dp1
S'com.typemytype.robofont.layerData'
p2
(dp3
S'b'
(dp4
S'name'
p5
S'uc_main_stem'
p6
sS'lib'
p7
(dp8
sS'unicodes'
p9
(tsS'width'
p10
I1459
sS'contours'
p11
(tsS'components'
p12
(tsS'anchors'
p13
(tsss."
HStem: 0 21G<141 241>
VStem: 141 100<0 1620>
LayerCount: 2
Fore
SplineSet
141 0 m 1
 141 1620 l 1
 241 1620 l 1
 241 0 l 1
 141 0 l 1
EndSplineSet
EndChar

StartChar: underscore
Encoding: 95 95 305
Width: 1217
VWidth: 0
Flags: HW
PickledData: "(dp1
S'position'
p2
I-118
sS'hhints'
p3
(dp4
sS'com.fontlab.hintData'
p5
(dp6
sS'width'
p7
I81
s."
LayerCount: 2
Fore
SplineSet
153 -118 m 1
 153 -37 l 1
 1063 -37 l 1
 1063 -118 l 1
 153 -118 l 1
EndSplineSet
EndChar

StartChar: uni00AD
Encoding: 173 173 308
Width: 307
VWidth: 0
Flags: HW
PickledData: "(dp1
S'position'
p2
I21
sS'vhints'
p3
(dp4
sS'hhints'
p5
(dp6
sS'com.fontlab.hintData'
p7
(dp8
sS'width'
p9
I293
s."
LayerCount: 2
Fore
SplineSet
21 473 m 1
 21 533 l 1
 314 533 l 1
 314 473 l 1
 21 473 l 1
EndSplineSet
EndChar

StartChar: uni00B2
Encoding: 178 178 309
Width: 563
VWidth: 0
Flags: HW
PickledData: "(dp1
S'position'
p2
I500
sS'vhints'
p3
(dp4
sS'hhints'
p5
(dp6
sS'com.fontlab.hintData'
p7
(dp8
sS'width'
p9
I121
s."
LayerCount: 2
Fore
SplineSet
-20 693 m 1
 -20 810 l 1
 45 868 51 861 198 990 c 1
 367 1142 500 1298 500 1409 c 0
 500 1531 367 1564 276 1564 c 0
 173 1564 83 1550 -21 1529 c 1
 18 1650 l 1
 81 1673 128 1679 170 1679 c 0
 214 1679 252 1672 294 1672 c 0
 469 1672 621 1576 621 1393 c 0
 621 1178 359 992 215 876 c 0
 161 833 189 855 145 818 c 1
 591 818 l 1
 591 693 l 1
 -20 693 l 1
EndSplineSet
EndChar

StartChar: uni00B3
Encoding: 179 179 310
Width: 591
VWidth: 0
Flags: HW
PickledData: "(dp1
S'position'
p2
I545
sS'vhints'
p3
(dp4
sS'hhints'
p5
(dp6
sS'com.fontlab.hintData'
p7
(dp8
sS'width'
p9
I116
s."
LayerCount: 2
Fore
SplineSet
285 542 m 1
 217 543 43 561 -58 632 c 1
 -16 720 l 1
 111 655 203 634 294 634 c 0
 403 634 545 709 545 846 c 0
 545 1025 406 1079 269 1102 c 1
 269 1204 l 1
 374 1204 525 1259 525 1406 c 0
 525 1570 374 1601 252 1601 c 0
 178 1601 108 1591 15 1543 c 1
 -9 1640 l 1
 90 1687 205 1697 270 1697 c 0
 416 1697 629 1623 629 1428 c 0
 629 1285 503 1155 357 1155 c 0
 351 1155 345 1156 339 1156 c 1
 525 1123 661 1020 661 817 c 0
 661 624 432 542 285 542 c 1
EndSplineSet
EndChar

StartChar: uni00B9
Encoding: 185 185 311
Width: 208
VWidth: 0
Flags: HW
PickledData: "(dp1
S'position'
p2
I91
sS'vhints'
p3
(dp4
sS'hhints'
p5
(dp6
sS'com.fontlab.hintData'
p7
(dp8
sS'width'
p9
I110
s."
LayerCount: 2
Fore
SplineSet
91 358 m 1
 91 1244 l 1
 -105 1162 l 1
 -122 1234 l 1
 128 1333 l 1
 201 1293 l 1
 201 358 l 1
 91 358 l 1
EndSplineSet
EndChar

StartChar: uni0237
Encoding: 567 567 352
Width: 539
VWidth: 0
Flags: HW
PickledData: "(dp1
S'position'
p2
I324
sS'vhints'
p3
(dp4
sS'hhints'
p5
(dp6
sS'com.fontlab.hintData'
p7
(dp8
sS'width'
p9
I104
s."
LayerCount: 2
Fore
SplineSet
160 -386 m 1
 148 -336 l 1
 311 -227 325 -97 325 55 c 0
 325 86 324 118 324 151 c 2
 324 1174 l 1
 428 1174 l 1
 428 128 l 2
 428 -58 396 -327 160 -386 c 1
EndSplineSet
EndChar

StartChar: uni0307
Encoding: 775 775 353
Width: 393
VWidth: 0
Flags: HW
PickledData: "(dp1
S'position'
p2
I129
sS'vhints'
p3
(dp4
sS'hhints'
p5
(dp6
sS'com.fontlab.hintData'
p7
(dp8
sS'width'
p9
I129
s."
LayerCount: 2
Fore
SplineSet
197 -722 m 0
 159 -722 129 -689 129 -649 c 0
 129 -612 159 -576 197 -576 c 0
 239 -576 258 -612 258 -649 c 0
 258 -685 239 -722 197 -722 c 0
EndSplineSet
EndChar

StartChar: uni030F
Encoding: 783 783 354
Width: 72
VWidth: 0
Flags: HW
PickledData: "(dp1
S'position'
p2
I113
sS'vhints'
p3
(dp4
sS'hhints'
p5
(dp6
sS'com.fontlab.hintData'
p7
(dp8
sS'width'
p9
I629
s."
LayerCount: 2
Fore
SplineSet
717 -192 m 1
 375 356 l 1
 585 418 l 1
 742 -192 l 1
 717 -192 l 1
413 -192 m 1
 113 356 l 1
 319 418 l 1
 433 -192 l 1
 413 -192 l 1
EndSplineSet
EndChar

StartChar: uni0311
Encoding: 785 785 355
Width: 520
VWidth: 0
Flags: HW
PickledData: "(dp1
S'position'
p2
I400
sS'vhints'
p3
(dp4
sS'hhints'
p5
(dp6
sS'com.fontlab.hintData'
p7
(dp8
sS'width'
p9
I30
s."
LayerCount: 2
Fore
SplineSet
79 685 m 1
 79 696 l 2
 79 786 147 872 262 872 c 0
 371 872 430 782 430 697 c 2
 430 685 l 1
 400 685 l 1
 401 759 350 833 259 833 c 0
 167 833 108 758 109 685 c 1
 79 685 l 1
EndSplineSet
EndChar

StartChar: uni0326
Encoding: 806 806 356
Width: 414
VWidth: 0
Flags: HW
PickledData: "(dp1
S'position'
p2
I205
sS'vhints'
p3
(dp4
sS'hhints'
p5
(dp6
sS'com.fontlab.hintData'
p7
(dp8
sS'width'
p9
I102
s."
LayerCount: 2
Fore
SplineSet
145 -565 m 1
 100 -482 l 1
 163 -462 206 -432 205 -341 c 1
 99 -341 l 1
 99 -114 l 1
 307 -114 l 1
 307 -302 l 2
 307 -410 279 -528 145 -565 c 1
EndSplineSet
EndChar

StartChar: uni203E
Encoding: 8254 8254 357
Width: 928
VWidth: 0
Flags: HW
PickledData: "(dp1
S'position'
p2
I122
sS'hhints'
p3
(dp4
sS'com.fontlab.hintData'
p5
(dp6
sS'width'
p7
I117
s."
LayerCount: 2
Fore
SplineSet
123 122 m 1
 123 239 l 1
 805 239 l 1
 805 122 l 1
 123 122 l 1
EndSplineSet
EndChar

StartChar: uni2074
Encoding: 8308 8308 358
Width: 1089
VWidth: 0
Flags: HW
PickledData: "(dp1
S'position'
p2
I715
sS'vhints'
p3
(dp4
sS'hhints'
p5
(dp6
sS'com.fontlab.hintData'
p7
(dp8
sS'width'
p9
I92
s."
LayerCount: 2
Fore
SplineSet
213 790 m 1
 715 790 l 1
 715 1491 l 1
 550 1256 383 1022 213 790 c 1
715 413 m 1
 715 731 l 1
 149 731 l 1
 133 813 l 1
 721 1635 l 1
 807 1617 l 1
 807 792 l 1
 964 792 l 1
 964 731 l 1
 807 731 l 1
 807 450 l 1
 715 413 l 1
EndSplineSet
EndChar

StartChar: uniFB01
Encoding: 64257 64257 359
Width: 1098
VWidth: 0
Flags: HW
PickledData: "(dp1
S'position'
p2
I863
sS'vhints'
p3
(dp4
sS'hhints'
p5
(dp6
sS'com.fontlab.hintData'
p7
(dp8
sS'width'
p9
I92
s."
LayerCount: 2
Fore
SplineSet
915 1352 m 0
 877 1352 846 1385 846 1424 c 0
 846 1461 877 1497 915 1497 c 0
 957 1497 976 1461 976 1424 c 0
 976 1388 956 1352 915 1352 c 0
236 0 m 1
 236 1096 l 1
 38 1096 l 1
 38 1172 l 1
 236 1172 l 1
 236 1205 235 1239 235 1273 c 0
 235 1462 256 1657 526 1657 c 0
 609 1657 716 1596 775 1532 c 1
 678 1476 l 1
 638 1526 581 1577 520 1577 c 0
 356 1577 322 1492 322 1391 c 0
 322 1318 340 1236 340 1172 c 1
 955 1172 l 1
 955 0 l 1
 863 0 l 1
 863 1096 l 1
 340 1096 l 1
 340 0 l 1
 236 0 l 1
EndSplineSet
EndChar

StartChar: uniFB02
Encoding: 64258 64258 360
Width: 1121
VWidth: 0
Flags: HW
PickledData: "(dp1
S'position'
p2
I870
sS'vhints'
p3
(dp4
sS'hhints'
p5
(dp6
sS'com.fontlab.hintData'
p7
(dp8
sS'width'
p9
I103
s."
LayerCount: 2
Fore
SplineSet
236 0 m 1
 236 1096 l 1
 38 1096 l 1
 38 1172 l 1
 236 1172 l 1
 236 1535 382 1648 640 1648 c 0
 733 1648 844 1632 973 1601 c 1
 973 0 l 1
 870 0 l 1
 870 1556 l 1
 781 1565 710 1568 653 1568 c 0
 393 1568 340 1488 340 1172 c 1
 724 1172 l 1
 724 1096 l 1
 340 1096 l 1
 340 0 l 1
 236 0 l 1
EndSplineSet
EndChar

StartChar: v
Encoding: 118 118 364
Width: 1008
VWidth: 0
Flags: HW
PickledData: "(dp1
S'hhints'
p2
(dp3
sS'name'
p4
S'v'
sS'unicodes'
p5
(tsS'com.fontlab.hintData'
p6
(dp7
sS'width'
p8
I1009
sS'contours'
p9
(tsS'components'
p10
(tsS'position'
p11
I1152
sS'anchors'
p12
(ts."
LayerCount: 2
Fore
SplineSet
469 0 m 1
 32 1172 l 1
 121 1172 l 1
 513 130 l 5
 897 1172 l 1
 988 1172 l 1
 549 0 l 1
 469 0 l 1
EndSplineSet
EndChar

StartChar: w
Encoding: 119 119 365
Width: 1625
VWidth: 0
Flags: HW
PickledData: "(dp1
S'hhints'
p2
(dp3
sS'name'
p4
S'w'
sS'unicodes'
p5
(tsS'vhints'
p6
(dp7
sS'com.fontlab.hintData'
p8
(dp9
sS'width'
p10
I1626
sS'contours'
p11
(tsS'components'
p12
(tsS'position'
p13
I1480
sS'anchors'
p14
(ts."
LayerCount: 2
Fore
SplineSet
376 1 m 1
 46 1172 l 1
 135 1172 l 1
 440 92 l 1
 761 1172 l 1
 873 1172 l 1
 1200 93 l 5
 1480 1172 l 1
 1580 1172 l 1
 1257 0 l 1
 1139 1 l 1
 819 1065 l 1
 495 1 l 1
 376 1 l 1
EndSplineSet
EndChar

StartChar: x
Encoding: 120 120 366
Width: 937
VWidth: 0
Flags: HW
PickledData: "(dp1
S'hhints'
p2
(dp3
sS'name'
p4
S'x'
sS'unicodes'
p5
(tsS'com.fontlab.hintData'
p6
(dp7
sS'width'
p8
I938
sS'contours'
p9
(tsS'components'
p10
(tsS'position'
p11
I1152
sS'anchors'
p12
(ts."
LayerCount: 2
Fore
SplineSet
19 0 m 1
 417 592 l 1
 23 1172 l 1
 117 1172 l 1
 469 659 l 5
 812 1172 l 1
 905 1172 l 1
 516 586 l 1
 928 0 l 1
 827 0 l 1
 468 521 l 1
 122 0 l 1
 19 0 l 1
EndSplineSet
EndChar

StartChar: y
Encoding: 121 121 367
Width: 1007
VWidth: 0
Flags: HW
PickledData: "(dp1
S'hhints'
p2
(dp3
sS'name'
p4
S'y'
sS'unicodes'
p5
(tsS'com.fontlab.hintData'
p6
(dp7
sS'width'
p8
I1008
sS'contours'
p9
(tsS'components'
p10
(tsS'position'
p11
I1152
sS'anchors'
p12
(ts."
LayerCount: 2
Fore
SplineSet
143 -409 m 1
 136 -340 l 1
 373 -331 383 -230 465 29 c 1
 23 1172 l 1
 122 1172 l 1
 514 139 l 1
 899 1172 l 1
 998 1172 l 1
 539 -40 l 2
 470 -223 438 -409 174 -409 c 2
 143 -409 l 1
EndSplineSet
EndChar

StartChar: yen
Encoding: 165 165 370
Width: 943
VWidth: 0
Flags: HW
PickledData: "(dp1
S'position'
p2
I427
sS'vhints'
p3
(dp4
sS'hhints'
p5
(dp6
sS'com.fontlab.hintData'
p7
(dp8
sS'width'
p9
I105
s."
LayerCount: 2
Fore
SplineSet
427 0 m 1
 427 382 l 1
 136 382 l 1
 136 470 l 1
 428 470 l 1
 460 548 l 1
 136 548 l 1
 136 644 l 1
 428 644 l 1
 -108 1580 l 1
 -13 1580 l 1
 472 776 l 1
 956 1580 l 1
 1048 1580 l 1
 517 644 l 1
 813 644 l 1
 813 548 l 1
 498 548 l 1
 531 470 l 1
 813 470 l 1
 813 382 l 1
 532 382 l 1
 532 0 l 1
 427 0 l 1
EndSplineSet
EndChar

StartChar: z
Encoding: 122 122 371
Width: 940
VWidth: 0
Flags: HW
PickledData: "(dp1
S'hhints'
p2
(dp3
sS'name'
p4
S'z'
sS'unicodes'
p5
(tsS'com.fontlab.hintData'
p6
(dp7
sS'width'
p8
I941
sS'contours'
p9
(tsS'components'
p10
(tsS'position'
p11
I1099
sS'anchors'
p12
(ts."
LayerCount: 2
Fore
SplineSet
111 0 m 1
 111 87 l 1
 768 1099 l 1
 151 1099 l 1
 151 1172 l 1
 863 1172 l 1
 862 1091 l 1
 213 81 l 5
 844 81 l 1
 844 0 l 1
 111 0 l 1
EndSplineSet
EndChar

StartChar: zero
Encoding: 48 48 375
Width: 1329
VWidth: 0
Flags: HW
PickledData: "(dp1
S'position'
p2
I1116
sS'vhints'
p3
(dp4
sS'hhints'
p5
(dp6
sS'com.fontlab.hintData'
p7
(dp8
sS'width'
p9
I109
s."
LayerCount: 2
Fore
SplineSet
665 -33 m 0
 305 -33 106 258 106 590 c 0
 106 929 293 1212 664 1212 c 0
 1025 1212 1225 930 1225 594 c 0
 1225 254 1030 -33 665 -33 c 0
664 46 m 0
 1017 46 1116 324 1116 608 c 0
 1116 891 991 1135 664 1135 c 0
 324 1135 215 884 215 592 c 0
 215 316 326 46 664 46 c 0
EndSplineSet
EndChar
